%MOIN*%
%OFA0B0*%
%FSLAX46Y46*%
%IPPOS*%
%LPD*%
%ADD10R,0.031496062992125991X0.062992125984251982*%
%ADD11R,0.027559055118110236X0.074803149606299218*%
%ADD12C,0.074803149606299218*%
%ADD13C,0.0039370078740157488*%
%ADD14C,0.0610236220472441*%
%ADD15C,0.054133858267716536*%
%ADD16R,0.082677165354330714X0.082677165354330714*%
%ADD17O,0.082677165354330714X0.082677165354330714*%
%ADD18R,0.051181102362204731X0.047244094488188976*%
%ADD29R,0.031496062992125991X0.062992125984251982*%
%ADD30R,0.027559055118110236X0.074803149606299218*%
%ADD31C,0.074803149606299218*%
%ADD32C,0.0039370078740157488*%
%ADD33C,0.0610236220472441*%
%ADD34C,0.054133858267716536*%
%ADD35R,0.082677165354330714X0.082677165354330714*%
%ADD36O,0.082677165354330714X0.082677165354330714*%
%ADD37R,0.051181102362204731X0.047244094488188976*%
%ADD38R,0.062992125984251982X0.031496062992125991*%
%ADD39R,0.074803149606299218X0.027559055118110236*%
%ADD40C,0.074803149606299218*%
%ADD41C,0.0039370078740157488*%
%ADD42C,0.0610236220472441*%
%ADD43C,0.054133858267716536*%
%ADD44R,0.082677165354330714X0.082677165354330714*%
%ADD45O,0.082677165354330714X0.082677165354330714*%
%ADD46R,0.047244094488188976X0.051181102362204731*%
G01*
D10*
X-0004094488Y0004055118D02*
X0000796515Y0001477263D03*
X0000770925Y0001477263D03*
X0000745334Y0001477263D03*
X0000719744Y0001477263D03*
X0000694153Y0001477263D03*
X0000668562Y0001477263D03*
X0000642972Y0001477263D03*
X0000617381Y0001477263D03*
X0000591791Y0001477263D03*
X0000566200Y0001477263D03*
X0000566200Y0001248917D03*
X0000591791Y0001248917D03*
X0000617381Y0001248917D03*
X0000642972Y0001248917D03*
X0000668562Y0001248917D03*
X0000694153Y0001248917D03*
X0000719744Y0001248917D03*
X0000745334Y0001248917D03*
X0000770925Y0001248917D03*
X0000796515Y0001248917D03*
D11*
X0000641541Y0001949387D03*
X0000665163Y0001949387D03*
X0000688785Y0001949387D03*
X0000712407Y0001949387D03*
X0000736029Y0001949387D03*
X0000759651Y0001949387D03*
X0000783273Y0001949387D03*
X0000653352Y0002093088D03*
X0000676974Y0002093088D03*
X0000700596Y0002093088D03*
X0000724218Y0002093088D03*
X0000747840Y0002093088D03*
X0000771462Y0002093088D03*
D12*
X0000762047Y0001122637D03*
X0000388031Y0001614763D03*
X0000584881Y0001614763D03*
X0000289606Y0001614763D03*
X0000269921Y0001122637D03*
X0001155747Y0001122637D03*
X0000963346Y0001122637D03*
X0001096692Y0001614763D03*
X0000663622Y0001122637D03*
X0000565196Y0001122637D03*
X0000466771Y0001126712D03*
X0000368346Y0001122637D03*
X0000683307Y0001614763D03*
X0000781732Y0001614763D03*
X0000860472Y0001126712D03*
X0000486456Y0001614763D03*
X0001032250Y0001811435D03*
X0000978582Y0001614763D03*
X0000958195Y0002213561D03*
X0000859769Y0002213561D03*
X0000761344Y0002213561D03*
X0000662919Y0002213561D03*
X0001063740Y0001122637D03*
X0000880157Y0001614763D03*
X0000944021Y0001804368D03*
X0000835399Y0001811435D03*
X0000736974Y0001811435D03*
X0000638549Y0001811435D03*
X0000540124Y0001811435D03*
X0000441698Y0001811435D03*
X0000564494Y0002213561D03*
X0001195118Y0001614763D03*
X0000466069Y0002213561D03*
D11*
X0000719330Y0000702440D03*
X0000742952Y0000702440D03*
X0000766574Y0000702440D03*
X0000790196Y0000702440D03*
X0000813818Y0000702440D03*
X0000837440Y0000702440D03*
X0000707519Y0000846141D03*
X0000731141Y0000846141D03*
X0000754763Y0000846141D03*
X0000778385Y0000846141D03*
X0000802007Y0000846141D03*
X0000825629Y0000846141D03*
X0000849251Y0000846141D03*
D13*
G36*
X0001023979Y0000366274D02*
X0001025266Y0000366083D01*
X0001026529Y0000365767D01*
X0001027755Y0000365328D01*
X0001028932Y0000364772D01*
X0001030049Y0000364102D01*
X0001031094Y0000363327D01*
X0001032059Y0000362453D01*
X0001032933Y0000361488D01*
X0001033709Y0000360442D01*
X0001034378Y0000359326D01*
X0001034935Y0000358149D01*
X0001035373Y0000356923D01*
X0001035689Y0000355660D01*
X0001035880Y0000354372D01*
X0001035944Y0000353072D01*
X0001035944Y0000318580D01*
X0001035880Y0000317280D01*
X0001035689Y0000315992D01*
X0001035373Y0000314730D01*
X0001034935Y0000313504D01*
X0001034378Y0000312327D01*
X0001033709Y0000311210D01*
X0001032933Y0000310165D01*
X0001032059Y0000309200D01*
X0001031094Y0000308326D01*
X0001030049Y0000307550D01*
X0001028932Y0000306881D01*
X0001027755Y0000306324D01*
X0001026529Y0000305886D01*
X0001025266Y0000305569D01*
X0001023979Y0000305378D01*
X0001022678Y0000305314D01*
X0000978344Y0000305314D01*
X0000977044Y0000305378D01*
X0000975756Y0000305569D01*
X0000974493Y0000305886D01*
X0000973268Y0000306324D01*
X0000972091Y0000306881D01*
X0000970974Y0000307550D01*
X0000969928Y0000308326D01*
X0000968964Y0000309200D01*
X0000968089Y0000310165D01*
X0000967314Y0000311210D01*
X0000966645Y0000312327D01*
X0000966088Y0000313504D01*
X0000965649Y0000314730D01*
X0000965333Y0000315992D01*
X0000965142Y0000317280D01*
X0000965078Y0000318580D01*
X0000965078Y0000353072D01*
X0000965142Y0000354372D01*
X0000965333Y0000355660D01*
X0000965649Y0000356923D01*
X0000966088Y0000358149D01*
X0000966645Y0000359326D01*
X0000967314Y0000360442D01*
X0000968089Y0000361488D01*
X0000968964Y0000362453D01*
X0000969928Y0000363327D01*
X0000970974Y0000364102D01*
X0000972091Y0000364772D01*
X0000973268Y0000365328D01*
X0000974493Y0000365767D01*
X0000975756Y0000366083D01*
X0000977044Y0000366274D01*
X0000978344Y0000366338D01*
X0001022678Y0000366338D01*
X0001023979Y0000366274D01*
X0001023979Y0000366274D01*
G37*
D14*
X0001000511Y0000335826D03*
D13*
G36*
X0001023979Y0000285566D02*
X0001025266Y0000285375D01*
X0001026529Y0000285058D01*
X0001027755Y0000284620D01*
X0001028932Y0000284063D01*
X0001030049Y0000283394D01*
X0001031094Y0000282618D01*
X0001032059Y0000281744D01*
X0001032933Y0000280779D01*
X0001033709Y0000279734D01*
X0001034378Y0000278617D01*
X0001034935Y0000277440D01*
X0001035373Y0000276214D01*
X0001035689Y0000274951D01*
X0001035880Y0000273664D01*
X0001035944Y0000272363D01*
X0001035944Y0000237872D01*
X0001035880Y0000236571D01*
X0001035689Y0000235284D01*
X0001035373Y0000234021D01*
X0001034935Y0000232795D01*
X0001034378Y0000231618D01*
X0001033709Y0000230502D01*
X0001032933Y0000229456D01*
X0001032059Y0000228491D01*
X0001031094Y0000227617D01*
X0001030049Y0000226841D01*
X0001028932Y0000226172D01*
X0001027755Y0000225616D01*
X0001026529Y0000225177D01*
X0001025266Y0000224861D01*
X0001023979Y0000224670D01*
X0001022678Y0000224606D01*
X0000978344Y0000224606D01*
X0000977044Y0000224670D01*
X0000975756Y0000224861D01*
X0000974493Y0000225177D01*
X0000973268Y0000225616D01*
X0000972091Y0000226172D01*
X0000970974Y0000226841D01*
X0000969928Y0000227617D01*
X0000968964Y0000228491D01*
X0000968089Y0000229456D01*
X0000967314Y0000230502D01*
X0000966645Y0000231618D01*
X0000966088Y0000232795D01*
X0000965649Y0000234021D01*
X0000965333Y0000235284D01*
X0000965142Y0000236571D01*
X0000965078Y0000237872D01*
X0000965078Y0000272363D01*
X0000965142Y0000273664D01*
X0000965333Y0000274951D01*
X0000965649Y0000276214D01*
X0000966088Y0000277440D01*
X0000966645Y0000278617D01*
X0000967314Y0000279734D01*
X0000968089Y0000280779D01*
X0000968964Y0000281744D01*
X0000969928Y0000282618D01*
X0000970974Y0000283394D01*
X0000972091Y0000284063D01*
X0000973268Y0000284620D01*
X0000974493Y0000285058D01*
X0000975756Y0000285375D01*
X0000977044Y0000285566D01*
X0000978344Y0000285629D01*
X0001022678Y0000285629D01*
X0001023979Y0000285566D01*
X0001023979Y0000285566D01*
G37*
D14*
X0001000511Y0000255118D03*
D13*
G36*
X0000983979Y0000580565D02*
X0000985266Y0000580374D01*
X0000986529Y0000580058D01*
X0000987755Y0000579620D01*
X0000988932Y0000579063D01*
X0000990049Y0000578394D01*
X0000991094Y0000577618D01*
X0000992059Y0000576744D01*
X0000992933Y0000575779D01*
X0000993709Y0000574734D01*
X0000994378Y0000573617D01*
X0000994935Y0000572440D01*
X0000995373Y0000571214D01*
X0000995689Y0000569952D01*
X0000995880Y0000568664D01*
X0000995944Y0000567363D01*
X0000995944Y0000532872D01*
X0000995880Y0000531572D01*
X0000995689Y0000530284D01*
X0000995373Y0000529021D01*
X0000994935Y0000527795D01*
X0000994378Y0000526618D01*
X0000993709Y0000525502D01*
X0000992933Y0000524456D01*
X0000992059Y0000523491D01*
X0000991094Y0000522617D01*
X0000990049Y0000521841D01*
X0000988932Y0000521172D01*
X0000987755Y0000520616D01*
X0000986529Y0000520177D01*
X0000985266Y0000519861D01*
X0000983979Y0000519670D01*
X0000982678Y0000519606D01*
X0000938344Y0000519606D01*
X0000937044Y0000519670D01*
X0000935756Y0000519861D01*
X0000934493Y0000520177D01*
X0000933268Y0000520616D01*
X0000932091Y0000521172D01*
X0000930974Y0000521841D01*
X0000929928Y0000522617D01*
X0000928964Y0000523491D01*
X0000928089Y0000524456D01*
X0000927314Y0000525502D01*
X0000926645Y0000526618D01*
X0000926088Y0000527795D01*
X0000925649Y0000529021D01*
X0000925333Y0000530284D01*
X0000925142Y0000531572D01*
X0000925078Y0000532872D01*
X0000925078Y0000567363D01*
X0000925142Y0000568664D01*
X0000925333Y0000569952D01*
X0000925649Y0000571214D01*
X0000926088Y0000572440D01*
X0000926645Y0000573617D01*
X0000927314Y0000574734D01*
X0000928089Y0000575779D01*
X0000928964Y0000576744D01*
X0000929928Y0000577618D01*
X0000930974Y0000578394D01*
X0000932091Y0000579063D01*
X0000933268Y0000579620D01*
X0000934493Y0000580058D01*
X0000935756Y0000580374D01*
X0000937044Y0000580565D01*
X0000938344Y0000580629D01*
X0000982678Y0000580629D01*
X0000983979Y0000580565D01*
X0000983979Y0000580565D01*
G37*
D14*
X0000960511Y0000550118D03*
D13*
G36*
X0000983979Y0000499857D02*
X0000985266Y0000499666D01*
X0000986529Y0000499350D01*
X0000987755Y0000498911D01*
X0000988932Y0000498354D01*
X0000990049Y0000497685D01*
X0000991094Y0000496910D01*
X0000992059Y0000496035D01*
X0000992933Y0000495071D01*
X0000993709Y0000494025D01*
X0000994378Y0000492908D01*
X0000994935Y0000491731D01*
X0000995373Y0000490506D01*
X0000995689Y0000489243D01*
X0000995880Y0000487955D01*
X0000995944Y0000486655D01*
X0000995944Y0000452163D01*
X0000995880Y0000450863D01*
X0000995689Y0000449575D01*
X0000995373Y0000448312D01*
X0000994935Y0000447086D01*
X0000994378Y0000445910D01*
X0000993709Y0000444793D01*
X0000992933Y0000443747D01*
X0000992059Y0000442783D01*
X0000991094Y0000441908D01*
X0000990049Y0000441133D01*
X0000988932Y0000440464D01*
X0000987755Y0000439907D01*
X0000986529Y0000439468D01*
X0000985266Y0000439152D01*
X0000983979Y0000438961D01*
X0000982678Y0000438897D01*
X0000938344Y0000438897D01*
X0000937044Y0000438961D01*
X0000935756Y0000439152D01*
X0000934493Y0000439468D01*
X0000933268Y0000439907D01*
X0000932091Y0000440464D01*
X0000930974Y0000441133D01*
X0000929928Y0000441908D01*
X0000928964Y0000442783D01*
X0000928089Y0000443747D01*
X0000927314Y0000444793D01*
X0000926645Y0000445910D01*
X0000926088Y0000447086D01*
X0000925649Y0000448312D01*
X0000925333Y0000449575D01*
X0000925142Y0000450863D01*
X0000925078Y0000452163D01*
X0000925078Y0000486655D01*
X0000925142Y0000487955D01*
X0000925333Y0000489243D01*
X0000925649Y0000490506D01*
X0000926088Y0000491731D01*
X0000926645Y0000492908D01*
X0000927314Y0000494025D01*
X0000928089Y0000495071D01*
X0000928964Y0000496035D01*
X0000929928Y0000496910D01*
X0000930974Y0000497685D01*
X0000932091Y0000498354D01*
X0000933268Y0000498911D01*
X0000934493Y0000499350D01*
X0000935756Y0000499666D01*
X0000937044Y0000499857D01*
X0000938344Y0000499921D01*
X0000982678Y0000499921D01*
X0000983979Y0000499857D01*
X0000983979Y0000499857D01*
G37*
D14*
X0000960511Y0000469409D03*
D13*
G36*
X0000628979Y0000680566D02*
X0000630266Y0000680375D01*
X0000631529Y0000680058D01*
X0000632755Y0000679620D01*
X0000633932Y0000679063D01*
X0000635049Y0000678394D01*
X0000636094Y0000677618D01*
X0000637059Y0000676744D01*
X0000637933Y0000675779D01*
X0000638709Y0000674734D01*
X0000639378Y0000673617D01*
X0000639935Y0000672440D01*
X0000640373Y0000671214D01*
X0000640689Y0000669951D01*
X0000640880Y0000668664D01*
X0000640944Y0000667363D01*
X0000640944Y0000632872D01*
X0000640880Y0000631571D01*
X0000640689Y0000630284D01*
X0000640373Y0000629021D01*
X0000639935Y0000627795D01*
X0000639378Y0000626618D01*
X0000638709Y0000625502D01*
X0000637933Y0000624456D01*
X0000637059Y0000623491D01*
X0000636094Y0000622617D01*
X0000635049Y0000621842D01*
X0000633932Y0000621172D01*
X0000632755Y0000620616D01*
X0000631529Y0000620177D01*
X0000630266Y0000619861D01*
X0000628979Y0000619670D01*
X0000627678Y0000619606D01*
X0000583344Y0000619606D01*
X0000582044Y0000619670D01*
X0000580756Y0000619861D01*
X0000579493Y0000620177D01*
X0000578268Y0000620616D01*
X0000577091Y0000621172D01*
X0000575974Y0000621842D01*
X0000574928Y0000622617D01*
X0000573964Y0000623491D01*
X0000573089Y0000624456D01*
X0000572314Y0000625502D01*
X0000571645Y0000626618D01*
X0000571088Y0000627795D01*
X0000570649Y0000629021D01*
X0000570333Y0000630284D01*
X0000570142Y0000631571D01*
X0000570078Y0000632872D01*
X0000570078Y0000667363D01*
X0000570142Y0000668664D01*
X0000570333Y0000669951D01*
X0000570649Y0000671214D01*
X0000571088Y0000672440D01*
X0000571645Y0000673617D01*
X0000572314Y0000674734D01*
X0000573089Y0000675779D01*
X0000573964Y0000676744D01*
X0000574928Y0000677618D01*
X0000575974Y0000678394D01*
X0000577091Y0000679063D01*
X0000578268Y0000679620D01*
X0000579493Y0000680058D01*
X0000580756Y0000680375D01*
X0000582044Y0000680566D01*
X0000583344Y0000680629D01*
X0000627678Y0000680629D01*
X0000628979Y0000680566D01*
X0000628979Y0000680566D01*
G37*
D14*
X0000605511Y0000650118D03*
D13*
G36*
X0000628979Y0000599857D02*
X0000630266Y0000599666D01*
X0000631529Y0000599350D01*
X0000632755Y0000598911D01*
X0000633932Y0000598354D01*
X0000635049Y0000597685D01*
X0000636094Y0000596910D01*
X0000637059Y0000596035D01*
X0000637933Y0000595071D01*
X0000638709Y0000594025D01*
X0000639378Y0000592908D01*
X0000639935Y0000591731D01*
X0000640373Y0000590506D01*
X0000640689Y0000589243D01*
X0000640880Y0000587955D01*
X0000640944Y0000586655D01*
X0000640944Y0000552163D01*
X0000640880Y0000550863D01*
X0000640689Y0000549575D01*
X0000640373Y0000548312D01*
X0000639935Y0000547086D01*
X0000639378Y0000545910D01*
X0000638709Y0000544793D01*
X0000637933Y0000543747D01*
X0000637059Y0000542783D01*
X0000636094Y0000541908D01*
X0000635049Y0000541133D01*
X0000633932Y0000540464D01*
X0000632755Y0000539907D01*
X0000631529Y0000539468D01*
X0000630266Y0000539152D01*
X0000628979Y0000538961D01*
X0000627678Y0000538897D01*
X0000583344Y0000538897D01*
X0000582044Y0000538961D01*
X0000580756Y0000539152D01*
X0000579493Y0000539468D01*
X0000578268Y0000539907D01*
X0000577091Y0000540464D01*
X0000575974Y0000541133D01*
X0000574928Y0000541908D01*
X0000573964Y0000542783D01*
X0000573089Y0000543747D01*
X0000572314Y0000544793D01*
X0000571645Y0000545910D01*
X0000571088Y0000547086D01*
X0000570649Y0000548312D01*
X0000570333Y0000549575D01*
X0000570142Y0000550863D01*
X0000570078Y0000552163D01*
X0000570078Y0000586655D01*
X0000570142Y0000587955D01*
X0000570333Y0000589243D01*
X0000570649Y0000590506D01*
X0000571088Y0000591731D01*
X0000571645Y0000592908D01*
X0000572314Y0000594025D01*
X0000573089Y0000595071D01*
X0000573964Y0000596035D01*
X0000574928Y0000596910D01*
X0000575974Y0000597685D01*
X0000577091Y0000598354D01*
X0000578268Y0000598911D01*
X0000579493Y0000599350D01*
X0000580756Y0000599666D01*
X0000582044Y0000599857D01*
X0000583344Y0000599921D01*
X0000627678Y0000599921D01*
X0000628979Y0000599857D01*
X0000628979Y0000599857D01*
G37*
D14*
X0000605511Y0000569409D03*
D10*
X0000902559Y0000547244D03*
X0000876968Y0000547244D03*
X0000851377Y0000547244D03*
X0000825787Y0000547244D03*
X0000800196Y0000547244D03*
X0000774606Y0000547244D03*
X0000749015Y0000547244D03*
X0000723425Y0000547244D03*
X0000697834Y0000547244D03*
X0000672244Y0000547244D03*
X0000672244Y0000318897D03*
X0000697834Y0000318897D03*
X0000723425Y0000318897D03*
X0000749015Y0000318897D03*
X0000774606Y0000318897D03*
X0000800196Y0000318897D03*
X0000825787Y0000318897D03*
X0000851377Y0000318897D03*
X0000876968Y0000318897D03*
X0000902559Y0000318897D03*
D13*
G36*
X0001027404Y0000847377D02*
X0001028692Y0000847185D01*
X0001029954Y0000846869D01*
X0001031180Y0000846431D01*
X0001032357Y0000845874D01*
X0001033474Y0000845205D01*
X0001034519Y0000844429D01*
X0001035484Y0000843555D01*
X0001036358Y0000842590D01*
X0001037134Y0000841545D01*
X0001037803Y0000840428D01*
X0001038360Y0000839251D01*
X0001038798Y0000838025D01*
X0001039115Y0000836763D01*
X0001039306Y0000835475D01*
X0001039370Y0000834174D01*
X0001039370Y0000799683D01*
X0001039306Y0000798383D01*
X0001039115Y0000797095D01*
X0001038798Y0000795832D01*
X0001038360Y0000794606D01*
X0001037803Y0000793429D01*
X0001037134Y0000792313D01*
X0001036358Y0000791267D01*
X0001035484Y0000790302D01*
X0001034519Y0000789428D01*
X0001033474Y0000788652D01*
X0001032357Y0000787983D01*
X0001031180Y0000787427D01*
X0001029954Y0000786988D01*
X0001028692Y0000786672D01*
X0001027404Y0000786481D01*
X0001026104Y0000786417D01*
X0000981769Y0000786417D01*
X0000980469Y0000786481D01*
X0000979181Y0000786672D01*
X0000977919Y0000786988D01*
X0000976693Y0000787427D01*
X0000975516Y0000787983D01*
X0000974399Y0000788652D01*
X0000973354Y0000789428D01*
X0000972389Y0000790302D01*
X0000971515Y0000791267D01*
X0000970739Y0000792313D01*
X0000970070Y0000793429D01*
X0000969513Y0000794606D01*
X0000969075Y0000795832D01*
X0000968758Y0000797095D01*
X0000968567Y0000798383D01*
X0000968503Y0000799683D01*
X0000968503Y0000834174D01*
X0000968567Y0000835475D01*
X0000968758Y0000836763D01*
X0000969075Y0000838025D01*
X0000969513Y0000839251D01*
X0000970070Y0000840428D01*
X0000970739Y0000841545D01*
X0000971515Y0000842590D01*
X0000972389Y0000843555D01*
X0000973354Y0000844429D01*
X0000974399Y0000845205D01*
X0000975516Y0000845874D01*
X0000976693Y0000846431D01*
X0000977919Y0000846869D01*
X0000979181Y0000847185D01*
X0000980469Y0000847377D01*
X0000981769Y0000847440D01*
X0001026104Y0000847440D01*
X0001027404Y0000847377D01*
X0001027404Y0000847377D01*
G37*
D14*
X0001003937Y0000816929D03*
D13*
G36*
X0001027404Y0000766668D02*
X0001028692Y0000766477D01*
X0001029954Y0000766161D01*
X0001031180Y0000765722D01*
X0001032357Y0000765165D01*
X0001033474Y0000764496D01*
X0001034519Y0000763721D01*
X0001035484Y0000762846D01*
X0001036358Y0000761882D01*
X0001037134Y0000760836D01*
X0001037803Y0000759719D01*
X0001038360Y0000758542D01*
X0001038798Y0000757317D01*
X0001039115Y0000756054D01*
X0001039306Y0000754766D01*
X0001039370Y0000753466D01*
X0001039370Y0000718974D01*
X0001039306Y0000717674D01*
X0001039115Y0000716386D01*
X0001038798Y0000715123D01*
X0001038360Y0000713897D01*
X0001037803Y0000712721D01*
X0001037134Y0000711604D01*
X0001036358Y0000710558D01*
X0001035484Y0000709594D01*
X0001034519Y0000708719D01*
X0001033474Y0000707944D01*
X0001032357Y0000707275D01*
X0001031180Y0000706718D01*
X0001029954Y0000706279D01*
X0001028692Y0000705963D01*
X0001027404Y0000705772D01*
X0001026104Y0000705708D01*
X0000981769Y0000705708D01*
X0000980469Y0000705772D01*
X0000979181Y0000705963D01*
X0000977919Y0000706279D01*
X0000976693Y0000706718D01*
X0000975516Y0000707275D01*
X0000974399Y0000707944D01*
X0000973354Y0000708719D01*
X0000972389Y0000709594D01*
X0000971515Y0000710558D01*
X0000970739Y0000711604D01*
X0000970070Y0000712721D01*
X0000969513Y0000713897D01*
X0000969075Y0000715123D01*
X0000968758Y0000716386D01*
X0000968567Y0000717674D01*
X0000968503Y0000718974D01*
X0000968503Y0000753466D01*
X0000968567Y0000754766D01*
X0000968758Y0000756054D01*
X0000969075Y0000757317D01*
X0000969513Y0000758542D01*
X0000970070Y0000759719D01*
X0000970739Y0000760836D01*
X0000971515Y0000761882D01*
X0000972389Y0000762846D01*
X0000973354Y0000763721D01*
X0000974399Y0000764496D01*
X0000975516Y0000765165D01*
X0000976693Y0000765722D01*
X0000977919Y0000766161D01*
X0000979181Y0000766477D01*
X0000980469Y0000766668D01*
X0000981769Y0000766732D01*
X0001026104Y0000766732D01*
X0001027404Y0000766668D01*
X0001027404Y0000766668D01*
G37*
D14*
X0001003937Y0000736220D03*
D13*
G36*
X0000332281Y0000783399D02*
X0000333594Y0000783204D01*
X0000334883Y0000782881D01*
X0000336133Y0000782434D01*
X0000337334Y0000781866D01*
X0000338473Y0000781183D01*
X0000339540Y0000780392D01*
X0000340524Y0000779500D01*
X0000341416Y0000778516D01*
X0000342207Y0000777449D01*
X0000342890Y0000776310D01*
X0000343457Y0000775110D01*
X0000343905Y0000773859D01*
X0000344228Y0000772571D01*
X0000344423Y0000771257D01*
X0000344488Y0000769931D01*
X0000344488Y0000726131D01*
X0000344423Y0000724805D01*
X0000344228Y0000723491D01*
X0000343905Y0000722203D01*
X0000343457Y0000720952D01*
X0000342890Y0000719752D01*
X0000342207Y0000718613D01*
X0000341416Y0000717546D01*
X0000340524Y0000716562D01*
X0000339540Y0000715670D01*
X0000338473Y0000714879D01*
X0000337334Y0000714196D01*
X0000336133Y0000713628D01*
X0000334883Y0000713181D01*
X0000333594Y0000712858D01*
X0000332281Y0000712663D01*
X0000330954Y0000712598D01*
X0000303887Y0000712598D01*
X0000302561Y0000712663D01*
X0000301247Y0000712858D01*
X0000299959Y0000713181D01*
X0000298708Y0000713628D01*
X0000297508Y0000714196D01*
X0000296368Y0000714879D01*
X0000295302Y0000715670D01*
X0000294318Y0000716562D01*
X0000293426Y0000717546D01*
X0000292635Y0000718613D01*
X0000291952Y0000719752D01*
X0000291384Y0000720952D01*
X0000290937Y0000722203D01*
X0000290614Y0000723491D01*
X0000290419Y0000724805D01*
X0000290354Y0000726131D01*
X0000290354Y0000769931D01*
X0000290419Y0000771257D01*
X0000290614Y0000772571D01*
X0000290937Y0000773859D01*
X0000291384Y0000775110D01*
X0000291952Y0000776310D01*
X0000292635Y0000777449D01*
X0000293426Y0000778516D01*
X0000294318Y0000779500D01*
X0000295302Y0000780392D01*
X0000296368Y0000781183D01*
X0000297508Y0000781866D01*
X0000298708Y0000782434D01*
X0000299959Y0000782881D01*
X0000301247Y0000783204D01*
X0000302561Y0000783399D01*
X0000303887Y0000783464D01*
X0000330954Y0000783464D01*
X0000332281Y0000783399D01*
X0000332281Y0000783399D01*
G37*
D15*
X0000317421Y0000748031D03*
D13*
G36*
X0000406100Y0000783399D02*
X0000407413Y0000783204D01*
X0000408702Y0000782881D01*
X0000409952Y0000782434D01*
X0000411153Y0000781866D01*
X0000412292Y0000781183D01*
X0000413359Y0000780392D01*
X0000414343Y0000779500D01*
X0000415235Y0000778516D01*
X0000416026Y0000777449D01*
X0000416709Y0000776310D01*
X0000417276Y0000775110D01*
X0000417724Y0000773859D01*
X0000418047Y0000772571D01*
X0000418241Y0000771257D01*
X0000418307Y0000769931D01*
X0000418307Y0000726131D01*
X0000418241Y0000724805D01*
X0000418047Y0000723491D01*
X0000417724Y0000722203D01*
X0000417276Y0000720952D01*
X0000416709Y0000719752D01*
X0000416026Y0000718613D01*
X0000415235Y0000717546D01*
X0000414343Y0000716562D01*
X0000413359Y0000715670D01*
X0000412292Y0000714879D01*
X0000411153Y0000714196D01*
X0000409952Y0000713628D01*
X0000408702Y0000713181D01*
X0000407413Y0000712858D01*
X0000406100Y0000712663D01*
X0000404773Y0000712598D01*
X0000377706Y0000712598D01*
X0000376380Y0000712663D01*
X0000375066Y0000712858D01*
X0000373778Y0000713181D01*
X0000372527Y0000713628D01*
X0000371327Y0000714196D01*
X0000370187Y0000714879D01*
X0000369121Y0000715670D01*
X0000368137Y0000716562D01*
X0000367245Y0000717546D01*
X0000366453Y0000718613D01*
X0000365771Y0000719752D01*
X0000365203Y0000720952D01*
X0000364755Y0000722203D01*
X0000364433Y0000723491D01*
X0000364238Y0000724805D01*
X0000364173Y0000726131D01*
X0000364173Y0000769931D01*
X0000364238Y0000771257D01*
X0000364433Y0000772571D01*
X0000364755Y0000773859D01*
X0000365203Y0000775110D01*
X0000365771Y0000776310D01*
X0000366453Y0000777449D01*
X0000367245Y0000778516D01*
X0000368137Y0000779500D01*
X0000369121Y0000780392D01*
X0000370187Y0000781183D01*
X0000371327Y0000781866D01*
X0000372527Y0000782434D01*
X0000373778Y0000782881D01*
X0000375066Y0000783204D01*
X0000376380Y0000783399D01*
X0000377706Y0000783464D01*
X0000404773Y0000783464D01*
X0000406100Y0000783399D01*
X0000406100Y0000783399D01*
G37*
D15*
X0000391240Y0000748031D03*
D13*
G36*
X0000329623Y0000547178D02*
X0000330937Y0000546984D01*
X0000332225Y0000546661D01*
X0000333476Y0000546213D01*
X0000334676Y0000545646D01*
X0000335815Y0000544963D01*
X0000336882Y0000544172D01*
X0000337866Y0000543280D01*
X0000338758Y0000542296D01*
X0000339549Y0000541229D01*
X0000340232Y0000540090D01*
X0000340800Y0000538889D01*
X0000341247Y0000537639D01*
X0000341570Y0000536350D01*
X0000341765Y0000535037D01*
X0000341830Y0000533710D01*
X0000341830Y0000489911D01*
X0000341765Y0000488584D01*
X0000341570Y0000487271D01*
X0000341247Y0000485982D01*
X0000340800Y0000484732D01*
X0000340232Y0000483531D01*
X0000339549Y0000482392D01*
X0000338758Y0000481325D01*
X0000337866Y0000480341D01*
X0000336882Y0000479449D01*
X0000335815Y0000478658D01*
X0000334676Y0000477975D01*
X0000333476Y0000477408D01*
X0000332225Y0000476960D01*
X0000330937Y0000476637D01*
X0000329623Y0000476443D01*
X0000328297Y0000476377D01*
X0000301230Y0000476377D01*
X0000299903Y0000476443D01*
X0000298590Y0000476637D01*
X0000297301Y0000476960D01*
X0000296051Y0000477408D01*
X0000294850Y0000477975D01*
X0000293711Y0000478658D01*
X0000292644Y0000479449D01*
X0000291660Y0000480341D01*
X0000290768Y0000481325D01*
X0000289977Y0000482392D01*
X0000289294Y0000483531D01*
X0000288726Y0000484732D01*
X0000288279Y0000485982D01*
X0000287956Y0000487271D01*
X0000287762Y0000488584D01*
X0000287696Y0000489911D01*
X0000287696Y0000533710D01*
X0000287762Y0000535037D01*
X0000287956Y0000536350D01*
X0000288279Y0000537639D01*
X0000288726Y0000538889D01*
X0000289294Y0000540090D01*
X0000289977Y0000541229D01*
X0000290768Y0000542296D01*
X0000291660Y0000543280D01*
X0000292644Y0000544172D01*
X0000293711Y0000544963D01*
X0000294850Y0000545646D01*
X0000296051Y0000546213D01*
X0000297301Y0000546661D01*
X0000298590Y0000546984D01*
X0000299903Y0000547178D01*
X0000301230Y0000547244D01*
X0000328297Y0000547244D01*
X0000329623Y0000547178D01*
X0000329623Y0000547178D01*
G37*
D15*
X0000314763Y0000511811D03*
D13*
G36*
X0000403442Y0000547178D02*
X0000404756Y0000546984D01*
X0000406044Y0000546661D01*
X0000407295Y0000546213D01*
X0000408495Y0000545646D01*
X0000409634Y0000544963D01*
X0000410701Y0000544172D01*
X0000411685Y0000543280D01*
X0000412577Y0000542296D01*
X0000413368Y0000541229D01*
X0000414051Y0000540090D01*
X0000414619Y0000538889D01*
X0000415066Y0000537639D01*
X0000415389Y0000536350D01*
X0000415584Y0000535037D01*
X0000415649Y0000533710D01*
X0000415649Y0000489911D01*
X0000415584Y0000488584D01*
X0000415389Y0000487271D01*
X0000415066Y0000485982D01*
X0000414619Y0000484732D01*
X0000414051Y0000483531D01*
X0000413368Y0000482392D01*
X0000412577Y0000481325D01*
X0000411685Y0000480341D01*
X0000410701Y0000479449D01*
X0000409634Y0000478658D01*
X0000408495Y0000477975D01*
X0000407295Y0000477408D01*
X0000406044Y0000476960D01*
X0000404756Y0000476637D01*
X0000403442Y0000476443D01*
X0000402116Y0000476377D01*
X0000375049Y0000476377D01*
X0000373722Y0000476443D01*
X0000372408Y0000476637D01*
X0000371120Y0000476960D01*
X0000369870Y0000477408D01*
X0000368669Y0000477975D01*
X0000367530Y0000478658D01*
X0000366463Y0000479449D01*
X0000365479Y0000480341D01*
X0000364587Y0000481325D01*
X0000363796Y0000482392D01*
X0000363113Y0000483531D01*
X0000362545Y0000484732D01*
X0000362098Y0000485982D01*
X0000361775Y0000487271D01*
X0000361580Y0000488584D01*
X0000361515Y0000489911D01*
X0000361515Y0000533710D01*
X0000361580Y0000535037D01*
X0000361775Y0000536350D01*
X0000362098Y0000537639D01*
X0000362545Y0000538889D01*
X0000363113Y0000540090D01*
X0000363796Y0000541229D01*
X0000364587Y0000542296D01*
X0000365479Y0000543280D01*
X0000366463Y0000544172D01*
X0000367530Y0000544963D01*
X0000368669Y0000545646D01*
X0000369870Y0000546213D01*
X0000371120Y0000546661D01*
X0000372408Y0000546984D01*
X0000373722Y0000547178D01*
X0000375049Y0000547244D01*
X0000402116Y0000547244D01*
X0000403442Y0000547178D01*
X0000403442Y0000547178D01*
G37*
D15*
X0000388582Y0000511811D03*
D13*
G36*
X0000535037Y0000383793D02*
X0000536350Y0000383598D01*
X0000537639Y0000383275D01*
X0000538889Y0000382828D01*
X0000540090Y0000382260D01*
X0000541229Y0000381577D01*
X0000542296Y0000380786D01*
X0000543280Y0000379894D01*
X0000544172Y0000378910D01*
X0000544963Y0000377843D01*
X0000545646Y0000376704D01*
X0000546213Y0000375503D01*
X0000546661Y0000374253D01*
X0000546984Y0000372965D01*
X0000547178Y0000371651D01*
X0000547244Y0000370324D01*
X0000547244Y0000343257D01*
X0000547178Y0000341931D01*
X0000546984Y0000340617D01*
X0000546661Y0000339329D01*
X0000546213Y0000338078D01*
X0000545646Y0000336878D01*
X0000544963Y0000335739D01*
X0000544172Y0000334672D01*
X0000543280Y0000333688D01*
X0000542296Y0000332796D01*
X0000541229Y0000332005D01*
X0000540090Y0000331322D01*
X0000538889Y0000330754D01*
X0000537639Y0000330307D01*
X0000536350Y0000329984D01*
X0000535037Y0000329789D01*
X0000533710Y0000329724D01*
X0000489911Y0000329724D01*
X0000488584Y0000329789D01*
X0000487271Y0000329984D01*
X0000485982Y0000330307D01*
X0000484732Y0000330754D01*
X0000483531Y0000331322D01*
X0000482392Y0000332005D01*
X0000481325Y0000332796D01*
X0000480341Y0000333688D01*
X0000479449Y0000334672D01*
X0000478658Y0000335739D01*
X0000477975Y0000336878D01*
X0000477408Y0000338078D01*
X0000476960Y0000339329D01*
X0000476637Y0000340617D01*
X0000476443Y0000341931D01*
X0000476377Y0000343257D01*
X0000476377Y0000370324D01*
X0000476443Y0000371651D01*
X0000476637Y0000372965D01*
X0000476960Y0000374253D01*
X0000477408Y0000375503D01*
X0000477975Y0000376704D01*
X0000478658Y0000377843D01*
X0000479449Y0000378910D01*
X0000480341Y0000379894D01*
X0000481325Y0000380786D01*
X0000482392Y0000381577D01*
X0000483531Y0000382260D01*
X0000484732Y0000382828D01*
X0000485982Y0000383275D01*
X0000487271Y0000383598D01*
X0000488584Y0000383793D01*
X0000489911Y0000383858D01*
X0000533710Y0000383858D01*
X0000535037Y0000383793D01*
X0000535037Y0000383793D01*
G37*
D15*
X0000511811Y0000356791D03*
D13*
G36*
X0000535037Y0000457612D02*
X0000536350Y0000457417D01*
X0000537639Y0000457094D01*
X0000538889Y0000456646D01*
X0000540090Y0000456079D01*
X0000541229Y0000455396D01*
X0000542296Y0000454605D01*
X0000543280Y0000453713D01*
X0000544172Y0000452729D01*
X0000544963Y0000451662D01*
X0000545646Y0000450523D01*
X0000546213Y0000449322D01*
X0000546661Y0000448072D01*
X0000546984Y0000446783D01*
X0000547178Y0000445470D01*
X0000547244Y0000444143D01*
X0000547244Y0000417076D01*
X0000547178Y0000415750D01*
X0000546984Y0000414436D01*
X0000546661Y0000413148D01*
X0000546213Y0000411897D01*
X0000545646Y0000410697D01*
X0000544963Y0000409557D01*
X0000544172Y0000408491D01*
X0000543280Y0000407507D01*
X0000542296Y0000406615D01*
X0000541229Y0000405824D01*
X0000540090Y0000405141D01*
X0000538889Y0000404573D01*
X0000537639Y0000404126D01*
X0000536350Y0000403803D01*
X0000535037Y0000403608D01*
X0000533710Y0000403543D01*
X0000489911Y0000403543D01*
X0000488584Y0000403608D01*
X0000487271Y0000403803D01*
X0000485982Y0000404126D01*
X0000484732Y0000404573D01*
X0000483531Y0000405141D01*
X0000482392Y0000405824D01*
X0000481325Y0000406615D01*
X0000480341Y0000407507D01*
X0000479449Y0000408491D01*
X0000478658Y0000409557D01*
X0000477975Y0000410697D01*
X0000477408Y0000411897D01*
X0000476960Y0000413148D01*
X0000476637Y0000414436D01*
X0000476443Y0000415750D01*
X0000476377Y0000417076D01*
X0000476377Y0000444143D01*
X0000476443Y0000445470D01*
X0000476637Y0000446783D01*
X0000476960Y0000448072D01*
X0000477408Y0000449322D01*
X0000477975Y0000450523D01*
X0000478658Y0000451662D01*
X0000479449Y0000452729D01*
X0000480341Y0000453713D01*
X0000481325Y0000454605D01*
X0000482392Y0000455396D01*
X0000483531Y0000456079D01*
X0000484732Y0000456646D01*
X0000485982Y0000457094D01*
X0000487271Y0000457417D01*
X0000488584Y0000457612D01*
X0000489911Y0000457677D01*
X0000533710Y0000457677D01*
X0000535037Y0000457612D01*
X0000535037Y0000457612D01*
G37*
D15*
X0000511811Y0000430610D03*
D13*
G36*
X0000334741Y0000310958D02*
X0000336055Y0000310763D01*
X0000337343Y0000310440D01*
X0000338594Y0000309993D01*
X0000339794Y0000309425D01*
X0000340934Y0000308742D01*
X0000342000Y0000307951D01*
X0000342984Y0000307059D01*
X0000343876Y0000306075D01*
X0000344668Y0000305008D01*
X0000345350Y0000303869D01*
X0000345918Y0000302669D01*
X0000346366Y0000301418D01*
X0000346688Y0000300130D01*
X0000346883Y0000298816D01*
X0000346948Y0000297490D01*
X0000346948Y0000253690D01*
X0000346883Y0000252364D01*
X0000346688Y0000251050D01*
X0000346366Y0000249762D01*
X0000345918Y0000248511D01*
X0000345350Y0000247311D01*
X0000344668Y0000246172D01*
X0000343876Y0000245105D01*
X0000342984Y0000244121D01*
X0000342000Y0000243229D01*
X0000340934Y0000242438D01*
X0000339794Y0000241755D01*
X0000338594Y0000241187D01*
X0000337343Y0000240740D01*
X0000336055Y0000240417D01*
X0000334741Y0000240222D01*
X0000333415Y0000240157D01*
X0000306348Y0000240157D01*
X0000305021Y0000240222D01*
X0000303708Y0000240417D01*
X0000302419Y0000240740D01*
X0000301169Y0000241187D01*
X0000299968Y0000241755D01*
X0000298829Y0000242438D01*
X0000297762Y0000243229D01*
X0000296778Y0000244121D01*
X0000295886Y0000245105D01*
X0000295095Y0000246172D01*
X0000294412Y0000247311D01*
X0000293845Y0000248511D01*
X0000293397Y0000249762D01*
X0000293074Y0000251050D01*
X0000292880Y0000252364D01*
X0000292814Y0000253690D01*
X0000292814Y0000297490D01*
X0000292880Y0000298816D01*
X0000293074Y0000300130D01*
X0000293397Y0000301418D01*
X0000293845Y0000302669D01*
X0000294412Y0000303869D01*
X0000295095Y0000305008D01*
X0000295886Y0000306075D01*
X0000296778Y0000307059D01*
X0000297762Y0000307951D01*
X0000298829Y0000308742D01*
X0000299968Y0000309425D01*
X0000301169Y0000309993D01*
X0000302419Y0000310440D01*
X0000303708Y0000310763D01*
X0000305021Y0000310958D01*
X0000306348Y0000311023D01*
X0000333415Y0000311023D01*
X0000334741Y0000310958D01*
X0000334741Y0000310958D01*
G37*
D15*
X0000319881Y0000275590D03*
D13*
G36*
X0000408560Y0000310958D02*
X0000409874Y0000310763D01*
X0000411162Y0000310440D01*
X0000412413Y0000309993D01*
X0000413613Y0000309425D01*
X0000414753Y0000308742D01*
X0000415819Y0000307951D01*
X0000416803Y0000307059D01*
X0000417695Y0000306075D01*
X0000418486Y0000305008D01*
X0000419169Y0000303869D01*
X0000419737Y0000302669D01*
X0000420184Y0000301418D01*
X0000420507Y0000300130D01*
X0000420702Y0000298816D01*
X0000420767Y0000297490D01*
X0000420767Y0000253690D01*
X0000420702Y0000252364D01*
X0000420507Y0000251050D01*
X0000420184Y0000249762D01*
X0000419737Y0000248511D01*
X0000419169Y0000247311D01*
X0000418486Y0000246172D01*
X0000417695Y0000245105D01*
X0000416803Y0000244121D01*
X0000415819Y0000243229D01*
X0000414753Y0000242438D01*
X0000413613Y0000241755D01*
X0000412413Y0000241187D01*
X0000411162Y0000240740D01*
X0000409874Y0000240417D01*
X0000408560Y0000240222D01*
X0000407234Y0000240157D01*
X0000380167Y0000240157D01*
X0000378840Y0000240222D01*
X0000377527Y0000240417D01*
X0000376238Y0000240740D01*
X0000374988Y0000241187D01*
X0000373787Y0000241755D01*
X0000372648Y0000242438D01*
X0000371581Y0000243229D01*
X0000370597Y0000244121D01*
X0000369705Y0000245105D01*
X0000368914Y0000246172D01*
X0000368231Y0000247311D01*
X0000367664Y0000248511D01*
X0000367216Y0000249762D01*
X0000366893Y0000251050D01*
X0000366699Y0000252364D01*
X0000366633Y0000253690D01*
X0000366633Y0000297490D01*
X0000366699Y0000298816D01*
X0000366893Y0000300130D01*
X0000367216Y0000301418D01*
X0000367664Y0000302669D01*
X0000368231Y0000303869D01*
X0000368914Y0000305008D01*
X0000369705Y0000306075D01*
X0000370597Y0000307059D01*
X0000371581Y0000307951D01*
X0000372648Y0000308742D01*
X0000373787Y0000309425D01*
X0000374988Y0000309993D01*
X0000376238Y0000310440D01*
X0000377527Y0000310763D01*
X0000378840Y0000310958D01*
X0000380167Y0000311023D01*
X0000407234Y0000311023D01*
X0000408560Y0000310958D01*
X0000408560Y0000310958D01*
G37*
D15*
X0000393700Y0000275590D03*
D16*
X0000314960Y0000118110D03*
D17*
X0000414960Y0000118110D03*
X0000514960Y0000118110D03*
X0000614960Y0000118110D03*
X0000714960Y0000118110D03*
X0000814960Y0000118110D03*
X0000914960Y0000118110D03*
X0001014960Y0000118110D03*
X0001114960Y0000118110D03*
D18*
X0000314960Y0000629921D03*
X0000393700Y0000667322D03*
X0000393700Y0000592519D03*
X0000393700Y0000354330D03*
X0000393700Y0000429133D03*
X0000314960Y0000391732D03*
G04 next file*
G04 #@! TF.GenerationSoftware,KiCad,Pcbnew,(5.0.0)*
G04 #@! TF.CreationDate,2019-07-31T00:08:18+03:00*
G04 #@! TF.ProjectId,ST7789_V_FCP_Board,5354373738395F565F4643505F426F61,rev?*
G04 #@! TF.SameCoordinates,Original*
G04 #@! TF.FileFunction,Soldermask,Top*
G04 #@! TF.FilePolarity,Negative*
G04 Gerber Fmt 4.6, Leading zero omitted, Abs format (unit mm)*
G04 Created by KiCad (PCBNEW (5.0.0)) date 07/31/19 00:08:18*
G01*
G04 APERTURE LIST*
G04 APERTURE END LIST*
D29*
G04 #@! TO.C,IC2*
X-0002598425Y0004015748D02*
X0002292578Y0001437893D03*
X0002266988Y0001437893D03*
X0002241397Y0001437893D03*
X0002215807Y0001437893D03*
X0002190216Y0001437893D03*
X0002164625Y0001437893D03*
X0002139035Y0001437893D03*
X0002113444Y0001437893D03*
X0002087854Y0001437893D03*
X0002062263Y0001437893D03*
X0002062263Y0001209547D03*
X0002087854Y0001209547D03*
X0002113444Y0001209547D03*
X0002139035Y0001209547D03*
X0002164625Y0001209547D03*
X0002190216Y0001209547D03*
X0002215807Y0001209547D03*
X0002241397Y0001209547D03*
X0002266988Y0001209547D03*
X0002292578Y0001209547D03*
G04 #@! TD*
D30*
G04 #@! TO.C,U4*
X0002137604Y0001910017D03*
X0002161226Y0001910017D03*
X0002184848Y0001910017D03*
X0002208470Y0001910017D03*
X0002232092Y0001910017D03*
X0002255714Y0001910017D03*
X0002279336Y0001910017D03*
X0002149415Y0002053718D03*
X0002173037Y0002053718D03*
X0002196659Y0002053718D03*
X0002220281Y0002053718D03*
X0002243903Y0002053718D03*
X0002267525Y0002053718D03*
G04 #@! TD*
D31*
G04 #@! TO.C,TP4*
X0002258110Y0001083267D03*
G04 #@! TD*
G04 #@! TO.C,TP31*
X0001884094Y0001575393D03*
G04 #@! TD*
G04 #@! TO.C,TP29*
X0002080944Y0001575393D03*
G04 #@! TD*
G04 #@! TO.C,TP32*
X0001785669Y0001575393D03*
G04 #@! TD*
G04 #@! TO.C,TP33*
X0001765984Y0001083267D03*
G04 #@! TD*
G04 #@! TO.C,TP1*
X0002651811Y0001083267D03*
G04 #@! TD*
G04 #@! TO.C,TP2*
X0002459409Y0001083267D03*
G04 #@! TD*
G04 #@! TO.C,TP10*
X0002592755Y0001575393D03*
G04 #@! TD*
G04 #@! TO.C,TP5*
X0002159685Y0001083267D03*
G04 #@! TD*
G04 #@! TO.C,TP6*
X0002061259Y0001083267D03*
G04 #@! TD*
G04 #@! TO.C,TP7*
X0001962834Y0001087342D03*
G04 #@! TD*
G04 #@! TO.C,TP8*
X0001864409Y0001083267D03*
G04 #@! TD*
G04 #@! TO.C,TP28*
X0002179370Y0001575393D03*
G04 #@! TD*
G04 #@! TO.C,TP27*
X0002277795Y0001575393D03*
G04 #@! TD*
G04 #@! TO.C,TP3*
X0002356535Y0001087342D03*
G04 #@! TD*
G04 #@! TO.C,TP30*
X0001982519Y0001575393D03*
G04 #@! TD*
G04 #@! TO.C,TP17*
X0002528313Y0001772065D03*
G04 #@! TD*
G04 #@! TO.C,TP25*
X0002474645Y0001575393D03*
G04 #@! TD*
G04 #@! TO.C,TP23*
X0002454258Y0002174191D03*
G04 #@! TD*
G04 #@! TO.C,TP22*
X0002355832Y0002174191D03*
G04 #@! TD*
G04 #@! TO.C,TP21*
X0002257407Y0002174191D03*
G04 #@! TD*
G04 #@! TO.C,TP20*
X0002158982Y0002174191D03*
G04 #@! TD*
G04 #@! TO.C,TP9*
X0002559803Y0001083267D03*
G04 #@! TD*
G04 #@! TO.C,TP26*
X0002376220Y0001575393D03*
G04 #@! TD*
G04 #@! TO.C,TP16*
X0002440084Y0001764998D03*
G04 #@! TD*
G04 #@! TO.C,TP15*
X0002331462Y0001772065D03*
G04 #@! TD*
G04 #@! TO.C,TP14*
X0002233037Y0001772065D03*
G04 #@! TD*
G04 #@! TO.C,TP13*
X0002134612Y0001772065D03*
G04 #@! TD*
G04 #@! TO.C,TP12*
X0002036187Y0001772065D03*
G04 #@! TD*
G04 #@! TO.C,TP11*
X0001937761Y0001772065D03*
G04 #@! TD*
G04 #@! TO.C,TP19*
X0002060557Y0002174191D03*
G04 #@! TD*
G04 #@! TO.C,TP24*
X0002691181Y0001575393D03*
G04 #@! TD*
G04 #@! TO.C,TP18*
X0001962132Y0002174191D03*
G04 #@! TD*
D30*
G04 #@! TO.C,U1*
X0002215393Y0000663070D03*
X0002239015Y0000663070D03*
X0002262637Y0000663070D03*
X0002286259Y0000663070D03*
X0002309881Y0000663070D03*
X0002333503Y0000663070D03*
X0002203582Y0000806771D03*
X0002227204Y0000806771D03*
X0002250826Y0000806771D03*
X0002274448Y0000806771D03*
X0002298070Y0000806771D03*
X0002321692Y0000806771D03*
X0002345314Y0000806771D03*
G04 #@! TD*
D32*
G04 #@! TO.C,C6*
G36*
X0002520042Y0000326904D02*
X0002521329Y0000326713D01*
X0002522592Y0000326397D01*
X0002523818Y0000325958D01*
X0002524995Y0000325402D01*
X0002526112Y0000324732D01*
X0002527157Y0000323957D01*
X0002528122Y0000323082D01*
X0002528996Y0000322118D01*
X0002529772Y0000321072D01*
X0002530441Y0000319956D01*
X0002530998Y0000318779D01*
X0002531436Y0000317553D01*
X0002531752Y0000316290D01*
X0002531943Y0000315002D01*
X0002532007Y0000313702D01*
X0002532007Y0000279210D01*
X0002531943Y0000277910D01*
X0002531752Y0000276622D01*
X0002531436Y0000275359D01*
X0002530998Y0000274134D01*
X0002530441Y0000272957D01*
X0002529772Y0000271840D01*
X0002528996Y0000270794D01*
X0002528122Y0000269830D01*
X0002527157Y0000268956D01*
X0002526112Y0000268180D01*
X0002524995Y0000267511D01*
X0002523818Y0000266954D01*
X0002522592Y0000266516D01*
X0002521329Y0000266199D01*
X0002520042Y0000266008D01*
X0002518741Y0000265944D01*
X0002474407Y0000265944D01*
X0002473107Y0000266008D01*
X0002471819Y0000266199D01*
X0002470556Y0000266516D01*
X0002469331Y0000266954D01*
X0002468154Y0000267511D01*
X0002467037Y0000268180D01*
X0002465991Y0000268956D01*
X0002465027Y0000269830D01*
X0002464152Y0000270794D01*
X0002463377Y0000271840D01*
X0002462708Y0000272957D01*
X0002462151Y0000274134D01*
X0002461712Y0000275359D01*
X0002461396Y0000276622D01*
X0002461205Y0000277910D01*
X0002461141Y0000279210D01*
X0002461141Y0000313702D01*
X0002461205Y0000315002D01*
X0002461396Y0000316290D01*
X0002461712Y0000317553D01*
X0002462151Y0000318779D01*
X0002462708Y0000319956D01*
X0002463377Y0000321072D01*
X0002464152Y0000322118D01*
X0002465027Y0000323082D01*
X0002465991Y0000323957D01*
X0002467037Y0000324732D01*
X0002468154Y0000325402D01*
X0002469331Y0000325958D01*
X0002470556Y0000326397D01*
X0002471819Y0000326713D01*
X0002473107Y0000326904D01*
X0002474407Y0000326968D01*
X0002518741Y0000326968D01*
X0002520042Y0000326904D01*
X0002520042Y0000326904D01*
G37*
D33*
X0002496574Y0000296456D03*
D32*
G36*
X0002520042Y0000246195D02*
X0002521329Y0000246004D01*
X0002522592Y0000245688D01*
X0002523818Y0000245250D01*
X0002524995Y0000244693D01*
X0002526112Y0000244024D01*
X0002527157Y0000243248D01*
X0002528122Y0000242374D01*
X0002528996Y0000241409D01*
X0002529772Y0000240364D01*
X0002530441Y0000239247D01*
X0002530998Y0000238070D01*
X0002531436Y0000236844D01*
X0002531752Y0000235581D01*
X0002531943Y0000234294D01*
X0002532007Y0000232993D01*
X0002532007Y0000198502D01*
X0002531943Y0000197201D01*
X0002531752Y0000195914D01*
X0002531436Y0000194651D01*
X0002530998Y0000193425D01*
X0002530441Y0000192248D01*
X0002529772Y0000191132D01*
X0002528996Y0000190086D01*
X0002528122Y0000189121D01*
X0002527157Y0000188247D01*
X0002526112Y0000187471D01*
X0002524995Y0000186802D01*
X0002523818Y0000186246D01*
X0002522592Y0000185807D01*
X0002521329Y0000185491D01*
X0002520042Y0000185300D01*
X0002518741Y0000185236D01*
X0002474407Y0000185236D01*
X0002473107Y0000185300D01*
X0002471819Y0000185491D01*
X0002470556Y0000185807D01*
X0002469331Y0000186246D01*
X0002468154Y0000186802D01*
X0002467037Y0000187471D01*
X0002465991Y0000188247D01*
X0002465027Y0000189121D01*
X0002464152Y0000190086D01*
X0002463377Y0000191132D01*
X0002462708Y0000192248D01*
X0002462151Y0000193425D01*
X0002461712Y0000194651D01*
X0002461396Y0000195914D01*
X0002461205Y0000197201D01*
X0002461141Y0000198502D01*
X0002461141Y0000232993D01*
X0002461205Y0000234294D01*
X0002461396Y0000235581D01*
X0002461712Y0000236844D01*
X0002462151Y0000238070D01*
X0002462708Y0000239247D01*
X0002463377Y0000240364D01*
X0002464152Y0000241409D01*
X0002465027Y0000242374D01*
X0002465991Y0000243248D01*
X0002467037Y0000244024D01*
X0002468154Y0000244693D01*
X0002469331Y0000245250D01*
X0002470556Y0000245688D01*
X0002471819Y0000246004D01*
X0002473107Y0000246195D01*
X0002474407Y0000246259D01*
X0002518741Y0000246259D01*
X0002520042Y0000246195D01*
X0002520042Y0000246195D01*
G37*
D33*
X0002496574Y0000215748D03*
G04 #@! TD*
D32*
G04 #@! TO.C,C5*
G36*
X0002480042Y0000541195D02*
X0002481329Y0000541004D01*
X0002482592Y0000540688D01*
X0002483818Y0000540250D01*
X0002484995Y0000539693D01*
X0002486112Y0000539024D01*
X0002487157Y0000538248D01*
X0002488122Y0000537374D01*
X0002488996Y0000536409D01*
X0002489772Y0000535364D01*
X0002490441Y0000534247D01*
X0002490998Y0000533070D01*
X0002491436Y0000531844D01*
X0002491752Y0000530581D01*
X0002491943Y0000529294D01*
X0002492007Y0000527993D01*
X0002492007Y0000493502D01*
X0002491943Y0000492201D01*
X0002491752Y0000490914D01*
X0002491436Y0000489651D01*
X0002490998Y0000488425D01*
X0002490441Y0000487248D01*
X0002489772Y0000486131D01*
X0002488996Y0000485086D01*
X0002488122Y0000484121D01*
X0002487157Y0000483247D01*
X0002486112Y0000482471D01*
X0002484995Y0000481802D01*
X0002483818Y0000481245D01*
X0002482592Y0000480807D01*
X0002481329Y0000480491D01*
X0002480042Y0000480300D01*
X0002478741Y0000480236D01*
X0002434407Y0000480236D01*
X0002433107Y0000480300D01*
X0002431819Y0000480491D01*
X0002430556Y0000480807D01*
X0002429331Y0000481245D01*
X0002428154Y0000481802D01*
X0002427037Y0000482471D01*
X0002425991Y0000483247D01*
X0002425027Y0000484121D01*
X0002424152Y0000485086D01*
X0002423377Y0000486131D01*
X0002422708Y0000487248D01*
X0002422151Y0000488425D01*
X0002421712Y0000489651D01*
X0002421396Y0000490914D01*
X0002421205Y0000492201D01*
X0002421141Y0000493502D01*
X0002421141Y0000527993D01*
X0002421205Y0000529294D01*
X0002421396Y0000530581D01*
X0002421712Y0000531844D01*
X0002422151Y0000533070D01*
X0002422708Y0000534247D01*
X0002423377Y0000535364D01*
X0002424152Y0000536409D01*
X0002425027Y0000537374D01*
X0002425991Y0000538248D01*
X0002427037Y0000539024D01*
X0002428154Y0000539693D01*
X0002429331Y0000540250D01*
X0002430556Y0000540688D01*
X0002431819Y0000541004D01*
X0002433107Y0000541195D01*
X0002434407Y0000541259D01*
X0002478741Y0000541259D01*
X0002480042Y0000541195D01*
X0002480042Y0000541195D01*
G37*
D33*
X0002456574Y0000510747D03*
D32*
G36*
X0002480042Y0000460487D02*
X0002481329Y0000460296D01*
X0002482592Y0000459979D01*
X0002483818Y0000459541D01*
X0002484995Y0000458984D01*
X0002486112Y0000458315D01*
X0002487157Y0000457539D01*
X0002488122Y0000456665D01*
X0002488996Y0000455701D01*
X0002489772Y0000454655D01*
X0002490441Y0000453538D01*
X0002490998Y0000452361D01*
X0002491436Y0000451136D01*
X0002491752Y0000449873D01*
X0002491943Y0000448585D01*
X0002492007Y0000447285D01*
X0002492007Y0000412793D01*
X0002491943Y0000411493D01*
X0002491752Y0000410205D01*
X0002491436Y0000408942D01*
X0002490998Y0000407716D01*
X0002490441Y0000406539D01*
X0002489772Y0000405423D01*
X0002488996Y0000404377D01*
X0002488122Y0000403413D01*
X0002487157Y0000402538D01*
X0002486112Y0000401763D01*
X0002484995Y0000401093D01*
X0002483818Y0000400537D01*
X0002482592Y0000400098D01*
X0002481329Y0000399782D01*
X0002480042Y0000399591D01*
X0002478741Y0000399527D01*
X0002434407Y0000399527D01*
X0002433107Y0000399591D01*
X0002431819Y0000399782D01*
X0002430556Y0000400098D01*
X0002429331Y0000400537D01*
X0002428154Y0000401093D01*
X0002427037Y0000401763D01*
X0002425991Y0000402538D01*
X0002425027Y0000403413D01*
X0002424152Y0000404377D01*
X0002423377Y0000405423D01*
X0002422708Y0000406539D01*
X0002422151Y0000407716D01*
X0002421712Y0000408942D01*
X0002421396Y0000410205D01*
X0002421205Y0000411493D01*
X0002421141Y0000412793D01*
X0002421141Y0000447285D01*
X0002421205Y0000448585D01*
X0002421396Y0000449873D01*
X0002421712Y0000451136D01*
X0002422151Y0000452361D01*
X0002422708Y0000453538D01*
X0002423377Y0000454655D01*
X0002424152Y0000455701D01*
X0002425027Y0000456665D01*
X0002425991Y0000457539D01*
X0002427037Y0000458315D01*
X0002428154Y0000458984D01*
X0002429331Y0000459541D01*
X0002430556Y0000459979D01*
X0002431819Y0000460296D01*
X0002433107Y0000460487D01*
X0002434407Y0000460551D01*
X0002478741Y0000460551D01*
X0002480042Y0000460487D01*
X0002480042Y0000460487D01*
G37*
D33*
X0002456574Y0000430039D03*
G04 #@! TD*
D32*
G04 #@! TO.C,R2*
G36*
X0002125042Y0000641195D02*
X0002126329Y0000641004D01*
X0002127592Y0000640688D01*
X0002128818Y0000640250D01*
X0002129995Y0000639693D01*
X0002131112Y0000639024D01*
X0002132157Y0000638248D01*
X0002133122Y0000637374D01*
X0002133996Y0000636409D01*
X0002134772Y0000635364D01*
X0002135441Y0000634247D01*
X0002135998Y0000633070D01*
X0002136436Y0000631844D01*
X0002136752Y0000630581D01*
X0002136943Y0000629294D01*
X0002137007Y0000627993D01*
X0002137007Y0000593502D01*
X0002136943Y0000592201D01*
X0002136752Y0000590914D01*
X0002136436Y0000589651D01*
X0002135998Y0000588425D01*
X0002135441Y0000587248D01*
X0002134772Y0000586132D01*
X0002133996Y0000585086D01*
X0002133122Y0000584121D01*
X0002132157Y0000583247D01*
X0002131112Y0000582471D01*
X0002129995Y0000581802D01*
X0002128818Y0000581246D01*
X0002127592Y0000580807D01*
X0002126329Y0000580491D01*
X0002125042Y0000580300D01*
X0002123741Y0000580236D01*
X0002079407Y0000580236D01*
X0002078107Y0000580300D01*
X0002076819Y0000580491D01*
X0002075556Y0000580807D01*
X0002074331Y0000581246D01*
X0002073154Y0000581802D01*
X0002072037Y0000582471D01*
X0002070991Y0000583247D01*
X0002070027Y0000584121D01*
X0002069152Y0000585086D01*
X0002068377Y0000586132D01*
X0002067708Y0000587248D01*
X0002067151Y0000588425D01*
X0002066712Y0000589651D01*
X0002066396Y0000590914D01*
X0002066205Y0000592201D01*
X0002066141Y0000593502D01*
X0002066141Y0000627993D01*
X0002066205Y0000629294D01*
X0002066396Y0000630581D01*
X0002066712Y0000631844D01*
X0002067151Y0000633070D01*
X0002067708Y0000634247D01*
X0002068377Y0000635364D01*
X0002069152Y0000636409D01*
X0002070027Y0000637374D01*
X0002070991Y0000638248D01*
X0002072037Y0000639024D01*
X0002073154Y0000639693D01*
X0002074331Y0000640250D01*
X0002075556Y0000640688D01*
X0002076819Y0000641004D01*
X0002078107Y0000641195D01*
X0002079407Y0000641259D01*
X0002123741Y0000641259D01*
X0002125042Y0000641195D01*
X0002125042Y0000641195D01*
G37*
D33*
X0002101574Y0000610748D03*
D32*
G36*
X0002125042Y0000560487D02*
X0002126329Y0000560296D01*
X0002127592Y0000559979D01*
X0002128818Y0000559541D01*
X0002129995Y0000558984D01*
X0002131112Y0000558315D01*
X0002132157Y0000557539D01*
X0002133122Y0000556665D01*
X0002133996Y0000555701D01*
X0002134772Y0000554655D01*
X0002135441Y0000553538D01*
X0002135998Y0000552361D01*
X0002136436Y0000551136D01*
X0002136752Y0000549873D01*
X0002136943Y0000548585D01*
X0002137007Y0000547285D01*
X0002137007Y0000512793D01*
X0002136943Y0000511493D01*
X0002136752Y0000510205D01*
X0002136436Y0000508942D01*
X0002135998Y0000507716D01*
X0002135441Y0000506540D01*
X0002134772Y0000505423D01*
X0002133996Y0000504377D01*
X0002133122Y0000503413D01*
X0002132157Y0000502538D01*
X0002131112Y0000501763D01*
X0002129995Y0000501093D01*
X0002128818Y0000500537D01*
X0002127592Y0000500098D01*
X0002126329Y0000499782D01*
X0002125042Y0000499591D01*
X0002123741Y0000499527D01*
X0002079407Y0000499527D01*
X0002078107Y0000499591D01*
X0002076819Y0000499782D01*
X0002075556Y0000500098D01*
X0002074331Y0000500537D01*
X0002073154Y0000501093D01*
X0002072037Y0000501763D01*
X0002070991Y0000502538D01*
X0002070027Y0000503413D01*
X0002069152Y0000504377D01*
X0002068377Y0000505423D01*
X0002067708Y0000506540D01*
X0002067151Y0000507716D01*
X0002066712Y0000508942D01*
X0002066396Y0000510205D01*
X0002066205Y0000511493D01*
X0002066141Y0000512793D01*
X0002066141Y0000547285D01*
X0002066205Y0000548585D01*
X0002066396Y0000549873D01*
X0002066712Y0000551136D01*
X0002067151Y0000552361D01*
X0002067708Y0000553538D01*
X0002068377Y0000554655D01*
X0002069152Y0000555701D01*
X0002070027Y0000556665D01*
X0002070991Y0000557539D01*
X0002072037Y0000558315D01*
X0002073154Y0000558984D01*
X0002074331Y0000559541D01*
X0002075556Y0000559979D01*
X0002076819Y0000560296D01*
X0002078107Y0000560487D01*
X0002079407Y0000560551D01*
X0002123741Y0000560551D01*
X0002125042Y0000560487D01*
X0002125042Y0000560487D01*
G37*
D33*
X0002101574Y0000530039D03*
G04 #@! TD*
D29*
G04 #@! TO.C,IC1*
X0002398622Y0000507874D03*
X0002373031Y0000507874D03*
X0002347440Y0000507874D03*
X0002321850Y0000507874D03*
X0002296259Y0000507874D03*
X0002270669Y0000507874D03*
X0002245078Y0000507874D03*
X0002219488Y0000507874D03*
X0002193897Y0000507874D03*
X0002168307Y0000507874D03*
X0002168307Y0000279527D03*
X0002193897Y0000279527D03*
X0002219488Y0000279527D03*
X0002245078Y0000279527D03*
X0002270669Y0000279527D03*
X0002296259Y0000279527D03*
X0002321850Y0000279527D03*
X0002347440Y0000279527D03*
X0002373031Y0000279527D03*
X0002398622Y0000279527D03*
G04 #@! TD*
D32*
G04 #@! TO.C,R1*
G36*
X0002523467Y0000808006D02*
X0002524755Y0000807815D01*
X0002526017Y0000807499D01*
X0002527243Y0000807061D01*
X0002528420Y0000806504D01*
X0002529537Y0000805835D01*
X0002530582Y0000805059D01*
X0002531547Y0000804185D01*
X0002532421Y0000803220D01*
X0002533197Y0000802175D01*
X0002533866Y0000801058D01*
X0002534423Y0000799881D01*
X0002534861Y0000798655D01*
X0002535178Y0000797392D01*
X0002535369Y0000796105D01*
X0002535433Y0000794804D01*
X0002535433Y0000760313D01*
X0002535369Y0000759012D01*
X0002535178Y0000757725D01*
X0002534861Y0000756462D01*
X0002534423Y0000755236D01*
X0002533866Y0000754059D01*
X0002533197Y0000752943D01*
X0002532421Y0000751897D01*
X0002531547Y0000750932D01*
X0002530582Y0000750058D01*
X0002529537Y0000749282D01*
X0002528420Y0000748613D01*
X0002527243Y0000748057D01*
X0002526017Y0000747618D01*
X0002524755Y0000747302D01*
X0002523467Y0000747111D01*
X0002522167Y0000747047D01*
X0002477832Y0000747047D01*
X0002476532Y0000747111D01*
X0002475244Y0000747302D01*
X0002473982Y0000747618D01*
X0002472756Y0000748057D01*
X0002471579Y0000748613D01*
X0002470462Y0000749282D01*
X0002469417Y0000750058D01*
X0002468452Y0000750932D01*
X0002467578Y0000751897D01*
X0002466802Y0000752943D01*
X0002466133Y0000754059D01*
X0002465576Y0000755236D01*
X0002465138Y0000756462D01*
X0002464821Y0000757725D01*
X0002464630Y0000759012D01*
X0002464566Y0000760313D01*
X0002464566Y0000794804D01*
X0002464630Y0000796105D01*
X0002464821Y0000797392D01*
X0002465138Y0000798655D01*
X0002465576Y0000799881D01*
X0002466133Y0000801058D01*
X0002466802Y0000802175D01*
X0002467578Y0000803220D01*
X0002468452Y0000804185D01*
X0002469417Y0000805059D01*
X0002470462Y0000805835D01*
X0002471579Y0000806504D01*
X0002472756Y0000807061D01*
X0002473982Y0000807499D01*
X0002475244Y0000807815D01*
X0002476532Y0000808006D01*
X0002477832Y0000808070D01*
X0002522167Y0000808070D01*
X0002523467Y0000808006D01*
X0002523467Y0000808006D01*
G37*
D33*
X0002500000Y0000777559D03*
D32*
G36*
X0002523467Y0000727298D02*
X0002524755Y0000727107D01*
X0002526017Y0000726790D01*
X0002527243Y0000726352D01*
X0002528420Y0000725795D01*
X0002529537Y0000725126D01*
X0002530582Y0000724350D01*
X0002531547Y0000723476D01*
X0002532421Y0000722512D01*
X0002533197Y0000721466D01*
X0002533866Y0000720349D01*
X0002534423Y0000719172D01*
X0002534861Y0000717947D01*
X0002535178Y0000716684D01*
X0002535369Y0000715396D01*
X0002535433Y0000714096D01*
X0002535433Y0000679604D01*
X0002535369Y0000678304D01*
X0002535178Y0000677016D01*
X0002534861Y0000675753D01*
X0002534423Y0000674527D01*
X0002533866Y0000673351D01*
X0002533197Y0000672234D01*
X0002532421Y0000671188D01*
X0002531547Y0000670224D01*
X0002530582Y0000669349D01*
X0002529537Y0000668574D01*
X0002528420Y0000667905D01*
X0002527243Y0000667348D01*
X0002526017Y0000666909D01*
X0002524755Y0000666593D01*
X0002523467Y0000666402D01*
X0002522167Y0000666338D01*
X0002477832Y0000666338D01*
X0002476532Y0000666402D01*
X0002475244Y0000666593D01*
X0002473982Y0000666909D01*
X0002472756Y0000667348D01*
X0002471579Y0000667905D01*
X0002470462Y0000668574D01*
X0002469417Y0000669349D01*
X0002468452Y0000670224D01*
X0002467578Y0000671188D01*
X0002466802Y0000672234D01*
X0002466133Y0000673351D01*
X0002465576Y0000674527D01*
X0002465138Y0000675753D01*
X0002464821Y0000677016D01*
X0002464630Y0000678304D01*
X0002464566Y0000679604D01*
X0002464566Y0000714096D01*
X0002464630Y0000715396D01*
X0002464821Y0000716684D01*
X0002465138Y0000717947D01*
X0002465576Y0000719172D01*
X0002466133Y0000720349D01*
X0002466802Y0000721466D01*
X0002467578Y0000722512D01*
X0002468452Y0000723476D01*
X0002469417Y0000724350D01*
X0002470462Y0000725126D01*
X0002471579Y0000725795D01*
X0002472756Y0000726352D01*
X0002473982Y0000726790D01*
X0002475244Y0000727107D01*
X0002476532Y0000727298D01*
X0002477832Y0000727362D01*
X0002522167Y0000727362D01*
X0002523467Y0000727298D01*
X0002523467Y0000727298D01*
G37*
D33*
X0002500000Y0000696850D03*
G04 #@! TD*
D32*
G04 #@! TO.C,C4*
G36*
X0001828344Y0000744029D02*
X0001829657Y0000743834D01*
X0001830946Y0000743511D01*
X0001832196Y0000743064D01*
X0001833397Y0000742496D01*
X0001834536Y0000741813D01*
X0001835603Y0000741022D01*
X0001836587Y0000740130D01*
X0001837479Y0000739146D01*
X0001838270Y0000738079D01*
X0001838953Y0000736940D01*
X0001839521Y0000735740D01*
X0001839968Y0000734489D01*
X0001840291Y0000733201D01*
X0001840486Y0000731887D01*
X0001840551Y0000730561D01*
X0001840551Y0000686761D01*
X0001840486Y0000685435D01*
X0001840291Y0000684121D01*
X0001839968Y0000682833D01*
X0001839521Y0000681582D01*
X0001838953Y0000680382D01*
X0001838270Y0000679243D01*
X0001837479Y0000678176D01*
X0001836587Y0000677192D01*
X0001835603Y0000676300D01*
X0001834536Y0000675509D01*
X0001833397Y0000674826D01*
X0001832196Y0000674258D01*
X0001830946Y0000673811D01*
X0001829657Y0000673488D01*
X0001828344Y0000673293D01*
X0001827017Y0000673228D01*
X0001799950Y0000673228D01*
X0001798624Y0000673293D01*
X0001797310Y0000673488D01*
X0001796022Y0000673811D01*
X0001794771Y0000674258D01*
X0001793571Y0000674826D01*
X0001792431Y0000675509D01*
X0001791365Y0000676300D01*
X0001790381Y0000677192D01*
X0001789489Y0000678176D01*
X0001788698Y0000679243D01*
X0001788015Y0000680382D01*
X0001787447Y0000681582D01*
X0001787000Y0000682833D01*
X0001786677Y0000684121D01*
X0001786482Y0000685435D01*
X0001786417Y0000686761D01*
X0001786417Y0000730561D01*
X0001786482Y0000731887D01*
X0001786677Y0000733201D01*
X0001787000Y0000734489D01*
X0001787447Y0000735740D01*
X0001788015Y0000736940D01*
X0001788698Y0000738079D01*
X0001789489Y0000739146D01*
X0001790381Y0000740130D01*
X0001791365Y0000741022D01*
X0001792431Y0000741813D01*
X0001793571Y0000742496D01*
X0001794771Y0000743064D01*
X0001796022Y0000743511D01*
X0001797310Y0000743834D01*
X0001798624Y0000744029D01*
X0001799950Y0000744094D01*
X0001827017Y0000744094D01*
X0001828344Y0000744029D01*
X0001828344Y0000744029D01*
G37*
D34*
X0001813484Y0000708661D03*
D32*
G36*
X0001902163Y0000744029D02*
X0001903476Y0000743834D01*
X0001904765Y0000743511D01*
X0001906015Y0000743064D01*
X0001907216Y0000742496D01*
X0001908355Y0000741813D01*
X0001909422Y0000741022D01*
X0001910406Y0000740130D01*
X0001911298Y0000739146D01*
X0001912089Y0000738079D01*
X0001912772Y0000736940D01*
X0001913339Y0000735740D01*
X0001913787Y0000734489D01*
X0001914110Y0000733201D01*
X0001914304Y0000731887D01*
X0001914370Y0000730561D01*
X0001914370Y0000686761D01*
X0001914304Y0000685435D01*
X0001914110Y0000684121D01*
X0001913787Y0000682833D01*
X0001913339Y0000681582D01*
X0001912772Y0000680382D01*
X0001912089Y0000679243D01*
X0001911298Y0000678176D01*
X0001910406Y0000677192D01*
X0001909422Y0000676300D01*
X0001908355Y0000675509D01*
X0001907216Y0000674826D01*
X0001906015Y0000674258D01*
X0001904765Y0000673811D01*
X0001903476Y0000673488D01*
X0001902163Y0000673293D01*
X0001900836Y0000673228D01*
X0001873769Y0000673228D01*
X0001872443Y0000673293D01*
X0001871129Y0000673488D01*
X0001869841Y0000673811D01*
X0001868590Y0000674258D01*
X0001867390Y0000674826D01*
X0001866250Y0000675509D01*
X0001865184Y0000676300D01*
X0001864200Y0000677192D01*
X0001863308Y0000678176D01*
X0001862516Y0000679243D01*
X0001861834Y0000680382D01*
X0001861266Y0000681582D01*
X0001860818Y0000682833D01*
X0001860496Y0000684121D01*
X0001860301Y0000685435D01*
X0001860236Y0000686761D01*
X0001860236Y0000730561D01*
X0001860301Y0000731887D01*
X0001860496Y0000733201D01*
X0001860818Y0000734489D01*
X0001861266Y0000735740D01*
X0001861834Y0000736940D01*
X0001862516Y0000738079D01*
X0001863308Y0000739146D01*
X0001864200Y0000740130D01*
X0001865184Y0000741022D01*
X0001866250Y0000741813D01*
X0001867390Y0000742496D01*
X0001868590Y0000743064D01*
X0001869841Y0000743511D01*
X0001871129Y0000743834D01*
X0001872443Y0000744029D01*
X0001873769Y0000744094D01*
X0001900836Y0000744094D01*
X0001902163Y0000744029D01*
X0001902163Y0000744029D01*
G37*
D34*
X0001887303Y0000708661D03*
G04 #@! TD*
D32*
G04 #@! TO.C,C3*
G36*
X0001825686Y0000507808D02*
X0001827000Y0000507613D01*
X0001828288Y0000507291D01*
X0001829539Y0000506843D01*
X0001830739Y0000506275D01*
X0001831878Y0000505593D01*
X0001832945Y0000504802D01*
X0001833929Y0000503910D01*
X0001834821Y0000502926D01*
X0001835612Y0000501859D01*
X0001836295Y0000500720D01*
X0001836863Y0000499519D01*
X0001837310Y0000498269D01*
X0001837633Y0000496980D01*
X0001837828Y0000495667D01*
X0001837893Y0000494340D01*
X0001837893Y0000450541D01*
X0001837828Y0000449214D01*
X0001837633Y0000447901D01*
X0001837310Y0000446612D01*
X0001836863Y0000445362D01*
X0001836295Y0000444161D01*
X0001835612Y0000443022D01*
X0001834821Y0000441955D01*
X0001833929Y0000440971D01*
X0001832945Y0000440079D01*
X0001831878Y0000439288D01*
X0001830739Y0000438605D01*
X0001829539Y0000438037D01*
X0001828288Y0000437590D01*
X0001827000Y0000437267D01*
X0001825686Y0000437072D01*
X0001824360Y0000437007D01*
X0001797293Y0000437007D01*
X0001795966Y0000437072D01*
X0001794653Y0000437267D01*
X0001793364Y0000437590D01*
X0001792114Y0000438037D01*
X0001790913Y0000438605D01*
X0001789774Y0000439288D01*
X0001788707Y0000440079D01*
X0001787723Y0000440971D01*
X0001786831Y0000441955D01*
X0001786040Y0000443022D01*
X0001785357Y0000444161D01*
X0001784789Y0000445362D01*
X0001784342Y0000446612D01*
X0001784019Y0000447901D01*
X0001783825Y0000449214D01*
X0001783759Y0000450541D01*
X0001783759Y0000494340D01*
X0001783825Y0000495667D01*
X0001784019Y0000496980D01*
X0001784342Y0000498269D01*
X0001784789Y0000499519D01*
X0001785357Y0000500720D01*
X0001786040Y0000501859D01*
X0001786831Y0000502926D01*
X0001787723Y0000503910D01*
X0001788707Y0000504802D01*
X0001789774Y0000505593D01*
X0001790913Y0000506275D01*
X0001792114Y0000506843D01*
X0001793364Y0000507291D01*
X0001794653Y0000507613D01*
X0001795966Y0000507808D01*
X0001797293Y0000507874D01*
X0001824360Y0000507874D01*
X0001825686Y0000507808D01*
X0001825686Y0000507808D01*
G37*
D34*
X0001810826Y0000472440D03*
D32*
G36*
X0001899505Y0000507808D02*
X0001900819Y0000507613D01*
X0001902107Y0000507291D01*
X0001903358Y0000506843D01*
X0001904558Y0000506275D01*
X0001905697Y0000505593D01*
X0001906764Y0000504802D01*
X0001907748Y0000503910D01*
X0001908640Y0000502926D01*
X0001909431Y0000501859D01*
X0001910114Y0000500720D01*
X0001910682Y0000499519D01*
X0001911129Y0000498269D01*
X0001911452Y0000496980D01*
X0001911647Y0000495667D01*
X0001911712Y0000494340D01*
X0001911712Y0000450541D01*
X0001911647Y0000449214D01*
X0001911452Y0000447901D01*
X0001911129Y0000446612D01*
X0001910682Y0000445362D01*
X0001910114Y0000444161D01*
X0001909431Y0000443022D01*
X0001908640Y0000441955D01*
X0001907748Y0000440971D01*
X0001906764Y0000440079D01*
X0001905697Y0000439288D01*
X0001904558Y0000438605D01*
X0001903358Y0000438037D01*
X0001902107Y0000437590D01*
X0001900819Y0000437267D01*
X0001899505Y0000437072D01*
X0001898179Y0000437007D01*
X0001871112Y0000437007D01*
X0001869785Y0000437072D01*
X0001868471Y0000437267D01*
X0001867183Y0000437590D01*
X0001865933Y0000438037D01*
X0001864732Y0000438605D01*
X0001863593Y0000439288D01*
X0001862526Y0000440079D01*
X0001861542Y0000440971D01*
X0001860650Y0000441955D01*
X0001859859Y0000443022D01*
X0001859176Y0000444161D01*
X0001858608Y0000445362D01*
X0001858161Y0000446612D01*
X0001857838Y0000447901D01*
X0001857643Y0000449214D01*
X0001857578Y0000450541D01*
X0001857578Y0000494340D01*
X0001857643Y0000495667D01*
X0001857838Y0000496980D01*
X0001858161Y0000498269D01*
X0001858608Y0000499519D01*
X0001859176Y0000500720D01*
X0001859859Y0000501859D01*
X0001860650Y0000502926D01*
X0001861542Y0000503910D01*
X0001862526Y0000504802D01*
X0001863593Y0000505593D01*
X0001864732Y0000506275D01*
X0001865933Y0000506843D01*
X0001867183Y0000507291D01*
X0001868471Y0000507613D01*
X0001869785Y0000507808D01*
X0001871112Y0000507874D01*
X0001898179Y0000507874D01*
X0001899505Y0000507808D01*
X0001899505Y0000507808D01*
G37*
D34*
X0001884645Y0000472440D03*
G04 #@! TD*
D32*
G04 #@! TO.C,C2*
G36*
X0002031100Y0000344423D02*
X0002032413Y0000344228D01*
X0002033702Y0000343905D01*
X0002034952Y0000343457D01*
X0002036153Y0000342890D01*
X0002037292Y0000342207D01*
X0002038359Y0000341416D01*
X0002039343Y0000340524D01*
X0002040235Y0000339540D01*
X0002041026Y0000338473D01*
X0002041709Y0000337334D01*
X0002042276Y0000336133D01*
X0002042724Y0000334883D01*
X0002043047Y0000333594D01*
X0002043241Y0000332281D01*
X0002043307Y0000330954D01*
X0002043307Y0000303887D01*
X0002043241Y0000302561D01*
X0002043047Y0000301247D01*
X0002042724Y0000299959D01*
X0002042276Y0000298708D01*
X0002041709Y0000297508D01*
X0002041026Y0000296368D01*
X0002040235Y0000295302D01*
X0002039343Y0000294318D01*
X0002038359Y0000293426D01*
X0002037292Y0000292635D01*
X0002036153Y0000291952D01*
X0002034952Y0000291384D01*
X0002033702Y0000290937D01*
X0002032413Y0000290614D01*
X0002031100Y0000290419D01*
X0002029773Y0000290354D01*
X0001985974Y0000290354D01*
X0001984647Y0000290419D01*
X0001983334Y0000290614D01*
X0001982045Y0000290937D01*
X0001980795Y0000291384D01*
X0001979594Y0000291952D01*
X0001978455Y0000292635D01*
X0001977388Y0000293426D01*
X0001976404Y0000294318D01*
X0001975512Y0000295302D01*
X0001974721Y0000296368D01*
X0001974038Y0000297508D01*
X0001973471Y0000298708D01*
X0001973023Y0000299959D01*
X0001972700Y0000301247D01*
X0001972506Y0000302561D01*
X0001972440Y0000303887D01*
X0001972440Y0000330954D01*
X0001972506Y0000332281D01*
X0001972700Y0000333594D01*
X0001973023Y0000334883D01*
X0001973471Y0000336133D01*
X0001974038Y0000337334D01*
X0001974721Y0000338473D01*
X0001975512Y0000339540D01*
X0001976404Y0000340524D01*
X0001977388Y0000341416D01*
X0001978455Y0000342207D01*
X0001979594Y0000342890D01*
X0001980795Y0000343457D01*
X0001982045Y0000343905D01*
X0001983334Y0000344228D01*
X0001984647Y0000344423D01*
X0001985974Y0000344488D01*
X0002029773Y0000344488D01*
X0002031100Y0000344423D01*
X0002031100Y0000344423D01*
G37*
D34*
X0002007874Y0000317421D03*
D32*
G36*
X0002031100Y0000418241D02*
X0002032413Y0000418047D01*
X0002033702Y0000417724D01*
X0002034952Y0000417276D01*
X0002036153Y0000416709D01*
X0002037292Y0000416026D01*
X0002038359Y0000415235D01*
X0002039343Y0000414343D01*
X0002040235Y0000413359D01*
X0002041026Y0000412292D01*
X0002041709Y0000411153D01*
X0002042276Y0000409952D01*
X0002042724Y0000408702D01*
X0002043047Y0000407413D01*
X0002043241Y0000406100D01*
X0002043307Y0000404773D01*
X0002043307Y0000377706D01*
X0002043241Y0000376380D01*
X0002043047Y0000375066D01*
X0002042724Y0000373778D01*
X0002042276Y0000372527D01*
X0002041709Y0000371327D01*
X0002041026Y0000370187D01*
X0002040235Y0000369121D01*
X0002039343Y0000368137D01*
X0002038359Y0000367245D01*
X0002037292Y0000366453D01*
X0002036153Y0000365771D01*
X0002034952Y0000365203D01*
X0002033702Y0000364755D01*
X0002032413Y0000364433D01*
X0002031100Y0000364238D01*
X0002029773Y0000364173D01*
X0001985974Y0000364173D01*
X0001984647Y0000364238D01*
X0001983334Y0000364433D01*
X0001982045Y0000364755D01*
X0001980795Y0000365203D01*
X0001979594Y0000365771D01*
X0001978455Y0000366453D01*
X0001977388Y0000367245D01*
X0001976404Y0000368137D01*
X0001975512Y0000369121D01*
X0001974721Y0000370187D01*
X0001974038Y0000371327D01*
X0001973471Y0000372527D01*
X0001973023Y0000373778D01*
X0001972700Y0000375066D01*
X0001972506Y0000376380D01*
X0001972440Y0000377706D01*
X0001972440Y0000404773D01*
X0001972506Y0000406100D01*
X0001972700Y0000407413D01*
X0001973023Y0000408702D01*
X0001973471Y0000409952D01*
X0001974038Y0000411153D01*
X0001974721Y0000412292D01*
X0001975512Y0000413359D01*
X0001976404Y0000414343D01*
X0001977388Y0000415235D01*
X0001978455Y0000416026D01*
X0001979594Y0000416709D01*
X0001980795Y0000417276D01*
X0001982045Y0000417724D01*
X0001983334Y0000418047D01*
X0001984647Y0000418241D01*
X0001985974Y0000418307D01*
X0002029773Y0000418307D01*
X0002031100Y0000418241D01*
X0002031100Y0000418241D01*
G37*
D34*
X0002007874Y0000391240D03*
G04 #@! TD*
D32*
G04 #@! TO.C,C1*
G36*
X0001830804Y0000271588D02*
X0001832118Y0000271393D01*
X0001833406Y0000271070D01*
X0001834657Y0000270623D01*
X0001835857Y0000270055D01*
X0001836997Y0000269372D01*
X0001838063Y0000268581D01*
X0001839047Y0000267689D01*
X0001839939Y0000266705D01*
X0001840731Y0000265638D01*
X0001841413Y0000264499D01*
X0001841981Y0000263299D01*
X0001842429Y0000262048D01*
X0001842751Y0000260760D01*
X0001842946Y0000259446D01*
X0001843011Y0000258120D01*
X0001843011Y0000214320D01*
X0001842946Y0000212994D01*
X0001842751Y0000211680D01*
X0001842429Y0000210392D01*
X0001841981Y0000209141D01*
X0001841413Y0000207941D01*
X0001840731Y0000206802D01*
X0001839939Y0000205735D01*
X0001839047Y0000204751D01*
X0001838063Y0000203859D01*
X0001836997Y0000203068D01*
X0001835857Y0000202385D01*
X0001834657Y0000201817D01*
X0001833406Y0000201370D01*
X0001832118Y0000201047D01*
X0001830804Y0000200852D01*
X0001829478Y0000200787D01*
X0001802411Y0000200787D01*
X0001801084Y0000200852D01*
X0001799771Y0000201047D01*
X0001798482Y0000201370D01*
X0001797232Y0000201817D01*
X0001796031Y0000202385D01*
X0001794892Y0000203068D01*
X0001793825Y0000203859D01*
X0001792841Y0000204751D01*
X0001791949Y0000205735D01*
X0001791158Y0000206802D01*
X0001790475Y0000207941D01*
X0001789908Y0000209141D01*
X0001789460Y0000210392D01*
X0001789137Y0000211680D01*
X0001788943Y0000212994D01*
X0001788877Y0000214320D01*
X0001788877Y0000258120D01*
X0001788943Y0000259446D01*
X0001789137Y0000260760D01*
X0001789460Y0000262048D01*
X0001789908Y0000263299D01*
X0001790475Y0000264499D01*
X0001791158Y0000265638D01*
X0001791949Y0000266705D01*
X0001792841Y0000267689D01*
X0001793825Y0000268581D01*
X0001794892Y0000269372D01*
X0001796031Y0000270055D01*
X0001797232Y0000270623D01*
X0001798482Y0000271070D01*
X0001799771Y0000271393D01*
X0001801084Y0000271588D01*
X0001802411Y0000271653D01*
X0001829478Y0000271653D01*
X0001830804Y0000271588D01*
X0001830804Y0000271588D01*
G37*
D34*
X0001815944Y0000236220D03*
D32*
G36*
X0001904623Y0000271588D02*
X0001905937Y0000271393D01*
X0001907225Y0000271070D01*
X0001908476Y0000270623D01*
X0001909676Y0000270055D01*
X0001910816Y0000269372D01*
X0001911882Y0000268581D01*
X0001912866Y0000267689D01*
X0001913758Y0000266705D01*
X0001914549Y0000265638D01*
X0001915232Y0000264499D01*
X0001915800Y0000263299D01*
X0001916247Y0000262048D01*
X0001916570Y0000260760D01*
X0001916765Y0000259446D01*
X0001916830Y0000258120D01*
X0001916830Y0000214320D01*
X0001916765Y0000212994D01*
X0001916570Y0000211680D01*
X0001916247Y0000210392D01*
X0001915800Y0000209141D01*
X0001915232Y0000207941D01*
X0001914549Y0000206802D01*
X0001913758Y0000205735D01*
X0001912866Y0000204751D01*
X0001911882Y0000203859D01*
X0001910816Y0000203068D01*
X0001909676Y0000202385D01*
X0001908476Y0000201817D01*
X0001907225Y0000201370D01*
X0001905937Y0000201047D01*
X0001904623Y0000200852D01*
X0001903297Y0000200787D01*
X0001876230Y0000200787D01*
X0001874903Y0000200852D01*
X0001873590Y0000201047D01*
X0001872301Y0000201370D01*
X0001871051Y0000201817D01*
X0001869850Y0000202385D01*
X0001868711Y0000203068D01*
X0001867644Y0000203859D01*
X0001866660Y0000204751D01*
X0001865768Y0000205735D01*
X0001864977Y0000206802D01*
X0001864294Y0000207941D01*
X0001863727Y0000209141D01*
X0001863279Y0000210392D01*
X0001862956Y0000211680D01*
X0001862762Y0000212994D01*
X0001862696Y0000214320D01*
X0001862696Y0000258120D01*
X0001862762Y0000259446D01*
X0001862956Y0000260760D01*
X0001863279Y0000262048D01*
X0001863727Y0000263299D01*
X0001864294Y0000264499D01*
X0001864977Y0000265638D01*
X0001865768Y0000266705D01*
X0001866660Y0000267689D01*
X0001867644Y0000268581D01*
X0001868711Y0000269372D01*
X0001869850Y0000270055D01*
X0001871051Y0000270623D01*
X0001872301Y0000271070D01*
X0001873590Y0000271393D01*
X0001874903Y0000271588D01*
X0001876230Y0000271653D01*
X0001903297Y0000271653D01*
X0001904623Y0000271588D01*
X0001904623Y0000271588D01*
G37*
D34*
X0001889763Y0000236220D03*
G04 #@! TD*
D35*
G04 #@! TO.C,J1*
X0001811023Y0000078740D03*
D36*
X0001911023Y0000078740D03*
X0002011023Y0000078740D03*
X0002111023Y0000078740D03*
X0002211023Y0000078740D03*
X0002311023Y0000078740D03*
X0002411023Y0000078740D03*
X0002511023Y0000078740D03*
X0002611023Y0000078740D03*
G04 #@! TD*
D37*
G04 #@! TO.C,U3*
X0001811023Y0000590551D03*
X0001889763Y0000627952D03*
X0001889763Y0000553149D03*
G04 #@! TD*
G04 #@! TO.C,U2*
X0001889763Y0000314960D03*
X0001889763Y0000389763D03*
X0001811023Y0000352362D03*
G04 #@! TD*
G04 next file*
G04 #@! TF.GenerationSoftware,KiCad,Pcbnew,(5.0.0)*
G04 #@! TF.CreationDate,2019-07-31T00:08:18+03:00*
G04 #@! TF.ProjectId,ST7789_V_FCP_Board,5354373738395F565F4643505F426F61,rev?*
G04 #@! TF.SameCoordinates,Original*
G04 #@! TF.FileFunction,Soldermask,Top*
G04 #@! TF.FilePolarity,Negative*
G04 Gerber Fmt 4.6, Leading zero omitted, Abs format (unit mm)*
G04 Created by KiCad (PCBNEW (5.0.0)) date 07/31/19 00:08:18*
G01*
G04 APERTURE LIST*
G04 APERTURE END LIST*
D38*
G04 #@! TO.C,IC2*
X-0001299212Y-0001653543D02*
X0001278641Y0003237460D03*
X0001278641Y0003211870D03*
X0001278641Y0003186279D03*
X0001278641Y0003160688D03*
X0001278641Y0003135098D03*
X0001278641Y0003109507D03*
X0001278641Y0003083917D03*
X0001278641Y0003058326D03*
X0001278641Y0003032736D03*
X0001278641Y0003007145D03*
X0001506988Y0003007145D03*
X0001506988Y0003032736D03*
X0001506988Y0003058326D03*
X0001506988Y0003083917D03*
X0001506988Y0003109507D03*
X0001506988Y0003135098D03*
X0001506988Y0003160688D03*
X0001506988Y0003186279D03*
X0001506988Y0003211870D03*
X0001506988Y0003237460D03*
G04 #@! TD*
D39*
G04 #@! TO.C,U4*
X0000806517Y0003082486D03*
X0000806517Y0003106108D03*
X0000806517Y0003129730D03*
X0000806517Y0003153352D03*
X0000806517Y0003176974D03*
X0000806517Y0003200596D03*
X0000806517Y0003224218D03*
X0000662816Y0003094297D03*
X0000662816Y0003117919D03*
X0000662816Y0003141541D03*
X0000662816Y0003165163D03*
X0000662816Y0003188785D03*
X0000662816Y0003212407D03*
G04 #@! TD*
D40*
G04 #@! TO.C,TP4*
X0001633267Y0003202992D03*
G04 #@! TD*
G04 #@! TO.C,TP31*
X0001141141Y0002828976D03*
G04 #@! TD*
G04 #@! TO.C,TP29*
X0001141141Y0003025826D03*
G04 #@! TD*
G04 #@! TO.C,TP32*
X0001141141Y0002730551D03*
G04 #@! TD*
G04 #@! TO.C,TP33*
X0001633267Y0002710866D03*
G04 #@! TD*
G04 #@! TO.C,TP1*
X0001633267Y0003596692D03*
G04 #@! TD*
G04 #@! TO.C,TP2*
X0001633267Y0003404291D03*
G04 #@! TD*
G04 #@! TO.C,TP10*
X0001141141Y0003537637D03*
G04 #@! TD*
G04 #@! TO.C,TP5*
X0001633267Y0003104566D03*
G04 #@! TD*
G04 #@! TO.C,TP6*
X0001633267Y0003006141D03*
G04 #@! TD*
G04 #@! TO.C,TP7*
X0001629192Y0002907716D03*
G04 #@! TD*
G04 #@! TO.C,TP8*
X0001633267Y0002809291D03*
G04 #@! TD*
G04 #@! TO.C,TP28*
X0001141141Y0003124251D03*
G04 #@! TD*
G04 #@! TO.C,TP27*
X0001141141Y0003222677D03*
G04 #@! TD*
G04 #@! TO.C,TP3*
X0001629192Y0003301417D03*
G04 #@! TD*
G04 #@! TO.C,TP30*
X0001141141Y0002927401D03*
G04 #@! TD*
G04 #@! TO.C,TP17*
X0000944470Y0003473195D03*
G04 #@! TD*
G04 #@! TO.C,TP25*
X0001141141Y0003419527D03*
G04 #@! TD*
G04 #@! TO.C,TP23*
X0000542344Y0003399139D03*
G04 #@! TD*
G04 #@! TO.C,TP22*
X0000542344Y0003300714D03*
G04 #@! TD*
G04 #@! TO.C,TP21*
X0000542344Y0003202289D03*
G04 #@! TD*
G04 #@! TO.C,TP20*
X0000542344Y0003103864D03*
G04 #@! TD*
G04 #@! TO.C,TP9*
X0001633267Y0003504685D03*
G04 #@! TD*
G04 #@! TO.C,TP26*
X0001141141Y0003321102D03*
G04 #@! TD*
G04 #@! TO.C,TP16*
X0000951537Y0003384966D03*
G04 #@! TD*
G04 #@! TO.C,TP15*
X0000944470Y0003276344D03*
G04 #@! TD*
G04 #@! TO.C,TP14*
X0000944470Y0003177919D03*
G04 #@! TD*
G04 #@! TO.C,TP13*
X0000944470Y0003079494D03*
G04 #@! TD*
G04 #@! TO.C,TP12*
X0000944470Y0002981069D03*
G04 #@! TD*
G04 #@! TO.C,TP11*
X0000944470Y0002882643D03*
G04 #@! TD*
G04 #@! TO.C,TP19*
X0000542344Y0003005439D03*
G04 #@! TD*
G04 #@! TO.C,TP24*
X0001141141Y0003636062D03*
G04 #@! TD*
G04 #@! TO.C,TP18*
X0000542344Y0002907013D03*
G04 #@! TD*
D39*
G04 #@! TO.C,U1*
X0002053464Y0003160275D03*
X0002053464Y0003183897D03*
X0002053464Y0003207519D03*
X0002053464Y0003231141D03*
X0002053464Y0003254763D03*
X0002053464Y0003278385D03*
X0001909763Y0003148464D03*
X0001909763Y0003172086D03*
X0001909763Y0003195708D03*
X0001909763Y0003219330D03*
X0001909763Y0003242952D03*
X0001909763Y0003266574D03*
X0001909763Y0003290196D03*
G04 #@! TD*
D41*
G04 #@! TO.C,C6*
G36*
X0002389630Y0003464924D02*
X0002389821Y0003466211D01*
X0002390138Y0003467474D01*
X0002390576Y0003468700D01*
X0002391133Y0003469877D01*
X0002391802Y0003470993D01*
X0002392578Y0003472039D01*
X0002393452Y0003473004D01*
X0002394417Y0003473878D01*
X0002395462Y0003474654D01*
X0002396579Y0003475323D01*
X0002397756Y0003475879D01*
X0002398982Y0003476318D01*
X0002400244Y0003476634D01*
X0002401532Y0003476825D01*
X0002402832Y0003476889D01*
X0002437324Y0003476889D01*
X0002438624Y0003476825D01*
X0002439912Y0003476634D01*
X0002441175Y0003476318D01*
X0002442401Y0003475879D01*
X0002443578Y0003475323D01*
X0002444694Y0003474654D01*
X0002445740Y0003473878D01*
X0002446705Y0003473004D01*
X0002447579Y0003472039D01*
X0002448354Y0003470993D01*
X0002449024Y0003469877D01*
X0002449580Y0003468700D01*
X0002450019Y0003467474D01*
X0002450335Y0003466211D01*
X0002450526Y0003464924D01*
X0002450590Y0003463623D01*
X0002450590Y0003419289D01*
X0002450526Y0003417989D01*
X0002450335Y0003416701D01*
X0002450019Y0003415438D01*
X0002449580Y0003414212D01*
X0002449024Y0003413036D01*
X0002448354Y0003411919D01*
X0002447579Y0003410873D01*
X0002446705Y0003409909D01*
X0002445740Y0003409034D01*
X0002444694Y0003408259D01*
X0002443578Y0003407590D01*
X0002442401Y0003407033D01*
X0002441175Y0003406594D01*
X0002439912Y0003406278D01*
X0002438624Y0003406087D01*
X0002437324Y0003406023D01*
X0002402832Y0003406023D01*
X0002401532Y0003406087D01*
X0002400244Y0003406278D01*
X0002398982Y0003406594D01*
X0002397756Y0003407033D01*
X0002396579Y0003407590D01*
X0002395462Y0003408259D01*
X0002394417Y0003409034D01*
X0002393452Y0003409909D01*
X0002392578Y0003410873D01*
X0002391802Y0003411919D01*
X0002391133Y0003413036D01*
X0002390576Y0003414212D01*
X0002390138Y0003415438D01*
X0002389821Y0003416701D01*
X0002389630Y0003417989D01*
X0002389566Y0003419289D01*
X0002389566Y0003463623D01*
X0002389630Y0003464924D01*
X0002389630Y0003464924D01*
G37*
D42*
X0002420078Y0003441456D03*
D41*
G36*
X0002470339Y0003464924D02*
X0002470530Y0003466211D01*
X0002470846Y0003467474D01*
X0002471285Y0003468700D01*
X0002471842Y0003469877D01*
X0002472511Y0003470993D01*
X0002473286Y0003472039D01*
X0002474161Y0003473004D01*
X0002475125Y0003473878D01*
X0002476171Y0003474654D01*
X0002477288Y0003475323D01*
X0002478464Y0003475879D01*
X0002479690Y0003476318D01*
X0002480953Y0003476634D01*
X0002482241Y0003476825D01*
X0002483541Y0003476889D01*
X0002518033Y0003476889D01*
X0002519333Y0003476825D01*
X0002520621Y0003476634D01*
X0002521884Y0003476318D01*
X0002523109Y0003475879D01*
X0002524286Y0003475323D01*
X0002525403Y0003474654D01*
X0002526449Y0003473878D01*
X0002527413Y0003473004D01*
X0002528287Y0003472039D01*
X0002529063Y0003470993D01*
X0002529732Y0003469877D01*
X0002530289Y0003468700D01*
X0002530727Y0003467474D01*
X0002531044Y0003466211D01*
X0002531235Y0003464924D01*
X0002531299Y0003463623D01*
X0002531299Y0003419289D01*
X0002531235Y0003417989D01*
X0002531044Y0003416701D01*
X0002530727Y0003415438D01*
X0002530289Y0003414212D01*
X0002529732Y0003413036D01*
X0002529063Y0003411919D01*
X0002528287Y0003410873D01*
X0002527413Y0003409909D01*
X0002526449Y0003409034D01*
X0002525403Y0003408259D01*
X0002524286Y0003407590D01*
X0002523109Y0003407033D01*
X0002521884Y0003406594D01*
X0002520621Y0003406278D01*
X0002519333Y0003406087D01*
X0002518033Y0003406023D01*
X0002483541Y0003406023D01*
X0002482241Y0003406087D01*
X0002480953Y0003406278D01*
X0002479690Y0003406594D01*
X0002478464Y0003407033D01*
X0002477288Y0003407590D01*
X0002476171Y0003408259D01*
X0002475125Y0003409034D01*
X0002474161Y0003409909D01*
X0002473286Y0003410873D01*
X0002472511Y0003411919D01*
X0002471842Y0003413036D01*
X0002471285Y0003414212D01*
X0002470846Y0003415438D01*
X0002470530Y0003416701D01*
X0002470339Y0003417989D01*
X0002470275Y0003419289D01*
X0002470275Y0003463623D01*
X0002470339Y0003464924D01*
X0002470339Y0003464924D01*
G37*
D42*
X0002500787Y0003441456D03*
G04 #@! TD*
D41*
G04 #@! TO.C,C5*
G36*
X0002175339Y0003424924D02*
X0002175530Y0003426211D01*
X0002175846Y0003427474D01*
X0002176285Y0003428700D01*
X0002176842Y0003429877D01*
X0002177511Y0003430993D01*
X0002178286Y0003432039D01*
X0002179161Y0003433004D01*
X0002180125Y0003433878D01*
X0002181171Y0003434654D01*
X0002182288Y0003435323D01*
X0002183464Y0003435879D01*
X0002184690Y0003436318D01*
X0002185953Y0003436634D01*
X0002187241Y0003436825D01*
X0002188541Y0003436889D01*
X0002223033Y0003436889D01*
X0002224333Y0003436825D01*
X0002225621Y0003436634D01*
X0002226884Y0003436318D01*
X0002228109Y0003435879D01*
X0002229286Y0003435323D01*
X0002230403Y0003434654D01*
X0002231449Y0003433878D01*
X0002232413Y0003433004D01*
X0002233287Y0003432039D01*
X0002234063Y0003430993D01*
X0002234732Y0003429877D01*
X0002235289Y0003428700D01*
X0002235727Y0003427474D01*
X0002236044Y0003426211D01*
X0002236235Y0003424924D01*
X0002236299Y0003423623D01*
X0002236299Y0003379289D01*
X0002236235Y0003377989D01*
X0002236044Y0003376701D01*
X0002235727Y0003375438D01*
X0002235289Y0003374212D01*
X0002234732Y0003373036D01*
X0002234063Y0003371919D01*
X0002233287Y0003370873D01*
X0002232413Y0003369909D01*
X0002231449Y0003369034D01*
X0002230403Y0003368259D01*
X0002229286Y0003367590D01*
X0002228109Y0003367033D01*
X0002226884Y0003366594D01*
X0002225621Y0003366278D01*
X0002224333Y0003366087D01*
X0002223033Y0003366023D01*
X0002188541Y0003366023D01*
X0002187241Y0003366087D01*
X0002185953Y0003366278D01*
X0002184690Y0003366594D01*
X0002183464Y0003367033D01*
X0002182288Y0003367590D01*
X0002181171Y0003368259D01*
X0002180125Y0003369034D01*
X0002179161Y0003369909D01*
X0002178286Y0003370873D01*
X0002177511Y0003371919D01*
X0002176842Y0003373036D01*
X0002176285Y0003374212D01*
X0002175846Y0003375438D01*
X0002175530Y0003376701D01*
X0002175339Y0003377989D01*
X0002175275Y0003379289D01*
X0002175275Y0003423623D01*
X0002175339Y0003424924D01*
X0002175339Y0003424924D01*
G37*
D42*
X0002205787Y0003401456D03*
D41*
G36*
X0002256048Y0003424924D02*
X0002256239Y0003426211D01*
X0002256555Y0003427474D01*
X0002256994Y0003428700D01*
X0002257550Y0003429877D01*
X0002258219Y0003430993D01*
X0002258995Y0003432039D01*
X0002259869Y0003433004D01*
X0002260834Y0003433878D01*
X0002261880Y0003434654D01*
X0002262996Y0003435323D01*
X0002264173Y0003435879D01*
X0002265399Y0003436318D01*
X0002266662Y0003436634D01*
X0002267949Y0003436825D01*
X0002269250Y0003436889D01*
X0002303741Y0003436889D01*
X0002305042Y0003436825D01*
X0002306329Y0003436634D01*
X0002307592Y0003436318D01*
X0002308818Y0003435879D01*
X0002309995Y0003435323D01*
X0002311112Y0003434654D01*
X0002312157Y0003433878D01*
X0002313122Y0003433004D01*
X0002313996Y0003432039D01*
X0002314772Y0003430993D01*
X0002315441Y0003429877D01*
X0002315998Y0003428700D01*
X0002316436Y0003427474D01*
X0002316752Y0003426211D01*
X0002316943Y0003424924D01*
X0002317007Y0003423623D01*
X0002317007Y0003379289D01*
X0002316943Y0003377989D01*
X0002316752Y0003376701D01*
X0002316436Y0003375438D01*
X0002315998Y0003374212D01*
X0002315441Y0003373036D01*
X0002314772Y0003371919D01*
X0002313996Y0003370873D01*
X0002313122Y0003369909D01*
X0002312157Y0003369034D01*
X0002311112Y0003368259D01*
X0002309995Y0003367590D01*
X0002308818Y0003367033D01*
X0002307592Y0003366594D01*
X0002306329Y0003366278D01*
X0002305042Y0003366087D01*
X0002303741Y0003366023D01*
X0002269250Y0003366023D01*
X0002267949Y0003366087D01*
X0002266662Y0003366278D01*
X0002265399Y0003366594D01*
X0002264173Y0003367033D01*
X0002262996Y0003367590D01*
X0002261880Y0003368259D01*
X0002260834Y0003369034D01*
X0002259869Y0003369909D01*
X0002258995Y0003370873D01*
X0002258219Y0003371919D01*
X0002257550Y0003373036D01*
X0002256994Y0003374212D01*
X0002256555Y0003375438D01*
X0002256239Y0003376701D01*
X0002256048Y0003377989D01*
X0002255984Y0003379289D01*
X0002255984Y0003423623D01*
X0002256048Y0003424924D01*
X0002256048Y0003424924D01*
G37*
D42*
X0002286496Y0003401456D03*
G04 #@! TD*
D41*
G04 #@! TO.C,R2*
G36*
X0002075339Y0003069924D02*
X0002075530Y0003071211D01*
X0002075846Y0003072474D01*
X0002076285Y0003073700D01*
X0002076842Y0003074877D01*
X0002077511Y0003075993D01*
X0002078286Y0003077039D01*
X0002079161Y0003078004D01*
X0002080125Y0003078878D01*
X0002081171Y0003079654D01*
X0002082288Y0003080323D01*
X0002083464Y0003080879D01*
X0002084690Y0003081318D01*
X0002085953Y0003081634D01*
X0002087241Y0003081825D01*
X0002088541Y0003081889D01*
X0002123033Y0003081889D01*
X0002124333Y0003081825D01*
X0002125621Y0003081634D01*
X0002126884Y0003081318D01*
X0002128109Y0003080879D01*
X0002129286Y0003080323D01*
X0002130403Y0003079654D01*
X0002131449Y0003078878D01*
X0002132413Y0003078004D01*
X0002133287Y0003077039D01*
X0002134063Y0003075993D01*
X0002134732Y0003074877D01*
X0002135289Y0003073700D01*
X0002135727Y0003072474D01*
X0002136044Y0003071211D01*
X0002136235Y0003069924D01*
X0002136299Y0003068623D01*
X0002136299Y0003024289D01*
X0002136235Y0003022989D01*
X0002136044Y0003021701D01*
X0002135727Y0003020438D01*
X0002135289Y0003019212D01*
X0002134732Y0003018036D01*
X0002134063Y0003016919D01*
X0002133287Y0003015873D01*
X0002132413Y0003014909D01*
X0002131449Y0003014034D01*
X0002130403Y0003013259D01*
X0002129286Y0003012590D01*
X0002128109Y0003012033D01*
X0002126884Y0003011594D01*
X0002125621Y0003011278D01*
X0002124333Y0003011087D01*
X0002123033Y0003011023D01*
X0002088541Y0003011023D01*
X0002087241Y0003011087D01*
X0002085953Y0003011278D01*
X0002084690Y0003011594D01*
X0002083464Y0003012033D01*
X0002082288Y0003012590D01*
X0002081171Y0003013259D01*
X0002080125Y0003014034D01*
X0002079161Y0003014909D01*
X0002078286Y0003015873D01*
X0002077511Y0003016919D01*
X0002076842Y0003018036D01*
X0002076285Y0003019212D01*
X0002075846Y0003020438D01*
X0002075530Y0003021701D01*
X0002075339Y0003022989D01*
X0002075275Y0003024289D01*
X0002075275Y0003068623D01*
X0002075339Y0003069924D01*
X0002075339Y0003069924D01*
G37*
D42*
X0002105787Y0003046456D03*
D41*
G36*
X0002156048Y0003069924D02*
X0002156239Y0003071211D01*
X0002156555Y0003072474D01*
X0002156994Y0003073700D01*
X0002157550Y0003074877D01*
X0002158219Y0003075993D01*
X0002158995Y0003077039D01*
X0002159869Y0003078004D01*
X0002160834Y0003078878D01*
X0002161880Y0003079654D01*
X0002162996Y0003080323D01*
X0002164173Y0003080879D01*
X0002165399Y0003081318D01*
X0002166662Y0003081634D01*
X0002167949Y0003081825D01*
X0002169250Y0003081889D01*
X0002203741Y0003081889D01*
X0002205042Y0003081825D01*
X0002206329Y0003081634D01*
X0002207592Y0003081318D01*
X0002208818Y0003080879D01*
X0002209995Y0003080323D01*
X0002211112Y0003079654D01*
X0002212157Y0003078878D01*
X0002213122Y0003078004D01*
X0002213996Y0003077039D01*
X0002214772Y0003075993D01*
X0002215441Y0003074877D01*
X0002215998Y0003073700D01*
X0002216436Y0003072474D01*
X0002216752Y0003071211D01*
X0002216943Y0003069924D01*
X0002217007Y0003068623D01*
X0002217007Y0003024289D01*
X0002216943Y0003022989D01*
X0002216752Y0003021701D01*
X0002216436Y0003020438D01*
X0002215998Y0003019212D01*
X0002215441Y0003018036D01*
X0002214772Y0003016919D01*
X0002213996Y0003015873D01*
X0002213122Y0003014909D01*
X0002212157Y0003014034D01*
X0002211112Y0003013259D01*
X0002209995Y0003012590D01*
X0002208818Y0003012033D01*
X0002207592Y0003011594D01*
X0002206329Y0003011278D01*
X0002205042Y0003011087D01*
X0002203741Y0003011023D01*
X0002169250Y0003011023D01*
X0002167949Y0003011087D01*
X0002166662Y0003011278D01*
X0002165399Y0003011594D01*
X0002164173Y0003012033D01*
X0002162996Y0003012590D01*
X0002161880Y0003013259D01*
X0002160834Y0003014034D01*
X0002159869Y0003014909D01*
X0002158995Y0003015873D01*
X0002158219Y0003016919D01*
X0002157550Y0003018036D01*
X0002156994Y0003019212D01*
X0002156555Y0003020438D01*
X0002156239Y0003021701D01*
X0002156048Y0003022989D01*
X0002155984Y0003024289D01*
X0002155984Y0003068623D01*
X0002156048Y0003069924D01*
X0002156048Y0003069924D01*
G37*
D42*
X0002186496Y0003046456D03*
G04 #@! TD*
D38*
G04 #@! TO.C,IC1*
X0002208661Y0003343503D03*
X0002208661Y0003317913D03*
X0002208661Y0003292322D03*
X0002208661Y0003266732D03*
X0002208661Y0003241141D03*
X0002208661Y0003215551D03*
X0002208661Y0003189960D03*
X0002208661Y0003164370D03*
X0002208661Y0003138779D03*
X0002208661Y0003113188D03*
X0002437007Y0003113188D03*
X0002437007Y0003138779D03*
X0002437007Y0003164370D03*
X0002437007Y0003189960D03*
X0002437007Y0003215551D03*
X0002437007Y0003241141D03*
X0002437007Y0003266732D03*
X0002437007Y0003292322D03*
X0002437007Y0003317913D03*
X0002437007Y0003343503D03*
G04 #@! TD*
D41*
G04 #@! TO.C,R1*
G36*
X0001908528Y0003468349D02*
X0001908719Y0003469637D01*
X0001909035Y0003470899D01*
X0001909474Y0003472125D01*
X0001910030Y0003473302D01*
X0001910700Y0003474419D01*
X0001911475Y0003475464D01*
X0001912350Y0003476429D01*
X0001913314Y0003477303D01*
X0001914360Y0003478079D01*
X0001915477Y0003478748D01*
X0001916653Y0003479305D01*
X0001917879Y0003479743D01*
X0001919142Y0003480060D01*
X0001920430Y0003480251D01*
X0001921730Y0003480314D01*
X0001956222Y0003480314D01*
X0001957522Y0003480251D01*
X0001958810Y0003480060D01*
X0001960073Y0003479743D01*
X0001961298Y0003479305D01*
X0001962475Y0003478748D01*
X0001963592Y0003478079D01*
X0001964638Y0003477303D01*
X0001965602Y0003476429D01*
X0001966476Y0003475464D01*
X0001967252Y0003474419D01*
X0001967921Y0003473302D01*
X0001968478Y0003472125D01*
X0001968916Y0003470899D01*
X0001969233Y0003469637D01*
X0001969424Y0003468349D01*
X0001969488Y0003467048D01*
X0001969488Y0003422714D01*
X0001969424Y0003421414D01*
X0001969233Y0003420126D01*
X0001968916Y0003418863D01*
X0001968478Y0003417638D01*
X0001967921Y0003416461D01*
X0001967252Y0003415344D01*
X0001966476Y0003414298D01*
X0001965602Y0003413334D01*
X0001964638Y0003412460D01*
X0001963592Y0003411684D01*
X0001962475Y0003411015D01*
X0001961298Y0003410458D01*
X0001960073Y0003410020D01*
X0001958810Y0003409703D01*
X0001957522Y0003409512D01*
X0001956222Y0003409448D01*
X0001921730Y0003409448D01*
X0001920430Y0003409512D01*
X0001919142Y0003409703D01*
X0001917879Y0003410020D01*
X0001916653Y0003410458D01*
X0001915477Y0003411015D01*
X0001914360Y0003411684D01*
X0001913314Y0003412460D01*
X0001912350Y0003413334D01*
X0001911475Y0003414298D01*
X0001910700Y0003415344D01*
X0001910030Y0003416461D01*
X0001909474Y0003417638D01*
X0001909035Y0003418863D01*
X0001908719Y0003420126D01*
X0001908528Y0003421414D01*
X0001908464Y0003422714D01*
X0001908464Y0003467048D01*
X0001908528Y0003468349D01*
X0001908528Y0003468349D01*
G37*
D42*
X0001938976Y0003444881D03*
D41*
G36*
X0001989237Y0003468349D02*
X0001989428Y0003469637D01*
X0001989744Y0003470899D01*
X0001990183Y0003472125D01*
X0001990739Y0003473302D01*
X0001991408Y0003474419D01*
X0001992184Y0003475464D01*
X0001993058Y0003476429D01*
X0001994023Y0003477303D01*
X0001995069Y0003478079D01*
X0001996185Y0003478748D01*
X0001997362Y0003479305D01*
X0001998588Y0003479743D01*
X0001999851Y0003480060D01*
X0002001138Y0003480251D01*
X0002002439Y0003480314D01*
X0002036930Y0003480314D01*
X0002038231Y0003480251D01*
X0002039518Y0003480060D01*
X0002040781Y0003479743D01*
X0002042007Y0003479305D01*
X0002043184Y0003478748D01*
X0002044301Y0003478079D01*
X0002045346Y0003477303D01*
X0002046311Y0003476429D01*
X0002047185Y0003475464D01*
X0002047961Y0003474419D01*
X0002048630Y0003473302D01*
X0002049187Y0003472125D01*
X0002049625Y0003470899D01*
X0002049941Y0003469637D01*
X0002050132Y0003468349D01*
X0002050196Y0003467048D01*
X0002050196Y0003422714D01*
X0002050132Y0003421414D01*
X0002049941Y0003420126D01*
X0002049625Y0003418863D01*
X0002049187Y0003417638D01*
X0002048630Y0003416461D01*
X0002047961Y0003415344D01*
X0002047185Y0003414298D01*
X0002046311Y0003413334D01*
X0002045346Y0003412460D01*
X0002044301Y0003411684D01*
X0002043184Y0003411015D01*
X0002042007Y0003410458D01*
X0002040781Y0003410020D01*
X0002039518Y0003409703D01*
X0002038231Y0003409512D01*
X0002036930Y0003409448D01*
X0002002439Y0003409448D01*
X0002001138Y0003409512D01*
X0001999851Y0003409703D01*
X0001998588Y0003410020D01*
X0001997362Y0003410458D01*
X0001996185Y0003411015D01*
X0001995069Y0003411684D01*
X0001994023Y0003412460D01*
X0001993058Y0003413334D01*
X0001992184Y0003414298D01*
X0001991408Y0003415344D01*
X0001990739Y0003416461D01*
X0001990183Y0003417638D01*
X0001989744Y0003418863D01*
X0001989428Y0003420126D01*
X0001989237Y0003421414D01*
X0001989173Y0003422714D01*
X0001989173Y0003467048D01*
X0001989237Y0003468349D01*
X0001989237Y0003468349D01*
G37*
D42*
X0002019685Y0003444881D03*
G04 #@! TD*
D41*
G04 #@! TO.C,C4*
G36*
X0001972506Y0002773226D02*
X0001972700Y0002774539D01*
X0001973023Y0002775828D01*
X0001973471Y0002777078D01*
X0001974038Y0002778279D01*
X0001974721Y0002779418D01*
X0001975512Y0002780485D01*
X0001976404Y0002781469D01*
X0001977388Y0002782361D01*
X0001978455Y0002783152D01*
X0001979594Y0002783835D01*
X0001980795Y0002784402D01*
X0001982045Y0002784850D01*
X0001983334Y0002785173D01*
X0001984647Y0002785367D01*
X0001985974Y0002785433D01*
X0002029773Y0002785433D01*
X0002031100Y0002785367D01*
X0002032413Y0002785173D01*
X0002033702Y0002784850D01*
X0002034952Y0002784402D01*
X0002036153Y0002783835D01*
X0002037292Y0002783152D01*
X0002038359Y0002782361D01*
X0002039343Y0002781469D01*
X0002040235Y0002780485D01*
X0002041026Y0002779418D01*
X0002041709Y0002778279D01*
X0002042276Y0002777078D01*
X0002042724Y0002775828D01*
X0002043047Y0002774539D01*
X0002043241Y0002773226D01*
X0002043307Y0002771899D01*
X0002043307Y0002744832D01*
X0002043241Y0002743506D01*
X0002043047Y0002742192D01*
X0002042724Y0002740904D01*
X0002042276Y0002739653D01*
X0002041709Y0002738453D01*
X0002041026Y0002737313D01*
X0002040235Y0002736247D01*
X0002039343Y0002735263D01*
X0002038359Y0002734371D01*
X0002037292Y0002733580D01*
X0002036153Y0002732897D01*
X0002034952Y0002732329D01*
X0002033702Y0002731881D01*
X0002032413Y0002731559D01*
X0002031100Y0002731364D01*
X0002029773Y0002731299D01*
X0001985974Y0002731299D01*
X0001984647Y0002731364D01*
X0001983334Y0002731559D01*
X0001982045Y0002731881D01*
X0001980795Y0002732329D01*
X0001979594Y0002732897D01*
X0001978455Y0002733580D01*
X0001977388Y0002734371D01*
X0001976404Y0002735263D01*
X0001975512Y0002736247D01*
X0001974721Y0002737313D01*
X0001974038Y0002738453D01*
X0001973471Y0002739653D01*
X0001973023Y0002740904D01*
X0001972700Y0002742192D01*
X0001972506Y0002743506D01*
X0001972440Y0002744832D01*
X0001972440Y0002771899D01*
X0001972506Y0002773226D01*
X0001972506Y0002773226D01*
G37*
D43*
X0002007874Y0002758366D03*
D41*
G36*
X0001972506Y0002847045D02*
X0001972700Y0002848358D01*
X0001973023Y0002849647D01*
X0001973471Y0002850897D01*
X0001974038Y0002852098D01*
X0001974721Y0002853237D01*
X0001975512Y0002854304D01*
X0001976404Y0002855288D01*
X0001977388Y0002856180D01*
X0001978455Y0002856971D01*
X0001979594Y0002857653D01*
X0001980795Y0002858221D01*
X0001982045Y0002858669D01*
X0001983334Y0002858991D01*
X0001984647Y0002859186D01*
X0001985974Y0002859251D01*
X0002029773Y0002859251D01*
X0002031100Y0002859186D01*
X0002032413Y0002858991D01*
X0002033702Y0002858669D01*
X0002034952Y0002858221D01*
X0002036153Y0002857653D01*
X0002037292Y0002856971D01*
X0002038359Y0002856180D01*
X0002039343Y0002855288D01*
X0002040235Y0002854304D01*
X0002041026Y0002853237D01*
X0002041709Y0002852098D01*
X0002042276Y0002850897D01*
X0002042724Y0002849647D01*
X0002043047Y0002848358D01*
X0002043241Y0002847045D01*
X0002043307Y0002845718D01*
X0002043307Y0002818651D01*
X0002043241Y0002817325D01*
X0002043047Y0002816011D01*
X0002042724Y0002814723D01*
X0002042276Y0002813472D01*
X0002041709Y0002812271D01*
X0002041026Y0002811132D01*
X0002040235Y0002810066D01*
X0002039343Y0002809081D01*
X0002038359Y0002808190D01*
X0002037292Y0002807398D01*
X0002036153Y0002806716D01*
X0002034952Y0002806148D01*
X0002033702Y0002805700D01*
X0002032413Y0002805378D01*
X0002031100Y0002805183D01*
X0002029773Y0002805118D01*
X0001985974Y0002805118D01*
X0001984647Y0002805183D01*
X0001983334Y0002805378D01*
X0001982045Y0002805700D01*
X0001980795Y0002806148D01*
X0001979594Y0002806716D01*
X0001978455Y0002807398D01*
X0001977388Y0002808190D01*
X0001976404Y0002809081D01*
X0001975512Y0002810066D01*
X0001974721Y0002811132D01*
X0001974038Y0002812271D01*
X0001973471Y0002813472D01*
X0001973023Y0002814723D01*
X0001972700Y0002816011D01*
X0001972506Y0002817325D01*
X0001972440Y0002818651D01*
X0001972440Y0002845718D01*
X0001972506Y0002847045D01*
X0001972506Y0002847045D01*
G37*
D43*
X0002007874Y0002832185D03*
G04 #@! TD*
D41*
G04 #@! TO.C,C3*
G36*
X0002208726Y0002770568D02*
X0002208921Y0002771882D01*
X0002209244Y0002773170D01*
X0002209691Y0002774421D01*
X0002210259Y0002775621D01*
X0002210942Y0002776760D01*
X0002211733Y0002777827D01*
X0002212625Y0002778811D01*
X0002213609Y0002779703D01*
X0002214676Y0002780494D01*
X0002215815Y0002781177D01*
X0002217015Y0002781745D01*
X0002218266Y0002782192D01*
X0002219554Y0002782515D01*
X0002220868Y0002782710D01*
X0002222194Y0002782775D01*
X0002265994Y0002782775D01*
X0002267320Y0002782710D01*
X0002268634Y0002782515D01*
X0002269922Y0002782192D01*
X0002271173Y0002781745D01*
X0002272373Y0002781177D01*
X0002273512Y0002780494D01*
X0002274579Y0002779703D01*
X0002275563Y0002778811D01*
X0002276455Y0002777827D01*
X0002277246Y0002776760D01*
X0002277929Y0002775621D01*
X0002278497Y0002774421D01*
X0002278944Y0002773170D01*
X0002279267Y0002771882D01*
X0002279462Y0002770568D01*
X0002279527Y0002769242D01*
X0002279527Y0002742175D01*
X0002279462Y0002740848D01*
X0002279267Y0002739534D01*
X0002278944Y0002738246D01*
X0002278497Y0002736996D01*
X0002277929Y0002735795D01*
X0002277246Y0002734656D01*
X0002276455Y0002733589D01*
X0002275563Y0002732605D01*
X0002274579Y0002731713D01*
X0002273512Y0002730922D01*
X0002272373Y0002730239D01*
X0002271173Y0002729671D01*
X0002269922Y0002729224D01*
X0002268634Y0002728901D01*
X0002267320Y0002728706D01*
X0002265994Y0002728641D01*
X0002222194Y0002728641D01*
X0002220868Y0002728706D01*
X0002219554Y0002728901D01*
X0002218266Y0002729224D01*
X0002217015Y0002729671D01*
X0002215815Y0002730239D01*
X0002214676Y0002730922D01*
X0002213609Y0002731713D01*
X0002212625Y0002732605D01*
X0002211733Y0002733589D01*
X0002210942Y0002734656D01*
X0002210259Y0002735795D01*
X0002209691Y0002736996D01*
X0002209244Y0002738246D01*
X0002208921Y0002739534D01*
X0002208726Y0002740848D01*
X0002208661Y0002742175D01*
X0002208661Y0002769242D01*
X0002208726Y0002770568D01*
X0002208726Y0002770568D01*
G37*
D43*
X0002244094Y0002755708D03*
D41*
G36*
X0002208726Y0002844387D02*
X0002208921Y0002845701D01*
X0002209244Y0002846989D01*
X0002209691Y0002848240D01*
X0002210259Y0002849440D01*
X0002210942Y0002850579D01*
X0002211733Y0002851646D01*
X0002212625Y0002852630D01*
X0002213609Y0002853522D01*
X0002214676Y0002854313D01*
X0002215815Y0002854996D01*
X0002217015Y0002855564D01*
X0002218266Y0002856011D01*
X0002219554Y0002856334D01*
X0002220868Y0002856529D01*
X0002222194Y0002856594D01*
X0002265994Y0002856594D01*
X0002267320Y0002856529D01*
X0002268634Y0002856334D01*
X0002269922Y0002856011D01*
X0002271173Y0002855564D01*
X0002272373Y0002854996D01*
X0002273512Y0002854313D01*
X0002274579Y0002853522D01*
X0002275563Y0002852630D01*
X0002276455Y0002851646D01*
X0002277246Y0002850579D01*
X0002277929Y0002849440D01*
X0002278497Y0002848240D01*
X0002278944Y0002846989D01*
X0002279267Y0002845701D01*
X0002279462Y0002844387D01*
X0002279527Y0002843061D01*
X0002279527Y0002815994D01*
X0002279462Y0002814667D01*
X0002279267Y0002813353D01*
X0002278944Y0002812065D01*
X0002278497Y0002810815D01*
X0002277929Y0002809614D01*
X0002277246Y0002808475D01*
X0002276455Y0002807408D01*
X0002275563Y0002806424D01*
X0002274579Y0002805532D01*
X0002273512Y0002804741D01*
X0002272373Y0002804058D01*
X0002271173Y0002803490D01*
X0002269922Y0002803043D01*
X0002268634Y0002802720D01*
X0002267320Y0002802525D01*
X0002265994Y0002802460D01*
X0002222194Y0002802460D01*
X0002220868Y0002802525D01*
X0002219554Y0002802720D01*
X0002218266Y0002803043D01*
X0002217015Y0002803490D01*
X0002215815Y0002804058D01*
X0002214676Y0002804741D01*
X0002213609Y0002805532D01*
X0002212625Y0002806424D01*
X0002211733Y0002807408D01*
X0002210942Y0002808475D01*
X0002210259Y0002809614D01*
X0002209691Y0002810815D01*
X0002209244Y0002812065D01*
X0002208921Y0002813353D01*
X0002208726Y0002814667D01*
X0002208661Y0002815994D01*
X0002208661Y0002843061D01*
X0002208726Y0002844387D01*
X0002208726Y0002844387D01*
G37*
D43*
X0002244094Y0002829527D03*
G04 #@! TD*
D41*
G04 #@! TO.C,C2*
G36*
X0002372112Y0002975982D02*
X0002372307Y0002977295D01*
X0002372630Y0002978584D01*
X0002373077Y0002979834D01*
X0002373645Y0002981035D01*
X0002374328Y0002982174D01*
X0002375119Y0002983241D01*
X0002376011Y0002984225D01*
X0002376995Y0002985117D01*
X0002378061Y0002985908D01*
X0002379201Y0002986590D01*
X0002380401Y0002987158D01*
X0002381652Y0002987606D01*
X0002382940Y0002987928D01*
X0002384254Y0002988123D01*
X0002385580Y0002988188D01*
X0002412647Y0002988188D01*
X0002413974Y0002988123D01*
X0002415287Y0002987928D01*
X0002416576Y0002987606D01*
X0002417826Y0002987158D01*
X0002419027Y0002986590D01*
X0002420166Y0002985908D01*
X0002421233Y0002985117D01*
X0002422217Y0002984225D01*
X0002423109Y0002983241D01*
X0002423900Y0002982174D01*
X0002424583Y0002981035D01*
X0002425150Y0002979834D01*
X0002425598Y0002978584D01*
X0002425921Y0002977295D01*
X0002426115Y0002975982D01*
X0002426181Y0002974655D01*
X0002426181Y0002930856D01*
X0002426115Y0002929529D01*
X0002425921Y0002928216D01*
X0002425598Y0002926927D01*
X0002425150Y0002925677D01*
X0002424583Y0002924476D01*
X0002423900Y0002923337D01*
X0002423109Y0002922270D01*
X0002422217Y0002921286D01*
X0002421233Y0002920394D01*
X0002420166Y0002919603D01*
X0002419027Y0002918920D01*
X0002417826Y0002918352D01*
X0002416576Y0002917905D01*
X0002415287Y0002917582D01*
X0002413974Y0002917387D01*
X0002412647Y0002917322D01*
X0002385580Y0002917322D01*
X0002384254Y0002917387D01*
X0002382940Y0002917582D01*
X0002381652Y0002917905D01*
X0002380401Y0002918352D01*
X0002379201Y0002918920D01*
X0002378061Y0002919603D01*
X0002376995Y0002920394D01*
X0002376011Y0002921286D01*
X0002375119Y0002922270D01*
X0002374328Y0002923337D01*
X0002373645Y0002924476D01*
X0002373077Y0002925677D01*
X0002372630Y0002926927D01*
X0002372307Y0002928216D01*
X0002372112Y0002929529D01*
X0002372047Y0002930856D01*
X0002372047Y0002974655D01*
X0002372112Y0002975982D01*
X0002372112Y0002975982D01*
G37*
D43*
X0002399114Y0002952755D03*
D41*
G36*
X0002298293Y0002975982D02*
X0002298488Y0002977295D01*
X0002298811Y0002978584D01*
X0002299258Y0002979834D01*
X0002299826Y0002981035D01*
X0002300509Y0002982174D01*
X0002301300Y0002983241D01*
X0002302192Y0002984225D01*
X0002303176Y0002985117D01*
X0002304243Y0002985908D01*
X0002305382Y0002986590D01*
X0002306582Y0002987158D01*
X0002307833Y0002987606D01*
X0002309121Y0002987928D01*
X0002310435Y0002988123D01*
X0002311761Y0002988188D01*
X0002338828Y0002988188D01*
X0002340155Y0002988123D01*
X0002341468Y0002987928D01*
X0002342757Y0002987606D01*
X0002344007Y0002987158D01*
X0002345208Y0002986590D01*
X0002346347Y0002985908D01*
X0002347414Y0002985117D01*
X0002348398Y0002984225D01*
X0002349290Y0002983241D01*
X0002350081Y0002982174D01*
X0002350764Y0002981035D01*
X0002351332Y0002979834D01*
X0002351779Y0002978584D01*
X0002352102Y0002977295D01*
X0002352297Y0002975982D01*
X0002352362Y0002974655D01*
X0002352362Y0002930856D01*
X0002352297Y0002929529D01*
X0002352102Y0002928216D01*
X0002351779Y0002926927D01*
X0002351332Y0002925677D01*
X0002350764Y0002924476D01*
X0002350081Y0002923337D01*
X0002349290Y0002922270D01*
X0002348398Y0002921286D01*
X0002347414Y0002920394D01*
X0002346347Y0002919603D01*
X0002345208Y0002918920D01*
X0002344007Y0002918352D01*
X0002342757Y0002917905D01*
X0002341468Y0002917582D01*
X0002340155Y0002917387D01*
X0002338828Y0002917322D01*
X0002311761Y0002917322D01*
X0002310435Y0002917387D01*
X0002309121Y0002917582D01*
X0002307833Y0002917905D01*
X0002306582Y0002918352D01*
X0002305382Y0002918920D01*
X0002304243Y0002919603D01*
X0002303176Y0002920394D01*
X0002302192Y0002921286D01*
X0002301300Y0002922270D01*
X0002300509Y0002923337D01*
X0002299826Y0002924476D01*
X0002299258Y0002925677D01*
X0002298811Y0002926927D01*
X0002298488Y0002928216D01*
X0002298293Y0002929529D01*
X0002298228Y0002930856D01*
X0002298228Y0002974655D01*
X0002298293Y0002975982D01*
X0002298293Y0002975982D01*
G37*
D43*
X0002325295Y0002952755D03*
G04 #@! TD*
D41*
G04 #@! TO.C,C1*
G36*
X0002444947Y0002775686D02*
X0002445141Y0002777000D01*
X0002445464Y0002778288D01*
X0002445912Y0002779539D01*
X0002446479Y0002780739D01*
X0002447162Y0002781879D01*
X0002447953Y0002782945D01*
X0002448845Y0002783929D01*
X0002449829Y0002784821D01*
X0002450896Y0002785612D01*
X0002452035Y0002786295D01*
X0002453236Y0002786863D01*
X0002454486Y0002787310D01*
X0002455775Y0002787633D01*
X0002457088Y0002787828D01*
X0002458415Y0002787893D01*
X0002502214Y0002787893D01*
X0002503541Y0002787828D01*
X0002504854Y0002787633D01*
X0002506143Y0002787310D01*
X0002507393Y0002786863D01*
X0002508594Y0002786295D01*
X0002509733Y0002785612D01*
X0002510800Y0002784821D01*
X0002511784Y0002783929D01*
X0002512676Y0002782945D01*
X0002513467Y0002781879D01*
X0002514150Y0002780739D01*
X0002514717Y0002779539D01*
X0002515165Y0002778288D01*
X0002515487Y0002777000D01*
X0002515682Y0002775686D01*
X0002515748Y0002774360D01*
X0002515748Y0002747293D01*
X0002515682Y0002745966D01*
X0002515487Y0002744653D01*
X0002515165Y0002743364D01*
X0002514717Y0002742114D01*
X0002514150Y0002740913D01*
X0002513467Y0002739774D01*
X0002512676Y0002738707D01*
X0002511784Y0002737723D01*
X0002510800Y0002736831D01*
X0002509733Y0002736040D01*
X0002508594Y0002735357D01*
X0002507393Y0002734790D01*
X0002506143Y0002734342D01*
X0002504854Y0002734019D01*
X0002503541Y0002733825D01*
X0002502214Y0002733759D01*
X0002458415Y0002733759D01*
X0002457088Y0002733825D01*
X0002455775Y0002734019D01*
X0002454486Y0002734342D01*
X0002453236Y0002734790D01*
X0002452035Y0002735357D01*
X0002450896Y0002736040D01*
X0002449829Y0002736831D01*
X0002448845Y0002737723D01*
X0002447953Y0002738707D01*
X0002447162Y0002739774D01*
X0002446479Y0002740913D01*
X0002445912Y0002742114D01*
X0002445464Y0002743364D01*
X0002445141Y0002744653D01*
X0002444947Y0002745966D01*
X0002444881Y0002747293D01*
X0002444881Y0002774360D01*
X0002444947Y0002775686D01*
X0002444947Y0002775686D01*
G37*
D43*
X0002480314Y0002760826D03*
D41*
G36*
X0002444947Y0002849505D02*
X0002445141Y0002850819D01*
X0002445464Y0002852107D01*
X0002445912Y0002853358D01*
X0002446479Y0002854558D01*
X0002447162Y0002855697D01*
X0002447953Y0002856764D01*
X0002448845Y0002857748D01*
X0002449829Y0002858640D01*
X0002450896Y0002859431D01*
X0002452035Y0002860114D01*
X0002453236Y0002860682D01*
X0002454486Y0002861129D01*
X0002455775Y0002861452D01*
X0002457088Y0002861647D01*
X0002458415Y0002861712D01*
X0002502214Y0002861712D01*
X0002503541Y0002861647D01*
X0002504854Y0002861452D01*
X0002506143Y0002861129D01*
X0002507393Y0002860682D01*
X0002508594Y0002860114D01*
X0002509733Y0002859431D01*
X0002510800Y0002858640D01*
X0002511784Y0002857748D01*
X0002512676Y0002856764D01*
X0002513467Y0002855697D01*
X0002514150Y0002854558D01*
X0002514717Y0002853358D01*
X0002515165Y0002852107D01*
X0002515487Y0002850819D01*
X0002515682Y0002849505D01*
X0002515748Y0002848179D01*
X0002515748Y0002821112D01*
X0002515682Y0002819785D01*
X0002515487Y0002818471D01*
X0002515165Y0002817183D01*
X0002514717Y0002815933D01*
X0002514150Y0002814732D01*
X0002513467Y0002813593D01*
X0002512676Y0002812526D01*
X0002511784Y0002811542D01*
X0002510800Y0002810650D01*
X0002509733Y0002809859D01*
X0002508594Y0002809176D01*
X0002507393Y0002808608D01*
X0002506143Y0002808161D01*
X0002504854Y0002807838D01*
X0002503541Y0002807643D01*
X0002502214Y0002807578D01*
X0002458415Y0002807578D01*
X0002457088Y0002807643D01*
X0002455775Y0002807838D01*
X0002454486Y0002808161D01*
X0002453236Y0002808608D01*
X0002452035Y0002809176D01*
X0002450896Y0002809859D01*
X0002449829Y0002810650D01*
X0002448845Y0002811542D01*
X0002447953Y0002812526D01*
X0002447162Y0002813593D01*
X0002446479Y0002814732D01*
X0002445912Y0002815933D01*
X0002445464Y0002817183D01*
X0002445141Y0002818471D01*
X0002444947Y0002819785D01*
X0002444881Y0002821112D01*
X0002444881Y0002848179D01*
X0002444947Y0002849505D01*
X0002444947Y0002849505D01*
G37*
D43*
X0002480314Y0002834645D03*
G04 #@! TD*
D44*
G04 #@! TO.C,J1*
X0002637795Y0002755905D03*
D45*
X0002637795Y0002855905D03*
X0002637795Y0002955905D03*
X0002637795Y0003055905D03*
X0002637795Y0003155905D03*
X0002637795Y0003255905D03*
X0002637795Y0003355905D03*
X0002637795Y0003455905D03*
X0002637795Y0003555905D03*
G04 #@! TD*
D46*
G04 #@! TO.C,U3*
X0002125984Y0002755905D03*
X0002088582Y0002834645D03*
X0002163385Y0002834645D03*
G04 #@! TD*
G04 #@! TO.C,U2*
X0002401574Y0002834645D03*
X0002326771Y0002834645D03*
X0002364173Y0002755905D03*
G04 #@! TD*
M02*