%MOIN*%
%OFA0B0*%
%FSLAX44Y44*%
%IPPOS*%
%LPD*%
%ADD10C,0*%
D10*
X00014960Y00010943D02*
X00014960Y00010943D01*
X00014960Y00008661D01*
X00016535Y-00000393D01*
X00027559Y-00000393D01*
X00029133Y00008661D01*
X00029133Y00016535D01*
X00029131Y00016700D01*
X00029126Y00016865D01*
X00029116Y00017029D01*
X00029103Y00017194D01*
X00029085Y00017358D01*
X00029064Y00017521D01*
X00029040Y00017684D01*
X00029011Y00017847D01*
X00028978Y00018008D01*
X00028942Y00018169D01*
X00028902Y00018329D01*
X00028859Y00018488D01*
X00028812Y00018646D01*
X00028761Y00018803D01*
X00028706Y00018959D01*
X00028648Y00019113D01*
X00028586Y00019266D01*
X00028521Y00019417D01*
X00028452Y00019567D01*
X00028380Y00019715D01*
X00028304Y00019862D01*
X00028225Y00020007D01*
X00028142Y00020149D01*
X00028057Y00020290D01*
X00027968Y00020429D01*
X00027875Y00020566D01*
X00027780Y00020700D01*
X00027681Y00020833D01*
X00027580Y00020963D01*
X00027475Y00021090D01*
X00027368Y00021215D01*
X00027258Y00021338D01*
X00027144Y00021458D01*
X00027028Y00021575D01*
X00026910Y00021690D01*
X00026789Y00021801D01*
X00026665Y00021910D01*
X00026538Y00022016D01*
X00026410Y00022119D01*
X00026279Y00022219D01*
X00026145Y00022316D01*
X00026010Y00022410D01*
X00025872Y00022501D01*
X00025732Y00022588D01*
X00025590Y00022672D01*
X00025446Y00022753D01*
X00025301Y00022830D01*
X00025153Y00022904D01*
X00025004Y00022975D01*
X00024854Y00023042D01*
X00024701Y00023106D01*
X00024548Y00023166D01*
X00024393Y00023222D01*
X00024237Y00023275D01*
X00024079Y00023324D01*
X00023921Y00023369D01*
X00023761Y00023411D01*
X00023601Y00023449D01*
X00023439Y00023483D01*
X00023277Y00023514D01*
X00023222Y00023523D01*
X00023193Y00023529D01*
X00023165Y00023537D01*
X00023138Y00023547D01*
X00023111Y00023558D01*
X00023086Y00023572D01*
X00023062Y00023588D01*
X00023038Y00023605D01*
X00023016Y00023624D01*
X00022996Y00023645D01*
X00022977Y00023667D01*
X00022960Y00023690D01*
X00022944Y00023715D01*
X00022931Y00023740D01*
X00022919Y00023767D01*
X00022910Y00023794D01*
X00022902Y00023822D01*
X00022896Y00023851D01*
X00022893Y00023879D01*
X00022892Y00023908D01*
X00022893Y00023937D01*
X00022955Y00024878D01*
X00022957Y00024904D01*
X00022962Y00024930D01*
X00022968Y00024955D01*
X00022975Y00024980D01*
X00022985Y00025005D01*
X00022996Y00025029D01*
X00023008Y00025052D01*
X00023022Y00025074D01*
X00023038Y00025095D01*
X00023055Y00025115D01*
X00023073Y00025134D01*
X00023092Y00025152D01*
X00023113Y00025168D01*
X00023134Y00025183D01*
X00023157Y00025196D01*
X00023180Y00025208D01*
X00023204Y00025219D01*
X00023229Y00025227D01*
X00023254Y00025234D01*
X00023280Y00025240D01*
X00027559Y00025984D01*
X00027559Y00037007D01*
X00018503Y00038582D01*
X00010629Y00038582D01*
X00010465Y00038580D01*
X00010300Y00038574D01*
X00010135Y00038565D01*
X00009971Y00038551D01*
X00009807Y00038534D01*
X00009643Y00038513D01*
X00009480Y00038488D01*
X00009318Y00038460D01*
X00009156Y00038427D01*
X00008995Y00038391D01*
X00008835Y00038351D01*
X00008676Y00038308D01*
X00008518Y00038260D01*
X00008361Y00038209D01*
X00008206Y00038155D01*
X00008051Y00038097D01*
X00007898Y00038035D01*
X00007747Y00037970D01*
X00007597Y00037901D01*
X00007449Y00037828D01*
X00007302Y00037753D01*
X00007158Y00037674D01*
X00007015Y00037591D01*
X00006874Y00037505D01*
X00006735Y00037416D01*
X00006599Y00037324D01*
X00006464Y00037229D01*
X00006332Y00037130D01*
X00006202Y00037029D01*
X00006074Y00036924D01*
X00005949Y00036817D01*
X00005827Y00036706D01*
X00005707Y00036593D01*
X00005589Y00036477D01*
X00005475Y00036359D01*
X00005363Y00036237D01*
X00005254Y00036114D01*
X00005148Y00035987D01*
X00005045Y00035859D01*
X00004945Y00035727D01*
X00004848Y00035594D01*
X00004754Y00035458D01*
X00004664Y00035321D01*
X00004576Y00035181D01*
X00004492Y00035039D01*
X00004411Y00034895D01*
X00004334Y00034749D01*
X00004260Y00034602D01*
X00004189Y00034453D01*
X00004122Y00034302D01*
X00004059Y00034150D01*
X00003999Y00033997D01*
X00003942Y00033842D01*
X00003890Y00033685D01*
X00003841Y00033528D01*
X00003795Y00033370D01*
X00003753Y00033210D01*
X00003715Y00033050D01*
X00003681Y00032888D01*
X00003650Y00032726D01*
X00003624Y00032563D01*
X00003601Y00032400D01*
X00003582Y00032236D01*
X00003566Y00032072D01*
X00003555Y00031908D01*
X00003547Y00031743D01*
X00003543Y00031578D01*
X00003543Y00031413D01*
X00003547Y00031248D01*
X00003555Y00031084D01*
X00003566Y00030919D01*
X00003582Y00030755D01*
X00003601Y00030591D01*
X00003624Y00030428D01*
X00003650Y00030265D01*
X00003681Y00030103D01*
X00003715Y00029942D01*
X00003753Y00029781D01*
X00003795Y00029622D01*
X00003841Y00029463D01*
X00003890Y00029306D01*
X00003942Y00029149D01*
X00003999Y00028994D01*
X00004059Y00028841D01*
X00004122Y00028689D01*
X00004189Y00028538D01*
X00004260Y00028389D01*
X00004334Y00028242D01*
X00004411Y00028096D01*
X00004492Y00027952D01*
X00004576Y00027810D01*
X00004664Y00027671D01*
X00004754Y00027533D01*
X00004848Y00027397D01*
X00004945Y00027264D01*
X00005045Y00027133D01*
X00005148Y00027004D01*
X00005254Y00026878D01*
X00005363Y00026754D01*
X00005475Y00026632D01*
X00005589Y00026514D01*
X00005707Y00026398D01*
X00005827Y00026285D01*
X00005949Y00026174D01*
X00006074Y00026067D01*
X00006202Y00025962D01*
X00006332Y00025861D01*
X00006464Y00025762D01*
X00006599Y00025667D01*
X00006735Y00025575D01*
X00006839Y00025508D01*
X00006865Y00025490D01*
X00006889Y00025470D01*
X00006912Y00025448D01*
X00006933Y00025425D01*
X00006951Y00025399D01*
X00006968Y00025373D01*
X00006983Y00025345D01*
X00006995Y00025316D01*
X00007005Y00025286D01*
X00007012Y00025255D01*
X00007017Y00025224D01*
X00007020Y00025193D01*
X00007020Y00025161D01*
X00007018Y00025130D01*
X00007013Y00025099D01*
X00007005Y00025068D01*
X00006995Y00025038D01*
X00006983Y00025009D01*
X00006968Y00024981D01*
X00006952Y00024955D01*
X00006378Y00024115D01*
X00006368Y00024101D01*
X00006358Y00024088D01*
X00006347Y00024076D01*
X00006336Y00024064D01*
X00006325Y00024052D01*
X00006313Y00024041D01*
X00006300Y00024031D01*
X00006287Y00024021D01*
X00006274Y00024011D01*
X00006260Y00024002D01*
X00006246Y00023994D01*
X00006232Y00023986D01*
X00006217Y00023979D01*
X00006202Y00023972D01*
X00006187Y00023967D01*
X00006171Y00023961D01*
X00006155Y00023957D01*
X00006140Y00023953D01*
X00006123Y00023949D01*
X00006107Y00023947D01*
X00006018Y00023934D01*
X00005856Y00023908D01*
X00005693Y00023877D01*
X00005532Y00023843D01*
X00005372Y00023805D01*
X00005212Y00023763D01*
X00005054Y00023718D01*
X00004896Y00023668D01*
X00004740Y00023616D01*
X00004585Y00023559D01*
X00004431Y00023499D01*
X00004279Y00023436D01*
X00004129Y00023369D01*
X00003980Y00023298D01*
X00003832Y00023224D01*
X00003687Y00023147D01*
X00003543Y00023066D01*
X00003401Y00022982D01*
X00003261Y00022894D01*
X00003123Y00022804D01*
X00002988Y00022710D01*
X00002854Y00022613D01*
X00002723Y00022513D01*
X00002594Y00022410D01*
X00002468Y00022304D01*
X00002344Y00022195D01*
X00002223Y00022083D01*
X00002104Y00021969D01*
X00001988Y00021851D01*
X00001875Y00021731D01*
X00001765Y00021609D01*
X00001657Y00021484D01*
X00001553Y00021356D01*
X00001451Y00021226D01*
X00001353Y00021094D01*
X00001258Y00020960D01*
X00001165Y00020823D01*
X00001076Y00020684D01*
X00000991Y00020543D01*
X00000908Y00020400D01*
X00000829Y00020256D01*
X00000753Y00020109D01*
X00000681Y00019961D01*
X00000612Y00019811D01*
X00000547Y00019660D01*
X00000485Y00019507D01*
X00000427Y00019352D01*
X00000372Y00019197D01*
X00000321Y00019040D01*
X00000274Y00018882D01*
X00000230Y00018723D01*
X00000191Y00018563D01*
X00000154Y00018402D01*
X00000122Y00018240D01*
X00000093Y00018078D01*
X00000068Y00017915D01*
X00000047Y00017751D01*
X00000030Y00017587D01*
X00000017Y00017423D01*
X00000007Y00017258D01*
X00000001Y00017094D01*
X00000000Y00016929D01*
X00000000Y00009055D01*
X00001574Y00000000D01*
X00012598Y00000000D01*
X00014173Y00009055D01*
X00014173Y00011172D01*
X00014178Y00011233D01*
X00014192Y00011294D01*
X00014216Y00011351D01*
X00014248Y00011403D01*
X00014288Y00011450D01*
X00014335Y00011490D01*
X00014388Y00011523D01*
X00014445Y00011546D01*
X00014505Y00011561D01*
X00014566Y00011566D01*
X00014628Y00011561D01*
X00014688Y00011546D01*
X00014745Y00011523D01*
X00014798Y00011490D01*
X00014845Y00011450D01*
X00014885Y00011403D01*
X00014917Y00011351D01*
X00014941Y00011294D01*
X00014955Y00011233D01*
X00014960Y00011172D01*
X00014960Y00010943D01*
X00021191Y00023569D02*
X00021191Y00023569D01*
X00021161Y00023567D01*
X00021130Y00023567D01*
X00021100Y00023569D01*
X00021070Y00023574D01*
X00021041Y00023581D01*
X00021012Y00023590D01*
X00020984Y00023601D01*
X00020957Y00023614D01*
X00020931Y00023630D01*
X00020906Y00023647D01*
X00020883Y00023666D01*
X00020861Y00023687D01*
X00020841Y00023710D01*
X00020823Y00023734D01*
X00020807Y00023759D01*
X00020792Y00023786D01*
X00020780Y00023813D01*
X00020770Y00023842D01*
X00020762Y00023871D01*
X00020756Y00023900D01*
X00020680Y00024396D01*
X00020676Y00024426D01*
X00020675Y00024456D01*
X00020676Y00024487D01*
X00020680Y00024517D01*
X00020686Y00024547D01*
X00020694Y00024577D01*
X00020705Y00024605D01*
X00020717Y00024633D01*
X00020732Y00024660D01*
X00020749Y00024685D01*
X00020768Y00024709D01*
X00020788Y00024732D01*
X00020811Y00024753D01*
X00020834Y00024772D01*
X00020860Y00024789D01*
X00020886Y00024804D01*
X00020914Y00024817D01*
X00020942Y00024828D01*
X00020972Y00024837D01*
X00021001Y00024843D01*
X00021370Y00024907D01*
X00021400Y00024911D01*
X00021430Y00024913D01*
X00021460Y00024913D01*
X00021490Y00024910D01*
X00021520Y00024904D01*
X00021549Y00024897D01*
X00021578Y00024887D01*
X00021605Y00024875D01*
X00021632Y00024862D01*
X00021658Y00024846D01*
X00021682Y00024828D01*
X00021705Y00024808D01*
X00021726Y00024787D01*
X00021746Y00024764D01*
X00021764Y00024739D01*
X00021780Y00024714D01*
X00021794Y00024687D01*
X00021805Y00024659D01*
X00021815Y00024630D01*
X00021822Y00024601D01*
X00021933Y00024080D01*
X00021938Y00024046D01*
X00021941Y00024013D01*
X00021941Y00023979D01*
X00021938Y00023946D01*
X00021932Y00023913D01*
X00021923Y00023880D01*
X00021912Y00023848D01*
X00021897Y00023818D01*
X00021881Y00023789D01*
X00021862Y00023761D01*
X00021840Y00023735D01*
X00021817Y00023711D01*
X00021791Y00023689D01*
X00021764Y00023669D01*
X00021735Y00023652D01*
X00021705Y00023637D01*
X00021674Y00023625D01*
X00021641Y00023616D01*
X00021608Y00023609D01*
X00021575Y00023605D01*
X00021470Y00023598D01*
X00021306Y00023583D01*
X00021191Y00023569D01*
X00010157Y00024425D02*
X00010157Y00024425D01*
X00010197Y00024421D01*
X00010237Y00024412D01*
X00010275Y00024400D01*
X00010312Y00024383D01*
X00010347Y00024363D01*
X00010380Y00024340D01*
X00010410Y00024313D01*
X00010437Y00024284D01*
X00010461Y00024251D01*
X00010482Y00024217D01*
X00010499Y00024180D01*
X00010512Y00024142D01*
X00010522Y00024103D01*
X00010527Y00024063D01*
X00010528Y00024023D01*
X00010525Y00023983D01*
X00010518Y00023943D01*
X00010507Y00023904D01*
X00010492Y00023867D01*
X00010473Y00023831D01*
X00010345Y00023614D01*
X00010329Y00023591D01*
X00010313Y00023568D01*
X00010294Y00023547D01*
X00010274Y00023527D01*
X00010253Y00023508D01*
X00010230Y00023492D01*
X00010207Y00023476D01*
X00010182Y00023463D01*
X00010156Y00023451D01*
X00010130Y00023441D01*
X00010103Y00023434D01*
X00010075Y00023428D01*
X00010047Y00023424D01*
X00010019Y00023422D01*
X00009991Y00023422D01*
X00009963Y00023424D01*
X00009935Y00023428D01*
X00009908Y00023434D01*
X00009881Y00023442D01*
X00009854Y00023452D01*
X00009741Y00023499D01*
X00009587Y00023559D01*
X00009432Y00023616D01*
X00009276Y00023668D01*
X00009119Y00023718D01*
X00008960Y00023763D01*
X00008801Y00023805D01*
X00008640Y00023843D01*
X00008479Y00023877D01*
X00008317Y00023908D01*
X00008287Y00023913D01*
X00008277Y00023914D01*
X00008268Y00023916D01*
X00008259Y00023918D01*
X00008250Y00023920D01*
X00008241Y00023923D01*
X00008232Y00023926D01*
X00008223Y00023929D01*
X00008214Y00023932D01*
X00008205Y00023935D01*
X00008197Y00023939D01*
X00008188Y00023942D01*
X00008180Y00023946D01*
X00008171Y00023951D01*
X00008163Y00023955D01*
X00008155Y00023959D01*
X00008147Y00023964D01*
X00008139Y00023969D01*
X00008131Y00023974D01*
X00008123Y00023980D01*
X00008115Y00023985D01*
X00007945Y00024112D01*
X00007902Y00024149D01*
X00007866Y00024191D01*
X00007835Y00024238D01*
X00007812Y00024288D01*
X00007796Y00024342D01*
X00007787Y00024397D01*
X00007787Y00024453D01*
X00007794Y00024508D01*
X00007809Y00024562D01*
X00007832Y00024613D01*
X00007862Y00024660D01*
X00007898Y00024703D01*
X00007940Y00024740D01*
X00007986Y00024771D01*
X00008036Y00024795D01*
X00008090Y00024811D01*
X00008145Y00024820D01*
X00008201Y00024821D01*
X00008256Y00024814D01*
X00008310Y00024800D01*
X00008361Y00024782D01*
X00008518Y00024731D01*
X00008676Y00024683D01*
X00008835Y00024640D01*
X00008995Y00024600D01*
X00009156Y00024564D01*
X00009318Y00024531D01*
X00009480Y00024503D01*
X00009643Y00024478D01*
X00009807Y00024457D01*
X00009971Y00024440D01*
X00010135Y00024426D01*
X00010157Y00024425D01*
X00014173Y00015564D02*
X00014173Y00015564D01*
X00014178Y00015626D01*
X00014192Y00015686D01*
X00014216Y00015743D01*
X00014248Y00015796D01*
X00014288Y00015843D01*
X00014335Y00015883D01*
X00014388Y00015915D01*
X00014445Y00015939D01*
X00014505Y00015953D01*
X00014566Y00015958D01*
X00014628Y00015953D01*
X00014688Y00015939D01*
X00014745Y00015915D01*
X00014798Y00015883D01*
X00014845Y00015843D01*
X00014885Y00015796D01*
X00014917Y00015743D01*
X00014941Y00015686D01*
X00014955Y00015626D01*
X00014960Y00015564D01*
X00014960Y00015378D01*
X00014960Y00013299D01*
X00014960Y00013070D01*
X00014955Y00013008D01*
X00014941Y00012948D01*
X00014917Y00012891D01*
X00014885Y00012838D01*
X00014845Y00012791D01*
X00014798Y00012751D01*
X00014745Y00012719D01*
X00014688Y00012695D01*
X00014628Y00012681D01*
X00014566Y00012676D01*
X00014505Y00012681D01*
X00014445Y00012695D01*
X00014388Y00012719D01*
X00014335Y00012751D01*
X00014288Y00012791D01*
X00014248Y00012838D01*
X00014216Y00012891D01*
X00014192Y00012948D01*
X00014178Y00013008D01*
X00014173Y00013070D01*
X00014173Y00015564D01*
X00015058Y00017708D02*
X00015058Y00017708D01*
X00015057Y00017701D01*
X00015056Y00017695D01*
X00015054Y00017688D01*
X00015052Y00017681D01*
X00015051Y00017674D01*
X00015049Y00017668D01*
X00015047Y00017661D01*
X00015045Y00017654D01*
X00015042Y00017648D01*
X00015040Y00017641D01*
X00015038Y00017635D01*
X00015035Y00017628D01*
X00015032Y00017622D01*
X00015030Y00017615D01*
X00015027Y00017609D01*
X00015024Y00017603D01*
X00015021Y00017597D01*
X00015017Y00017590D01*
X00015014Y00017584D01*
X00015011Y00017578D01*
X00014880Y00017354D01*
X00014852Y00017313D01*
X00014820Y00017275D01*
X00014782Y00017242D01*
X00014741Y00017214D01*
X00014697Y00017191D01*
X00014650Y00017175D01*
X00014601Y00017164D01*
X00014552Y00017159D01*
X00014502Y00017161D01*
X00014453Y00017169D01*
X00014405Y00017183D01*
X00014359Y00017203D01*
X00014317Y00017228D01*
X00014277Y00017259D01*
X00014243Y00017294D01*
X00014212Y00017334D01*
X00014187Y00017377D01*
X00014168Y00017423D01*
X00014155Y00017471D01*
X00014148Y00017520D01*
X00014142Y00017587D01*
X00014125Y00017751D01*
X00014104Y00017915D01*
X00014079Y00018078D01*
X00014050Y00018240D01*
X00014018Y00018402D01*
X00013982Y00018563D01*
X00013942Y00018723D01*
X00013898Y00018882D01*
X00013851Y00019040D01*
X00013800Y00019197D01*
X00013745Y00019352D01*
X00013687Y00019507D01*
X00013625Y00019660D01*
X00013560Y00019811D01*
X00013491Y00019961D01*
X00013419Y00020109D01*
X00013343Y00020256D01*
X00013264Y00020400D01*
X00013182Y00020543D01*
X00013096Y00020684D01*
X00013007Y00020823D01*
X00012915Y00020960D01*
X00012819Y00021094D01*
X00012721Y00021226D01*
X00012619Y00021356D01*
X00012515Y00021484D01*
X00012407Y00021609D01*
X00012297Y00021731D01*
X00012184Y00021851D01*
X00012068Y00021969D01*
X00011949Y00022083D01*
X00011828Y00022195D01*
X00011704Y00022304D01*
X00011578Y00022410D01*
X00011449Y00022513D01*
X00011443Y00022518D01*
X00011426Y00022531D01*
X00011410Y00022546D01*
X00011395Y00022561D01*
X00011380Y00022577D01*
X00011367Y00022595D01*
X00011354Y00022612D01*
X00011343Y00022631D01*
X00011332Y00022650D01*
X00011323Y00022669D01*
X00011314Y00022689D01*
X00011307Y00022710D01*
X00011301Y00022731D01*
X00011296Y00022752D01*
X00011292Y00022773D01*
X00011290Y00022795D01*
X00011288Y00022817D01*
X00011288Y00022838D01*
X00011289Y00022860D01*
X00011291Y00022882D01*
X00011295Y00022903D01*
X00011516Y00024088D01*
X00011522Y00024114D01*
X00011530Y00024140D01*
X00011540Y00024166D01*
X00011551Y00024191D01*
X00011564Y00024215D01*
X00011579Y00024238D01*
X00011595Y00024260D01*
X00011613Y00024281D01*
X00011632Y00024300D01*
X00011652Y00024318D01*
X00011674Y00024335D01*
X00011696Y00024350D01*
X00011720Y00024364D01*
X00011744Y00024375D01*
X00011770Y00024386D01*
X00011796Y00024394D01*
X00011822Y00024400D01*
X00011849Y00024405D01*
X00011876Y00024408D01*
X00011903Y00024409D01*
X00018503Y00024409D01*
X00019020Y00024499D01*
X00019048Y00024503D01*
X00019077Y00024504D01*
X00019106Y00024504D01*
X00019135Y00024502D01*
X00019163Y00024497D01*
X00019191Y00024491D01*
X00019219Y00024482D01*
X00019245Y00024471D01*
X00019271Y00024459D01*
X00019296Y00024445D01*
X00019320Y00024428D01*
X00019343Y00024411D01*
X00019364Y00024391D01*
X00019384Y00024370D01*
X00019402Y00024348D01*
X00019418Y00024324D01*
X00019433Y00024299D01*
X00019446Y00024274D01*
X00019457Y00024247D01*
X00019466Y00024220D01*
X00019647Y00023589D01*
X00019654Y00023560D01*
X00019659Y00023532D01*
X00019662Y00023503D01*
X00019662Y00023474D01*
X00019661Y00023445D01*
X00019657Y00023416D01*
X00019651Y00023387D01*
X00019643Y00023359D01*
X00019633Y00023332D01*
X00019621Y00023305D01*
X00019607Y00023280D01*
X00019592Y00023255D01*
X00019574Y00023232D01*
X00019555Y00023210D01*
X00019534Y00023190D01*
X00019512Y00023171D01*
X00019489Y00023154D01*
X00019464Y00023138D01*
X00019438Y00023125D01*
X00019412Y00023113D01*
X00019392Y00023106D01*
X00019240Y00023042D01*
X00019089Y00022975D01*
X00018940Y00022904D01*
X00018793Y00022830D01*
X00018647Y00022753D01*
X00018503Y00022672D01*
X00018362Y00022588D01*
X00018222Y00022501D01*
X00018084Y00022410D01*
X00017948Y00022316D01*
X00017815Y00022219D01*
X00017684Y00022119D01*
X00017555Y00022016D01*
X00017429Y00021910D01*
X00017305Y00021801D01*
X00017184Y00021690D01*
X00017065Y00021575D01*
X00016949Y00021458D01*
X00016836Y00021338D01*
X00016726Y00021215D01*
X00016618Y00021090D01*
X00016514Y00020963D01*
X00016412Y00020833D01*
X00016314Y00020700D01*
X00016218Y00020566D01*
X00016126Y00020429D01*
X00016037Y00020290D01*
X00015951Y00020149D01*
X00015869Y00020007D01*
X00015790Y00019862D01*
X00015714Y00019715D01*
X00015642Y00019567D01*
X00015573Y00019417D01*
X00015507Y00019266D01*
X00015446Y00019113D01*
X00015388Y00018959D01*
X00015333Y00018803D01*
X00015282Y00018646D01*
X00015235Y00018488D01*
X00015191Y00018329D01*
X00015151Y00018169D01*
X00015115Y00018008D01*
X00015083Y00017847D01*
X00015058Y00017708D01*
M02*