%MOIN*%
%OFA0B0*%
%FSLAX46Y46*%
%IPPOS*%
%LPD*%
%ADD10R,0.066929133858267723X0.066929133858267723*%
%ADD11O,0.066929133858267723X0.066929133858267723*%
%ADD12C,0.031496062992125991*%
%ADD13C,0.01968503937007874*%
%ADD14C,0.00984251968503937*%
%ADD15C,0.015748031496062995*%
%ADD26R,0.066929133858267723X0.066929133858267723*%
%ADD27O,0.066929133858267723X0.066929133858267723*%
%ADD28C,0.031496062992125991*%
%ADD29C,0.01968503937007874*%
%ADD30C,0.00984251968503937*%
%ADD31C,0.015748031496062995*%
%ADD32R,0.066929133858267723X0.066929133858267723*%
%ADD33O,0.066929133858267723X0.066929133858267723*%
%ADD34C,0.031496062992125991*%
%ADD35C,0.01968503937007874*%
%ADD36C,0.00984251968503937*%
%ADD37C,0.015748031496062995*%
G01*
D10*
X-0004094488Y0004055118D02*
X0000314960Y0000118110D03*
D11*
X0000414960Y0000118110D03*
X0000514960Y0000118110D03*
X0000614960Y0000118110D03*
X0000714960Y0000118110D03*
X0000814960Y0000118110D03*
X0000914960Y0000118110D03*
X0001014960Y0000118110D03*
X0001114960Y0000118110D03*
D12*
X0000450511Y0000510118D03*
X0000455511Y0000280118D03*
X0000960511Y0000600118D03*
X0001070511Y0000335118D03*
X0000935039Y0000255905D03*
X0000885511Y0000905118D03*
X0000880511Y0000601574D03*
X0000832598Y0000474679D03*
X0000815511Y0000925118D03*
X0000695511Y0000470118D03*
X0000790511Y0000790118D03*
X0000775511Y0000470118D03*
X0000760511Y0000925118D03*
D13*
X0000450511Y0000510118D02*
X0000450511Y0000285118D01*
D14*
X0000450511Y0000285118D02*
X0000455511Y0000280118D01*
D15*
X0000960511Y0000577847D02*
X0001070511Y0000467847D01*
X0000960511Y0000600118D02*
X0000960511Y0000577847D01*
X0001070511Y0000467847D02*
X0001070511Y0000335118D01*
D14*
X0000912768Y0000255905D02*
X0000863555Y0000206692D01*
X0000935039Y0000255905D02*
X0000912768Y0000255905D01*
X0000314960Y0000161417D02*
X0000314960Y0000118110D01*
X0000360236Y0000206692D02*
X0000314960Y0000161417D01*
X0000863555Y0000206692D02*
X0000360236Y0000206692D01*
X0000885511Y0000905118D02*
X0000885511Y0000606574D01*
X0000885511Y0000606574D02*
X0000880511Y0000601574D01*
X0000832598Y0000908031D02*
X0000815511Y0000925118D01*
X0000832598Y0000855118D02*
X0000832598Y0000908031D01*
X0000832598Y0000855118D02*
X0000832598Y0000898031D01*
X0000832598Y0000474679D02*
X0000832598Y0000855118D01*
X0000790511Y0000757847D02*
X0000780511Y0000747847D01*
X0000790511Y0000780118D02*
X0000790511Y0000757847D01*
X0000780511Y0000747847D02*
X0000780511Y0000520118D01*
X0000804055Y0000456417D02*
X0000777755Y0000430118D01*
X0000780511Y0000520118D02*
X0000804055Y0000496574D01*
X0000804055Y0000496574D02*
X0000804055Y0000456417D01*
X0000777755Y0000430118D02*
X0000735511Y0000430118D01*
X0000735511Y0000430118D02*
X0000695511Y0000470118D01*
X0000790511Y0000790118D02*
X0000790511Y0000757847D01*
X0000760511Y0000879337D02*
X0000760511Y0000485118D01*
X0000760511Y0000485118D02*
X0000775511Y0000470118D01*
X0000760511Y0000879337D02*
X0000760511Y0000925118D01*
G04 next file*
G04 #@! TF.GenerationSoftware,KiCad,Pcbnew,(5.0.0)*
G04 #@! TF.CreationDate,2019-07-31T00:08:18+03:00*
G04 #@! TF.ProjectId,ST7789_V_FCP_Board,5354373738395F565F4643505F426F61,rev?*
G04 #@! TF.SameCoordinates,Original*
G04 #@! TF.FileFunction,Copper,L2,Bot,Signal*
G04 #@! TF.FilePolarity,Positive*
G04 Gerber Fmt 4.6, Leading zero omitted, Abs format (unit mm)*
G04 Created by KiCad (PCBNEW (5.0.0)) date 07/31/19 00:08:18*
G01*
G04 APERTURE LIST*
G04 #@! TA.AperFunction,ComponentPad*
G04 #@! TD*
G04 #@! TA.AperFunction,ComponentPad*
G04 #@! TD*
G04 #@! TA.AperFunction,ViaPad*
G04 #@! TD*
G04 #@! TA.AperFunction,Conductor*
G04 #@! TD*
G04 #@! TA.AperFunction,Conductor*
G04 #@! TD*
G04 #@! TA.AperFunction,Conductor*
G04 #@! TD*
G04 APERTURE END LIST*
D26*
G04 #@! TO.P,J1,1*
G04 #@! TO.N,VCC*
X-0002598425Y0004015748D02*
X0001811023Y0000078740D03*
D27*
G04 #@! TO.P,J1,2*
G04 #@! TO.N,GND*
X0001911023Y0000078740D03*
G04 #@! TO.P,J1,3*
G04 #@! TO.N,/RS*
X0002011023Y0000078740D03*
G04 #@! TO.P,J1,4*
G04 #@! TO.N,/SDA*
X0002111023Y0000078740D03*
G04 #@! TO.P,J1,5*
G04 #@! TO.N,/SCLK*
X0002211023Y0000078740D03*
G04 #@! TO.P,J1,6*
G04 #@! TO.N,/FMARK*
X0002311023Y0000078740D03*
G04 #@! TO.P,J1,7*
G04 #@! TO.N,/CS*
X0002411023Y0000078740D03*
G04 #@! TO.P,J1,8*
G04 #@! TO.N,/RESET*
X0002511023Y0000078740D03*
G04 #@! TO.P,J1,9*
G04 #@! TO.N,N/C*
X0002611023Y0000078740D03*
G04 #@! TD*
D28*
G04 #@! TO.N,GND*
X0001946574Y0000470747D03*
X0001951574Y0000240747D03*
X0002456574Y0000560747D03*
X0002566574Y0000295748D03*
G04 #@! TO.N,VCC*
X0002431102Y0000216535D03*
G04 #@! TO.N,/1.8V*
X0002381574Y0000865747D03*
X0002376574Y0000562204D03*
G04 #@! TO.N,/CS_1.8*
X0002328661Y0000435309D03*
X0002311574Y0000885748D03*
G04 #@! TO.N,/RS_1.8*
X0002191574Y0000430748D03*
X0002286574Y0000750748D03*
G04 #@! TO.N,/FMARK_1.8*
X0002271574Y0000430748D03*
X0002256574Y0000885748D03*
G04 #@! TD*
D29*
G04 #@! TO.N,GND*
X0001946574Y0000470747D02*
X0001946574Y0000245748D01*
D30*
X0001946574Y0000245748D02*
X0001951574Y0000240747D01*
D31*
X0002456574Y0000538476D02*
X0002566574Y0000428476D01*
X0002456574Y0000560747D02*
X0002456574Y0000538476D01*
X0002566574Y0000428476D02*
X0002566574Y0000295748D01*
D30*
G04 #@! TO.N,VCC*
X0002408831Y0000216535D02*
X0002359618Y0000167322D01*
X0002431102Y0000216535D02*
X0002408831Y0000216535D01*
X0001811023Y0000122047D02*
X0001811023Y0000078740D01*
X0001856299Y0000167322D02*
X0001811023Y0000122047D01*
X0002359618Y0000167322D02*
X0001856299Y0000167322D01*
G04 #@! TO.N,/1.8V*
X0002381574Y0000865747D02*
X0002381574Y0000567204D01*
X0002381574Y0000567204D02*
X0002376574Y0000562204D01*
G04 #@! TO.N,/CS_1.8*
X0002328661Y0000868661D02*
X0002311574Y0000885748D01*
X0002328661Y0000815748D02*
X0002328661Y0000868661D01*
X0002328661Y0000815748D02*
X0002328661Y0000858661D01*
X0002328661Y0000435309D02*
X0002328661Y0000815748D01*
G04 #@! TO.N,/RS_1.8*
X0002286574Y0000718476D02*
X0002276574Y0000708476D01*
X0002286574Y0000740747D02*
X0002286574Y0000718476D01*
X0002276574Y0000708476D02*
X0002276574Y0000480747D01*
X0002300118Y0000417047D02*
X0002273818Y0000390747D01*
X0002276574Y0000480747D02*
X0002300118Y0000457204D01*
X0002300118Y0000457204D02*
X0002300118Y0000417047D01*
X0002273818Y0000390747D02*
X0002231574Y0000390747D01*
X0002231574Y0000390747D02*
X0002191574Y0000430748D01*
X0002286574Y0000750748D02*
X0002286574Y0000718476D01*
G04 #@! TO.N,/FMARK_1.8*
X0002256574Y0000839966D02*
X0002256574Y0000445748D01*
X0002256574Y0000445748D02*
X0002271574Y0000430748D01*
X0002256574Y0000839966D02*
X0002256574Y0000885748D01*
G04 #@! TD*
G04 next file*
G04 #@! TF.GenerationSoftware,KiCad,Pcbnew,(5.0.0)*
G04 #@! TF.CreationDate,2019-07-31T00:08:18+03:00*
G04 #@! TF.ProjectId,ST7789_V_FCP_Board,5354373738395F565F4643505F426F61,rev?*
G04 #@! TF.SameCoordinates,Original*
G04 #@! TF.FileFunction,Copper,L2,Bot,Signal*
G04 #@! TF.FilePolarity,Positive*
G04 Gerber Fmt 4.6, Leading zero omitted, Abs format (unit mm)*
G04 Created by KiCad (PCBNEW (5.0.0)) date 07/31/19 00:08:18*
G01*
G04 APERTURE LIST*
G04 #@! TA.AperFunction,ComponentPad*
G04 #@! TD*
G04 #@! TA.AperFunction,ComponentPad*
G04 #@! TD*
G04 #@! TA.AperFunction,ViaPad*
G04 #@! TD*
G04 #@! TA.AperFunction,Conductor*
G04 #@! TD*
G04 #@! TA.AperFunction,Conductor*
G04 #@! TD*
G04 #@! TA.AperFunction,Conductor*
G04 #@! TD*
G04 APERTURE END LIST*
D32*
G04 #@! TO.P,J1,1*
G04 #@! TO.N,VCC*
X-0001299212Y-0001653543D02*
X0002637795Y0002755905D03*
D33*
G04 #@! TO.P,J1,2*
G04 #@! TO.N,GND*
X0002637795Y0002855905D03*
G04 #@! TO.P,J1,3*
G04 #@! TO.N,/RS*
X0002637795Y0002955905D03*
G04 #@! TO.P,J1,4*
G04 #@! TO.N,/SDA*
X0002637795Y0003055905D03*
G04 #@! TO.P,J1,5*
G04 #@! TO.N,/SCLK*
X0002637795Y0003155905D03*
G04 #@! TO.P,J1,6*
G04 #@! TO.N,/FMARK*
X0002637795Y0003255905D03*
G04 #@! TO.P,J1,7*
G04 #@! TO.N,/CS*
X0002637795Y0003355905D03*
G04 #@! TO.P,J1,8*
G04 #@! TO.N,/RESET*
X0002637795Y0003455905D03*
G04 #@! TO.P,J1,9*
G04 #@! TO.N,N/C*
X0002637795Y0003555905D03*
G04 #@! TD*
D34*
G04 #@! TO.N,GND*
X0002245787Y0002891456D03*
X0002475787Y0002896456D03*
X0002155787Y0003401456D03*
X0002420787Y0003511456D03*
G04 #@! TO.N,VCC*
X0002500000Y0003375984D03*
G04 #@! TO.N,/1.8V*
X0001850787Y0003326456D03*
X0002154330Y0003321456D03*
G04 #@! TO.N,/CS_1.8*
X0002281225Y0003273543D03*
X0001830787Y0003256456D03*
G04 #@! TO.N,/RS_1.8*
X0002285787Y0003136456D03*
X0001965787Y0003231456D03*
G04 #@! TO.N,/FMARK_1.8*
X0002285787Y0003216456D03*
X0001830787Y0003201456D03*
G04 #@! TD*
D35*
G04 #@! TO.N,GND*
X0002245787Y0002891456D02*
X0002470787Y0002891456D01*
D36*
X0002470787Y0002891456D02*
X0002475787Y0002896456D01*
D37*
X0002178058Y0003401456D02*
X0002288058Y0003511456D01*
X0002155787Y0003401456D02*
X0002178058Y0003401456D01*
X0002288058Y0003511456D02*
X0002420787Y0003511456D01*
D36*
G04 #@! TO.N,VCC*
X0002500000Y0003353713D02*
X0002549212Y0003304500D01*
X0002500000Y0003375984D02*
X0002500000Y0003353713D01*
X0002594488Y0002755905D02*
X0002637795Y0002755905D01*
X0002549212Y0002801181D02*
X0002594488Y0002755905D01*
X0002549212Y0003304500D02*
X0002549212Y0002801181D01*
G04 #@! TO.N,/1.8V*
X0001850787Y0003326456D02*
X0002149330Y0003326456D01*
X0002149330Y0003326456D02*
X0002154330Y0003321456D01*
G04 #@! TO.N,/CS_1.8*
X0001847874Y0003273543D02*
X0001830787Y0003256456D01*
X0001900787Y0003273543D02*
X0001847874Y0003273543D01*
X0001900787Y0003273543D02*
X0001857874Y0003273543D01*
X0002281225Y0003273543D02*
X0001900787Y0003273543D01*
G04 #@! TO.N,/RS_1.8*
X0001998058Y0003231456D02*
X0002008058Y0003221456D01*
X0001975787Y0003231456D02*
X0001998058Y0003231456D01*
X0002008058Y0003221456D02*
X0002235787Y0003221456D01*
X0002299488Y0003245000D02*
X0002325787Y0003218700D01*
X0002235787Y0003221456D02*
X0002259330Y0003245000D01*
X0002259330Y0003245000D02*
X0002299488Y0003245000D01*
X0002325787Y0003218700D02*
X0002325787Y0003176456D01*
X0002325787Y0003176456D02*
X0002285787Y0003136456D01*
X0001965787Y0003231456D02*
X0001998058Y0003231456D01*
G04 #@! TO.N,/FMARK_1.8*
X0001876568Y0003201456D02*
X0002270787Y0003201456D01*
X0002270787Y0003201456D02*
X0002285787Y0003216456D01*
X0001876568Y0003201456D02*
X0001830787Y0003201456D01*
G04 #@! TD*
M02*