%
M48
METRIC,000.000
T01C0.40
T02C1.00
T10C0.50
%
T01
X011442Y012957
X011569Y007115
X017665Y011941
X019317Y023498
X019697Y011941
X020078Y020069
X020714Y023498
X021148Y012057
X022364Y015281
X022492Y022990
X023749Y006500
X024396Y015243
X027191Y008512
X049443Y011957
X049569Y006115
X055666Y010941
X057317Y022498
X057697Y010941
X058078Y019069
X058714Y022498
X059148Y011057
X060364Y014281
X060492Y021990
X061749Y005500
X062396Y014243
X065191Y007512
X057042Y073443
X062884Y073570
X058059Y079666
X046502Y081317
X058059Y081698
X049931Y082079
X046502Y082714
X057942Y083148
X054718Y084364
X047010Y084492
X063499Y085749
X054757Y086396
X061488Y089191
T02
X007998Y003000
X010538Y003000
X013078Y003000
X015618Y003000
X018158Y003000
X020698Y003000
X023238Y003000
X025778Y003000
X028318Y003000
X045998Y002000
X048538Y002000
X051078Y002000
X053618Y002000
X056158Y002000
X058698Y002000
X061238Y002000
X063778Y002000
X066318Y002000
X066999Y069998
X066999Y072538
X066999Y075078
X066999Y077618
X066999Y080158
X066999Y082698
X066999Y085238
X066999Y087778
X066999Y090318
T10
X036250Y040262
X036250Y041262
X036250Y042262
X036246Y043262
X036206Y044261
X037867Y044066
X037782Y043069
X037750Y042070
X037750Y041070
X037750Y040070
X037750Y039070
X036250Y028262
X036250Y029262
X036250Y030262
X036250Y031262
X036250Y032262
X036250Y033262
X037750Y033070
X037750Y032070
X037750Y031070
X037750Y030070
X037750Y029070
X037750Y028070
X028675Y057800
X027849Y058363
X026993Y058879
X026110Y059347
X025202Y059768
X026191Y061768
X027191Y061750
X028191Y061750
X029191Y061750
X030191Y061750
X053413Y060064
X052427Y059896
X051452Y059673
X050491Y059397
X049546Y059070
X048970Y062089
X049956Y062260
X050941Y062431
X051926Y062603
X052911Y062774
X020397Y061091
X019402Y061195
X018404Y061244
X017404Y061239
X016406Y061179
X017656Y064322
X018529Y063835
X019427Y063396
X020348Y063005
X058397Y060091
X057402Y060195
X056404Y060244
X055404Y060239
X054882Y063117
X055867Y063288
X056852Y063459
X057837Y063631
X058823Y063802
M30