M48
;DRILL file {KiCad (5.0.0)} date 07/31/19 00:08:21
;FORMAT={-:-/ absolute / inch / decimal}
FMAT,2
INCH,TZ
T1C0.0157
T2C0.0394
%
G90
G05
M72
T1
X4.545Y-3.545
X4.55Y-3.775
X4.79Y-3.585
X4.855Y-3.13
X4.87Y-3.585
X4.885Y-3.265
X4.91Y-3.13
X4.9271Y-3.5804
X4.975Y-3.4535
X4.98Y-3.15
X5.0295Y-3.7992
X5.055Y-3.455
X5.165Y-3.72
T2
X4.4094Y-3.937
X4.5094Y-3.937
X4.6094Y-3.937
X4.7094Y-3.937
X4.8094Y-3.937
X4.9094Y-3.937
X5.0094Y-3.937
X5.1094Y-3.937
X5.2094Y-3.937
T0
M30
