G04 #@! TF.GenerationSoftware,KiCad,Pcbnew,(5.0.0)*
G04 #@! TF.CreationDate,2019-07-31T00:08:18+03:00*
G04 #@! TF.ProjectId,ST7789_V_FCP_Board,5354373738395F565F4643505F426F61,rev?*
G04 #@! TF.SameCoordinates,Original*
G04 #@! TF.FileFunction,Copper,L2,Bot,Signal*
G04 #@! TF.FilePolarity,Positive*
%FSLAX46Y46*%
G04 Gerber Fmt 4.6, Leading zero omitted, Abs format (unit mm)*
G04 Created by KiCad (PCBNEW (5.0.0)) date 07/31/19 00:08:18*
%MOMM*%
%LPD*%
G01*
G04 APERTURE LIST*
G04 #@! TA.AperFunction,ComponentPad*
%ADD10R,1.700000X1.700000*%
G04 #@! TD*
G04 #@! TA.AperFunction,ComponentPad*
%ADD11O,1.700000X1.700000*%
G04 #@! TD*
G04 #@! TA.AperFunction,ViaPad*
%ADD12C,0.800000*%
G04 #@! TD*
G04 #@! TA.AperFunction,Conductor*
%ADD13C,0.500000*%
G04 #@! TD*
G04 #@! TA.AperFunction,Conductor*
%ADD14C,0.250000*%
G04 #@! TD*
G04 #@! TA.AperFunction,Conductor*
%ADD15C,0.400000*%
G04 #@! TD*
G04 APERTURE END LIST*
D10*
G04 #@! TO.P,J1,1*
G04 #@! TO.N,VCC*
X112000000Y-100000000D03*
D11*
G04 #@! TO.P,J1,2*
G04 #@! TO.N,GND*
X114540000Y-100000000D03*
G04 #@! TO.P,J1,3*
G04 #@! TO.N,/RS*
X117080000Y-100000000D03*
G04 #@! TO.P,J1,4*
G04 #@! TO.N,/SDA*
X119620000Y-100000000D03*
G04 #@! TO.P,J1,5*
G04 #@! TO.N,/SCLK*
X122160000Y-100000000D03*
G04 #@! TO.P,J1,6*
G04 #@! TO.N,/FMARK*
X124700000Y-100000000D03*
G04 #@! TO.P,J1,7*
G04 #@! TO.N,/CS*
X127240000Y-100000000D03*
G04 #@! TO.P,J1,8*
G04 #@! TO.N,/RESET*
X129780000Y-100000000D03*
G04 #@! TO.P,J1,9*
G04 #@! TO.N,N/C*
X132320000Y-100000000D03*
G04 #@! TD*
D12*
G04 #@! TO.N,GND*
X115443000Y-90043000D03*
X115570000Y-95885000D03*
X128397000Y-87757000D03*
X131191000Y-94488000D03*
G04 #@! TO.N,VCC*
X127750000Y-96500000D03*
G04 #@! TO.N,/1.8V*
X126492000Y-80010000D03*
X126365000Y-87720000D03*
G04 #@! TO.N,/CS_1.8*
X125148001Y-90943128D03*
X124714000Y-79502000D03*
G04 #@! TO.N,/RS_1.8*
X121666000Y-91059000D03*
X124079000Y-82931000D03*
G04 #@! TO.N,/FMARK_1.8*
X123698000Y-91059000D03*
X123317000Y-79502000D03*
G04 #@! TD*
D13*
G04 #@! TO.N,GND*
X115443000Y-90043000D02*
X115443000Y-95758000D01*
D14*
X115443000Y-95758000D02*
X115570000Y-95885000D01*
D15*
X128397000Y-88322685D02*
X131191000Y-91116685D01*
X128397000Y-87757000D02*
X128397000Y-88322685D01*
X131191000Y-91116685D02*
X131191000Y-94488000D01*
D14*
G04 #@! TO.N,VCC*
X127184315Y-96500000D02*
X125934315Y-97750000D01*
X127750000Y-96500000D02*
X127184315Y-96500000D01*
X112000000Y-98900000D02*
X112000000Y-100000000D01*
X113150000Y-97750000D02*
X112000000Y-98900000D01*
X125934315Y-97750000D02*
X113150000Y-97750000D01*
G04 #@! TO.N,/1.8V*
X126492000Y-80010000D02*
X126492000Y-87593000D01*
X126492000Y-87593000D02*
X126365000Y-87720000D01*
G04 #@! TO.N,/CS_1.8*
X125148001Y-79936001D02*
X124714000Y-79502000D01*
X125148001Y-81280000D02*
X125148001Y-79936001D01*
X125148001Y-81280000D02*
X125148001Y-80190001D01*
X125148001Y-90943128D02*
X125148001Y-81280000D01*
G04 #@! TO.N,/RS_1.8*
X124079000Y-83750685D02*
X123825000Y-84004685D01*
X124079000Y-83185000D02*
X124079000Y-83750685D01*
X123825000Y-84004685D02*
X123825000Y-89789000D01*
X124423001Y-91407001D02*
X123755002Y-92075000D01*
X123825000Y-89789000D02*
X124423001Y-90387001D01*
X124423001Y-90387001D02*
X124423001Y-91407001D01*
X123755002Y-92075000D02*
X122682000Y-92075000D01*
X122682000Y-92075000D02*
X121666000Y-91059000D01*
X124079000Y-82931000D02*
X124079000Y-83750685D01*
G04 #@! TO.N,/FMARK_1.8*
X123317000Y-80664838D02*
X123317000Y-90678000D01*
X123317000Y-90678000D02*
X123698000Y-91059000D01*
X123317000Y-80664838D02*
X123317000Y-79502000D01*
G04 #@! TD*
M02*
