G04 #@! TF.GenerationSoftware,KiCad,Pcbnew,(5.0.0)*
G04 #@! TF.CreationDate,2019-07-31T00:08:18+03:00*
G04 #@! TF.ProjectId,ST7789_V_FCP_Board,5354373738395F565F4643505F426F61,rev?*
G04 #@! TF.SameCoordinates,Original*
G04 #@! TF.FileFunction,Copper,L1,Top,Signal*
G04 #@! TF.FilePolarity,Positive*
%FSLAX46Y46*%
G04 Gerber Fmt 4.6, Leading zero omitted, Abs format (unit mm)*
G04 Created by KiCad (PCBNEW (5.0.0)) date 07/31/19 00:08:18*
%MOMM*%
%LPD*%
G01*
G04 APERTURE LIST*
G04 #@! TA.AperFunction,SMDPad,CuDef*
%ADD10R,0.400000X1.200000*%
G04 #@! TD*
G04 #@! TA.AperFunction,SMDPad,CuDef*
%ADD11R,0.300000X1.500000*%
G04 #@! TD*
G04 #@! TA.AperFunction,BGAPad,CuDef*
%ADD12C,1.500000*%
G04 #@! TD*
G04 #@! TA.AperFunction,Conductor*
%ADD13C,0.100000*%
G04 #@! TD*
G04 #@! TA.AperFunction,SMDPad,CuDef*
%ADD14C,1.150000*%
G04 #@! TD*
G04 #@! TA.AperFunction,SMDPad,CuDef*
%ADD15C,0.975000*%
G04 #@! TD*
G04 #@! TA.AperFunction,ComponentPad*
%ADD16R,1.700000X1.700000*%
G04 #@! TD*
G04 #@! TA.AperFunction,ComponentPad*
%ADD17O,1.700000X1.700000*%
G04 #@! TD*
G04 #@! TA.AperFunction,SMDPad,CuDef*
%ADD18R,0.900000X0.800000*%
G04 #@! TD*
G04 #@! TA.AperFunction,ViaPad*
%ADD19C,0.800000*%
G04 #@! TD*
G04 #@! TA.AperFunction,Conductor*
%ADD20C,0.250000*%
G04 #@! TD*
G04 #@! TA.AperFunction,Conductor*
%ADD21C,0.500000*%
G04 #@! TD*
G04 #@! TA.AperFunction,Conductor*
%ADD22C,0.400000*%
G04 #@! TD*
G04 #@! TA.AperFunction,Conductor*
%ADD23C,0.600000*%
G04 #@! TD*
G04 #@! TA.AperFunction,Conductor*
%ADD24C,0.254000*%
G04 #@! TD*
G04 APERTURE END LIST*
D10*
G04 #@! TO.P,IC2,1*
G04 #@! TO.N,Net-(IC2-Pad1)*
X124231500Y-65477500D03*
G04 #@! TO.P,IC2,2*
G04 #@! TO.N,Net-(IC2-Pad2)*
X123581500Y-65477500D03*
G04 #@! TO.P,IC2,3*
G04 #@! TO.N,Net-(IC2-Pad3)*
X122931500Y-65477500D03*
G04 #@! TO.P,IC2,4*
G04 #@! TO.N,Net-(IC2-Pad4)*
X122281500Y-65477500D03*
G04 #@! TO.P,IC2,5*
G04 #@! TO.N,Net-(IC2-Pad5)*
X121631500Y-65477500D03*
G04 #@! TO.P,IC2,6*
G04 #@! TO.N,Net-(IC2-Pad6)*
X120981500Y-65477500D03*
G04 #@! TO.P,IC2,7*
G04 #@! TO.N,Net-(IC2-Pad7)*
X120331500Y-65477500D03*
G04 #@! TO.P,IC2,8*
G04 #@! TO.N,Net-(IC2-Pad8)*
X119681500Y-65477500D03*
G04 #@! TO.P,IC2,9*
G04 #@! TO.N,Net-(IC2-Pad9)*
X119031500Y-65477500D03*
G04 #@! TO.P,IC2,10*
G04 #@! TO.N,Net-(IC2-Pad10)*
X118381500Y-65477500D03*
G04 #@! TO.P,IC2,11*
G04 #@! TO.N,Net-(IC2-Pad11)*
X118381500Y-71277500D03*
G04 #@! TO.P,IC2,12*
G04 #@! TO.N,Net-(IC2-Pad12)*
X119031500Y-71277500D03*
G04 #@! TO.P,IC2,13*
G04 #@! TO.N,Net-(IC2-Pad13)*
X119681500Y-71277500D03*
G04 #@! TO.P,IC2,14*
G04 #@! TO.N,Net-(IC2-Pad14)*
X120331500Y-71277500D03*
G04 #@! TO.P,IC2,15*
G04 #@! TO.N,Net-(IC2-Pad15)*
X120981500Y-71277500D03*
G04 #@! TO.P,IC2,16*
G04 #@! TO.N,Net-(IC2-Pad16)*
X121631500Y-71277500D03*
G04 #@! TO.P,IC2,17*
G04 #@! TO.N,Net-(IC2-Pad17)*
X122281500Y-71277500D03*
G04 #@! TO.P,IC2,18*
G04 #@! TO.N,Net-(IC2-Pad18)*
X122931500Y-71277500D03*
G04 #@! TO.P,IC2,19*
G04 #@! TO.N,Net-(IC2-Pad19)*
X123581500Y-71277500D03*
G04 #@! TO.P,IC2,20*
G04 #@! TO.N,Net-(IC2-Pad20)*
X124231500Y-71277500D03*
G04 #@! TD*
D11*
G04 #@! TO.P,U4,13*
G04 #@! TO.N,Net-(TP11-Pad1)*
X120295154Y-53485548D03*
G04 #@! TO.P,U4,11*
G04 #@! TO.N,Net-(TP12-Pad1)*
X120895154Y-53485548D03*
G04 #@! TO.P,U4,9*
G04 #@! TO.N,Net-(TP13-Pad1)*
X121495154Y-53485548D03*
G04 #@! TO.P,U4,7*
G04 #@! TO.N,Net-(TP14-Pad1)*
X122095154Y-53485548D03*
G04 #@! TO.P,U4,5*
G04 #@! TO.N,Net-(TP15-Pad1)*
X122695154Y-53485548D03*
G04 #@! TO.P,U4,3*
G04 #@! TO.N,Net-(TP16-Pad1)*
X123295154Y-53485548D03*
G04 #@! TO.P,U4,1*
G04 #@! TO.N,Net-(TP17-Pad1)*
X123895154Y-53485548D03*
G04 #@! TO.P,U4,12*
G04 #@! TO.N,Net-(TP18-Pad1)*
X120595154Y-49835548D03*
G04 #@! TO.P,U4,10*
G04 #@! TO.N,Net-(TP19-Pad1)*
X121195154Y-49835548D03*
G04 #@! TO.P,U4,8*
G04 #@! TO.N,Net-(TP20-Pad1)*
X121795154Y-49835548D03*
G04 #@! TO.P,U4,6*
G04 #@! TO.N,Net-(TP21-Pad1)*
X122395154Y-49835548D03*
G04 #@! TO.P,U4,4*
G04 #@! TO.N,Net-(TP22-Pad1)*
X122995154Y-49835548D03*
G04 #@! TO.P,U4,2*
G04 #@! TO.N,Net-(TP23-Pad1)*
X123595154Y-49835548D03*
G04 #@! TD*
D12*
G04 #@! TO.P,TP4,1*
G04 #@! TO.N,Net-(IC2-Pad16)*
X123356000Y-74485000D03*
G04 #@! TD*
G04 #@! TO.P,TP31,1*
G04 #@! TO.N,Net-(IC2-Pad9)*
X113856000Y-61985000D03*
G04 #@! TD*
G04 #@! TO.P,TP29,1*
G04 #@! TO.N,Net-(IC2-Pad7)*
X118856000Y-61985000D03*
G04 #@! TD*
G04 #@! TO.P,TP32,1*
G04 #@! TO.N,Net-(IC2-Pad10)*
X111356000Y-61985000D03*
G04 #@! TD*
G04 #@! TO.P,TP33,1*
G04 #@! TO.N,Net-(IC2-Pad11)*
X110856000Y-74485000D03*
G04 #@! TD*
G04 #@! TO.P,TP1,1*
G04 #@! TO.N,Net-(IC2-Pad20)*
X133356000Y-74485000D03*
G04 #@! TD*
G04 #@! TO.P,TP2,1*
G04 #@! TO.N,Net-(IC2-Pad18)*
X128468999Y-74485000D03*
G04 #@! TD*
G04 #@! TO.P,TP10,1*
G04 #@! TO.N,Net-(IC2-Pad2)*
X131856000Y-61985000D03*
G04 #@! TD*
G04 #@! TO.P,TP5,1*
G04 #@! TO.N,Net-(IC2-Pad15)*
X120856000Y-74485000D03*
G04 #@! TD*
G04 #@! TO.P,TP6,1*
G04 #@! TO.N,Net-(IC2-Pad14)*
X118356000Y-74485000D03*
G04 #@! TD*
G04 #@! TO.P,TP7,1*
G04 #@! TO.N,Net-(IC2-Pad13)*
X115856000Y-74381500D03*
G04 #@! TD*
G04 #@! TO.P,TP8,1*
G04 #@! TO.N,Net-(IC2-Pad12)*
X113356000Y-74485000D03*
G04 #@! TD*
G04 #@! TO.P,TP28,1*
G04 #@! TO.N,Net-(IC2-Pad6)*
X121356000Y-61985000D03*
G04 #@! TD*
G04 #@! TO.P,TP27,1*
G04 #@! TO.N,Net-(IC2-Pad5)*
X123856000Y-61985000D03*
G04 #@! TD*
G04 #@! TO.P,TP3,1*
G04 #@! TO.N,Net-(IC2-Pad17)*
X125856000Y-74381500D03*
G04 #@! TD*
G04 #@! TO.P,TP30,1*
G04 #@! TO.N,Net-(IC2-Pad8)*
X116356000Y-61985000D03*
G04 #@! TD*
G04 #@! TO.P,TP17,1*
G04 #@! TO.N,Net-(TP17-Pad1)*
X130219154Y-56989548D03*
G04 #@! TD*
G04 #@! TO.P,TP25,1*
G04 #@! TO.N,Net-(IC2-Pad3)*
X128856000Y-61985000D03*
G04 #@! TD*
G04 #@! TO.P,TP23,1*
G04 #@! TO.N,Net-(TP23-Pad1)*
X128338154Y-46775548D03*
G04 #@! TD*
G04 #@! TO.P,TP22,1*
G04 #@! TO.N,Net-(TP22-Pad1)*
X125838154Y-46775548D03*
G04 #@! TD*
G04 #@! TO.P,TP21,1*
G04 #@! TO.N,Net-(TP21-Pad1)*
X123338154Y-46775548D03*
G04 #@! TD*
G04 #@! TO.P,TP20,1*
G04 #@! TO.N,Net-(TP20-Pad1)*
X120838154Y-46775548D03*
G04 #@! TD*
G04 #@! TO.P,TP9,1*
G04 #@! TO.N,Net-(IC2-Pad19)*
X131018999Y-74485000D03*
G04 #@! TD*
G04 #@! TO.P,TP26,1*
G04 #@! TO.N,Net-(IC2-Pad4)*
X126356000Y-61985000D03*
G04 #@! TD*
G04 #@! TO.P,TP16,1*
G04 #@! TO.N,Net-(TP16-Pad1)*
X127978153Y-57169047D03*
G04 #@! TD*
G04 #@! TO.P,TP15,1*
G04 #@! TO.N,Net-(TP15-Pad1)*
X125219154Y-56989548D03*
G04 #@! TD*
G04 #@! TO.P,TP14,1*
G04 #@! TO.N,Net-(TP14-Pad1)*
X122719154Y-56989548D03*
G04 #@! TD*
G04 #@! TO.P,TP13,1*
G04 #@! TO.N,Net-(TP13-Pad1)*
X120219154Y-56989548D03*
G04 #@! TD*
G04 #@! TO.P,TP12,1*
G04 #@! TO.N,Net-(TP12-Pad1)*
X117719154Y-56989548D03*
G04 #@! TD*
G04 #@! TO.P,TP11,1*
G04 #@! TO.N,Net-(TP11-Pad1)*
X115219154Y-56989548D03*
G04 #@! TD*
G04 #@! TO.P,TP19,1*
G04 #@! TO.N,Net-(TP19-Pad1)*
X118338154Y-46775548D03*
G04 #@! TD*
G04 #@! TO.P,TP24,1*
G04 #@! TO.N,Net-(IC2-Pad1)*
X134356000Y-61985000D03*
G04 #@! TD*
G04 #@! TO.P,TP18,1*
G04 #@! TO.N,Net-(TP18-Pad1)*
X115838154Y-46775548D03*
G04 #@! TD*
D11*
G04 #@! TO.P,U1,2*
G04 #@! TO.N,GND*
X122271000Y-85158000D03*
G04 #@! TO.P,U1,4*
X122871000Y-85158000D03*
G04 #@! TO.P,U1,6*
G04 #@! TO.N,/SDA_1.8*
X123471000Y-85158000D03*
G04 #@! TO.P,U1,8*
G04 #@! TO.N,/SCLK_1.8*
X124071000Y-85158000D03*
G04 #@! TO.P,U1,10*
G04 #@! TO.N,/RESET_1.8*
X124671000Y-85158000D03*
G04 #@! TO.P,U1,12*
G04 #@! TO.N,/2.8V*
X125271000Y-85158000D03*
G04 #@! TO.P,U1,1*
G04 #@! TO.N,GND*
X121971000Y-81508000D03*
G04 #@! TO.P,U1,3*
G04 #@! TO.N,/LEDA*
X122571000Y-81508000D03*
G04 #@! TO.P,U1,5*
G04 #@! TO.N,/FMARK_1.8*
X123171000Y-81508000D03*
G04 #@! TO.P,U1,7*
G04 #@! TO.N,/RS_1.8*
X123771000Y-81508000D03*
G04 #@! TO.P,U1,9*
G04 #@! TO.N,/CS_1.8*
X124371000Y-81508000D03*
G04 #@! TO.P,U1,11*
G04 #@! TO.N,/1.8V*
X124971000Y-81508000D03*
G04 #@! TO.P,U1,13*
G04 #@! TO.N,GND*
X125571000Y-81508000D03*
G04 #@! TD*
D13*
G04 #@! TO.N,GND*
G04 #@! TO.C,C6*
G36*
X129887505Y-93896204D02*
X129911773Y-93899804D01*
X129935572Y-93905765D01*
X129958671Y-93914030D01*
X129980850Y-93924520D01*
X130001893Y-93937132D01*
X130021599Y-93951747D01*
X130039777Y-93968223D01*
X130056253Y-93986401D01*
X130070868Y-94006107D01*
X130083480Y-94027150D01*
X130093970Y-94049329D01*
X130102235Y-94072428D01*
X130108196Y-94096227D01*
X130111796Y-94120495D01*
X130113000Y-94144999D01*
X130113000Y-94795001D01*
X130111796Y-94819505D01*
X130108196Y-94843773D01*
X130102235Y-94867572D01*
X130093970Y-94890671D01*
X130083480Y-94912850D01*
X130070868Y-94933893D01*
X130056253Y-94953599D01*
X130039777Y-94971777D01*
X130021599Y-94988253D01*
X130001893Y-95002868D01*
X129980850Y-95015480D01*
X129958671Y-95025970D01*
X129935572Y-95034235D01*
X129911773Y-95040196D01*
X129887505Y-95043796D01*
X129863001Y-95045000D01*
X128962999Y-95045000D01*
X128938495Y-95043796D01*
X128914227Y-95040196D01*
X128890428Y-95034235D01*
X128867329Y-95025970D01*
X128845150Y-95015480D01*
X128824107Y-95002868D01*
X128804401Y-94988253D01*
X128786223Y-94971777D01*
X128769747Y-94953599D01*
X128755132Y-94933893D01*
X128742520Y-94912850D01*
X128732030Y-94890671D01*
X128723765Y-94867572D01*
X128717804Y-94843773D01*
X128714204Y-94819505D01*
X128713000Y-94795001D01*
X128713000Y-94144999D01*
X128714204Y-94120495D01*
X128717804Y-94096227D01*
X128723765Y-94072428D01*
X128732030Y-94049329D01*
X128742520Y-94027150D01*
X128755132Y-94006107D01*
X128769747Y-93986401D01*
X128786223Y-93968223D01*
X128804401Y-93951747D01*
X128824107Y-93937132D01*
X128845150Y-93924520D01*
X128867329Y-93914030D01*
X128890428Y-93905765D01*
X128914227Y-93899804D01*
X128938495Y-93896204D01*
X128962999Y-93895000D01*
X129863001Y-93895000D01*
X129887505Y-93896204D01*
X129887505Y-93896204D01*
G37*
D14*
G04 #@! TD*
G04 #@! TO.P,C6,2*
G04 #@! TO.N,GND*
X129413000Y-94470000D03*
D13*
G04 #@! TO.N,VCC*
G04 #@! TO.C,C6*
G36*
X129887505Y-95946204D02*
X129911773Y-95949804D01*
X129935572Y-95955765D01*
X129958671Y-95964030D01*
X129980850Y-95974520D01*
X130001893Y-95987132D01*
X130021599Y-96001747D01*
X130039777Y-96018223D01*
X130056253Y-96036401D01*
X130070868Y-96056107D01*
X130083480Y-96077150D01*
X130093970Y-96099329D01*
X130102235Y-96122428D01*
X130108196Y-96146227D01*
X130111796Y-96170495D01*
X130113000Y-96194999D01*
X130113000Y-96845001D01*
X130111796Y-96869505D01*
X130108196Y-96893773D01*
X130102235Y-96917572D01*
X130093970Y-96940671D01*
X130083480Y-96962850D01*
X130070868Y-96983893D01*
X130056253Y-97003599D01*
X130039777Y-97021777D01*
X130021599Y-97038253D01*
X130001893Y-97052868D01*
X129980850Y-97065480D01*
X129958671Y-97075970D01*
X129935572Y-97084235D01*
X129911773Y-97090196D01*
X129887505Y-97093796D01*
X129863001Y-97095000D01*
X128962999Y-97095000D01*
X128938495Y-97093796D01*
X128914227Y-97090196D01*
X128890428Y-97084235D01*
X128867329Y-97075970D01*
X128845150Y-97065480D01*
X128824107Y-97052868D01*
X128804401Y-97038253D01*
X128786223Y-97021777D01*
X128769747Y-97003599D01*
X128755132Y-96983893D01*
X128742520Y-96962850D01*
X128732030Y-96940671D01*
X128723765Y-96917572D01*
X128717804Y-96893773D01*
X128714204Y-96869505D01*
X128713000Y-96845001D01*
X128713000Y-96194999D01*
X128714204Y-96170495D01*
X128717804Y-96146227D01*
X128723765Y-96122428D01*
X128732030Y-96099329D01*
X128742520Y-96077150D01*
X128755132Y-96056107D01*
X128769747Y-96036401D01*
X128786223Y-96018223D01*
X128804401Y-96001747D01*
X128824107Y-95987132D01*
X128845150Y-95974520D01*
X128867329Y-95964030D01*
X128890428Y-95955765D01*
X128914227Y-95949804D01*
X128938495Y-95946204D01*
X128962999Y-95945000D01*
X129863001Y-95945000D01*
X129887505Y-95946204D01*
X129887505Y-95946204D01*
G37*
D14*
G04 #@! TD*
G04 #@! TO.P,C6,1*
G04 #@! TO.N,VCC*
X129413000Y-96520000D03*
D13*
G04 #@! TO.N,GND*
G04 #@! TO.C,C5*
G36*
X128871505Y-88453204D02*
X128895773Y-88456804D01*
X128919572Y-88462765D01*
X128942671Y-88471030D01*
X128964850Y-88481520D01*
X128985893Y-88494132D01*
X129005599Y-88508747D01*
X129023777Y-88525223D01*
X129040253Y-88543401D01*
X129054868Y-88563107D01*
X129067480Y-88584150D01*
X129077970Y-88606329D01*
X129086235Y-88629428D01*
X129092196Y-88653227D01*
X129095796Y-88677495D01*
X129097000Y-88701999D01*
X129097000Y-89352001D01*
X129095796Y-89376505D01*
X129092196Y-89400773D01*
X129086235Y-89424572D01*
X129077970Y-89447671D01*
X129067480Y-89469850D01*
X129054868Y-89490893D01*
X129040253Y-89510599D01*
X129023777Y-89528777D01*
X129005599Y-89545253D01*
X128985893Y-89559868D01*
X128964850Y-89572480D01*
X128942671Y-89582970D01*
X128919572Y-89591235D01*
X128895773Y-89597196D01*
X128871505Y-89600796D01*
X128847001Y-89602000D01*
X127946999Y-89602000D01*
X127922495Y-89600796D01*
X127898227Y-89597196D01*
X127874428Y-89591235D01*
X127851329Y-89582970D01*
X127829150Y-89572480D01*
X127808107Y-89559868D01*
X127788401Y-89545253D01*
X127770223Y-89528777D01*
X127753747Y-89510599D01*
X127739132Y-89490893D01*
X127726520Y-89469850D01*
X127716030Y-89447671D01*
X127707765Y-89424572D01*
X127701804Y-89400773D01*
X127698204Y-89376505D01*
X127697000Y-89352001D01*
X127697000Y-88701999D01*
X127698204Y-88677495D01*
X127701804Y-88653227D01*
X127707765Y-88629428D01*
X127716030Y-88606329D01*
X127726520Y-88584150D01*
X127739132Y-88563107D01*
X127753747Y-88543401D01*
X127770223Y-88525223D01*
X127788401Y-88508747D01*
X127808107Y-88494132D01*
X127829150Y-88481520D01*
X127851329Y-88471030D01*
X127874428Y-88462765D01*
X127898227Y-88456804D01*
X127922495Y-88453204D01*
X127946999Y-88452000D01*
X128847001Y-88452000D01*
X128871505Y-88453204D01*
X128871505Y-88453204D01*
G37*
D14*
G04 #@! TD*
G04 #@! TO.P,C5,1*
G04 #@! TO.N,GND*
X128397000Y-89027000D03*
D13*
G04 #@! TO.N,/1.8V*
G04 #@! TO.C,C5*
G36*
X128871505Y-90503204D02*
X128895773Y-90506804D01*
X128919572Y-90512765D01*
X128942671Y-90521030D01*
X128964850Y-90531520D01*
X128985893Y-90544132D01*
X129005599Y-90558747D01*
X129023777Y-90575223D01*
X129040253Y-90593401D01*
X129054868Y-90613107D01*
X129067480Y-90634150D01*
X129077970Y-90656329D01*
X129086235Y-90679428D01*
X129092196Y-90703227D01*
X129095796Y-90727495D01*
X129097000Y-90751999D01*
X129097000Y-91402001D01*
X129095796Y-91426505D01*
X129092196Y-91450773D01*
X129086235Y-91474572D01*
X129077970Y-91497671D01*
X129067480Y-91519850D01*
X129054868Y-91540893D01*
X129040253Y-91560599D01*
X129023777Y-91578777D01*
X129005599Y-91595253D01*
X128985893Y-91609868D01*
X128964850Y-91622480D01*
X128942671Y-91632970D01*
X128919572Y-91641235D01*
X128895773Y-91647196D01*
X128871505Y-91650796D01*
X128847001Y-91652000D01*
X127946999Y-91652000D01*
X127922495Y-91650796D01*
X127898227Y-91647196D01*
X127874428Y-91641235D01*
X127851329Y-91632970D01*
X127829150Y-91622480D01*
X127808107Y-91609868D01*
X127788401Y-91595253D01*
X127770223Y-91578777D01*
X127753747Y-91560599D01*
X127739132Y-91540893D01*
X127726520Y-91519850D01*
X127716030Y-91497671D01*
X127707765Y-91474572D01*
X127701804Y-91450773D01*
X127698204Y-91426505D01*
X127697000Y-91402001D01*
X127697000Y-90751999D01*
X127698204Y-90727495D01*
X127701804Y-90703227D01*
X127707765Y-90679428D01*
X127716030Y-90656329D01*
X127726520Y-90634150D01*
X127739132Y-90613107D01*
X127753747Y-90593401D01*
X127770223Y-90575223D01*
X127788401Y-90558747D01*
X127808107Y-90544132D01*
X127829150Y-90531520D01*
X127851329Y-90521030D01*
X127874428Y-90512765D01*
X127898227Y-90506804D01*
X127922495Y-90503204D01*
X127946999Y-90502000D01*
X128847001Y-90502000D01*
X128871505Y-90503204D01*
X128871505Y-90503204D01*
G37*
D14*
G04 #@! TD*
G04 #@! TO.P,C5,2*
G04 #@! TO.N,/1.8V*
X128397000Y-91077000D03*
D13*
G04 #@! TO.N,Net-(IC1-Pad10)*
G04 #@! TO.C,R2*
G36*
X119854505Y-85913204D02*
X119878773Y-85916804D01*
X119902572Y-85922765D01*
X119925671Y-85931030D01*
X119947850Y-85941520D01*
X119968893Y-85954132D01*
X119988599Y-85968747D01*
X120006777Y-85985223D01*
X120023253Y-86003401D01*
X120037868Y-86023107D01*
X120050480Y-86044150D01*
X120060970Y-86066329D01*
X120069235Y-86089428D01*
X120075196Y-86113227D01*
X120078796Y-86137495D01*
X120080000Y-86161999D01*
X120080000Y-86812001D01*
X120078796Y-86836505D01*
X120075196Y-86860773D01*
X120069235Y-86884572D01*
X120060970Y-86907671D01*
X120050480Y-86929850D01*
X120037868Y-86950893D01*
X120023253Y-86970599D01*
X120006777Y-86988777D01*
X119988599Y-87005253D01*
X119968893Y-87019868D01*
X119947850Y-87032480D01*
X119925671Y-87042970D01*
X119902572Y-87051235D01*
X119878773Y-87057196D01*
X119854505Y-87060796D01*
X119830001Y-87062000D01*
X118929999Y-87062000D01*
X118905495Y-87060796D01*
X118881227Y-87057196D01*
X118857428Y-87051235D01*
X118834329Y-87042970D01*
X118812150Y-87032480D01*
X118791107Y-87019868D01*
X118771401Y-87005253D01*
X118753223Y-86988777D01*
X118736747Y-86970599D01*
X118722132Y-86950893D01*
X118709520Y-86929850D01*
X118699030Y-86907671D01*
X118690765Y-86884572D01*
X118684804Y-86860773D01*
X118681204Y-86836505D01*
X118680000Y-86812001D01*
X118680000Y-86161999D01*
X118681204Y-86137495D01*
X118684804Y-86113227D01*
X118690765Y-86089428D01*
X118699030Y-86066329D01*
X118709520Y-86044150D01*
X118722132Y-86023107D01*
X118736747Y-86003401D01*
X118753223Y-85985223D01*
X118771401Y-85968747D01*
X118791107Y-85954132D01*
X118812150Y-85941520D01*
X118834329Y-85931030D01*
X118857428Y-85922765D01*
X118881227Y-85916804D01*
X118905495Y-85913204D01*
X118929999Y-85912000D01*
X119830001Y-85912000D01*
X119854505Y-85913204D01*
X119854505Y-85913204D01*
G37*
D14*
G04 #@! TD*
G04 #@! TO.P,R2,1*
G04 #@! TO.N,Net-(IC1-Pad10)*
X119380000Y-86487000D03*
D13*
G04 #@! TO.N,/1.8V*
G04 #@! TO.C,R2*
G36*
X119854505Y-87963204D02*
X119878773Y-87966804D01*
X119902572Y-87972765D01*
X119925671Y-87981030D01*
X119947850Y-87991520D01*
X119968893Y-88004132D01*
X119988599Y-88018747D01*
X120006777Y-88035223D01*
X120023253Y-88053401D01*
X120037868Y-88073107D01*
X120050480Y-88094150D01*
X120060970Y-88116329D01*
X120069235Y-88139428D01*
X120075196Y-88163227D01*
X120078796Y-88187495D01*
X120080000Y-88211999D01*
X120080000Y-88862001D01*
X120078796Y-88886505D01*
X120075196Y-88910773D01*
X120069235Y-88934572D01*
X120060970Y-88957671D01*
X120050480Y-88979850D01*
X120037868Y-89000893D01*
X120023253Y-89020599D01*
X120006777Y-89038777D01*
X119988599Y-89055253D01*
X119968893Y-89069868D01*
X119947850Y-89082480D01*
X119925671Y-89092970D01*
X119902572Y-89101235D01*
X119878773Y-89107196D01*
X119854505Y-89110796D01*
X119830001Y-89112000D01*
X118929999Y-89112000D01*
X118905495Y-89110796D01*
X118881227Y-89107196D01*
X118857428Y-89101235D01*
X118834329Y-89092970D01*
X118812150Y-89082480D01*
X118791107Y-89069868D01*
X118771401Y-89055253D01*
X118753223Y-89038777D01*
X118736747Y-89020599D01*
X118722132Y-89000893D01*
X118709520Y-88979850D01*
X118699030Y-88957671D01*
X118690765Y-88934572D01*
X118684804Y-88910773D01*
X118681204Y-88886505D01*
X118680000Y-88862001D01*
X118680000Y-88211999D01*
X118681204Y-88187495D01*
X118684804Y-88163227D01*
X118690765Y-88139428D01*
X118699030Y-88116329D01*
X118709520Y-88094150D01*
X118722132Y-88073107D01*
X118736747Y-88053401D01*
X118753223Y-88035223D01*
X118771401Y-88018747D01*
X118791107Y-88004132D01*
X118812150Y-87991520D01*
X118834329Y-87981030D01*
X118857428Y-87972765D01*
X118881227Y-87966804D01*
X118905495Y-87963204D01*
X118929999Y-87962000D01*
X119830001Y-87962000D01*
X119854505Y-87963204D01*
X119854505Y-87963204D01*
G37*
D14*
G04 #@! TD*
G04 #@! TO.P,R2,2*
G04 #@! TO.N,/1.8V*
X119380000Y-88537000D03*
D10*
G04 #@! TO.P,IC1,1*
G04 #@! TO.N,Net-(IC1-Pad1)*
X126925000Y-89100000D03*
G04 #@! TO.P,IC1,2*
G04 #@! TO.N,/1.8V*
X126275000Y-89100000D03*
G04 #@! TO.P,IC1,3*
G04 #@! TO.N,Net-(IC1-Pad3)*
X125625000Y-89100000D03*
G04 #@! TO.P,IC1,4*
G04 #@! TO.N,/RESET_1.8*
X124975000Y-89100000D03*
G04 #@! TO.P,IC1,5*
G04 #@! TO.N,/CS_1.8*
X124325000Y-89100000D03*
G04 #@! TO.P,IC1,6*
G04 #@! TO.N,/FMARK_1.8*
X123675000Y-89100000D03*
G04 #@! TO.P,IC1,7*
G04 #@! TO.N,/SCLK_1.8*
X123025000Y-89100000D03*
G04 #@! TO.P,IC1,8*
G04 #@! TO.N,/SDA_1.8*
X122375000Y-89100000D03*
G04 #@! TO.P,IC1,9*
G04 #@! TO.N,/RS_1.8*
X121725000Y-89100000D03*
G04 #@! TO.P,IC1,10*
G04 #@! TO.N,Net-(IC1-Pad10)*
X121075000Y-89100000D03*
G04 #@! TO.P,IC1,11*
G04 #@! TO.N,GND*
X121075000Y-94900000D03*
G04 #@! TO.P,IC1,12*
G04 #@! TO.N,/RS*
X121725000Y-94900000D03*
G04 #@! TO.P,IC1,13*
G04 #@! TO.N,/SDA*
X122375000Y-94900000D03*
G04 #@! TO.P,IC1,14*
G04 #@! TO.N,/SCLK*
X123025000Y-94900000D03*
G04 #@! TO.P,IC1,15*
G04 #@! TO.N,/FMARK*
X123675000Y-94900000D03*
G04 #@! TO.P,IC1,16*
G04 #@! TO.N,/CS*
X124325000Y-94900000D03*
G04 #@! TO.P,IC1,17*
G04 #@! TO.N,/RESET*
X124975000Y-94900000D03*
G04 #@! TO.P,IC1,18*
G04 #@! TO.N,Net-(IC1-Pad18)*
X125625000Y-94900000D03*
G04 #@! TO.P,IC1,19*
G04 #@! TO.N,VCC*
X126275000Y-94900000D03*
G04 #@! TO.P,IC1,20*
G04 #@! TO.N,Net-(IC1-Pad20)*
X126925000Y-94900000D03*
G04 #@! TD*
D13*
G04 #@! TO.N,/LEDA*
G04 #@! TO.C,R1*
G36*
X129974505Y-81676204D02*
X129998773Y-81679804D01*
X130022572Y-81685765D01*
X130045671Y-81694030D01*
X130067850Y-81704520D01*
X130088893Y-81717132D01*
X130108599Y-81731747D01*
X130126777Y-81748223D01*
X130143253Y-81766401D01*
X130157868Y-81786107D01*
X130170480Y-81807150D01*
X130180970Y-81829329D01*
X130189235Y-81852428D01*
X130195196Y-81876227D01*
X130198796Y-81900495D01*
X130200000Y-81924999D01*
X130200000Y-82575001D01*
X130198796Y-82599505D01*
X130195196Y-82623773D01*
X130189235Y-82647572D01*
X130180970Y-82670671D01*
X130170480Y-82692850D01*
X130157868Y-82713893D01*
X130143253Y-82733599D01*
X130126777Y-82751777D01*
X130108599Y-82768253D01*
X130088893Y-82782868D01*
X130067850Y-82795480D01*
X130045671Y-82805970D01*
X130022572Y-82814235D01*
X129998773Y-82820196D01*
X129974505Y-82823796D01*
X129950001Y-82825000D01*
X129049999Y-82825000D01*
X129025495Y-82823796D01*
X129001227Y-82820196D01*
X128977428Y-82814235D01*
X128954329Y-82805970D01*
X128932150Y-82795480D01*
X128911107Y-82782868D01*
X128891401Y-82768253D01*
X128873223Y-82751777D01*
X128856747Y-82733599D01*
X128842132Y-82713893D01*
X128829520Y-82692850D01*
X128819030Y-82670671D01*
X128810765Y-82647572D01*
X128804804Y-82623773D01*
X128801204Y-82599505D01*
X128800000Y-82575001D01*
X128800000Y-81924999D01*
X128801204Y-81900495D01*
X128804804Y-81876227D01*
X128810765Y-81852428D01*
X128819030Y-81829329D01*
X128829520Y-81807150D01*
X128842132Y-81786107D01*
X128856747Y-81766401D01*
X128873223Y-81748223D01*
X128891401Y-81731747D01*
X128911107Y-81717132D01*
X128932150Y-81704520D01*
X128954329Y-81694030D01*
X128977428Y-81685765D01*
X129001227Y-81679804D01*
X129025495Y-81676204D01*
X129049999Y-81675000D01*
X129950001Y-81675000D01*
X129974505Y-81676204D01*
X129974505Y-81676204D01*
G37*
D14*
G04 #@! TD*
G04 #@! TO.P,R1,1*
G04 #@! TO.N,/LEDA*
X129500000Y-82250000D03*
D13*
G04 #@! TO.N,/2.8V*
G04 #@! TO.C,R1*
G36*
X129974505Y-83726204D02*
X129998773Y-83729804D01*
X130022572Y-83735765D01*
X130045671Y-83744030D01*
X130067850Y-83754520D01*
X130088893Y-83767132D01*
X130108599Y-83781747D01*
X130126777Y-83798223D01*
X130143253Y-83816401D01*
X130157868Y-83836107D01*
X130170480Y-83857150D01*
X130180970Y-83879329D01*
X130189235Y-83902428D01*
X130195196Y-83926227D01*
X130198796Y-83950495D01*
X130200000Y-83974999D01*
X130200000Y-84625001D01*
X130198796Y-84649505D01*
X130195196Y-84673773D01*
X130189235Y-84697572D01*
X130180970Y-84720671D01*
X130170480Y-84742850D01*
X130157868Y-84763893D01*
X130143253Y-84783599D01*
X130126777Y-84801777D01*
X130108599Y-84818253D01*
X130088893Y-84832868D01*
X130067850Y-84845480D01*
X130045671Y-84855970D01*
X130022572Y-84864235D01*
X129998773Y-84870196D01*
X129974505Y-84873796D01*
X129950001Y-84875000D01*
X129049999Y-84875000D01*
X129025495Y-84873796D01*
X129001227Y-84870196D01*
X128977428Y-84864235D01*
X128954329Y-84855970D01*
X128932150Y-84845480D01*
X128911107Y-84832868D01*
X128891401Y-84818253D01*
X128873223Y-84801777D01*
X128856747Y-84783599D01*
X128842132Y-84763893D01*
X128829520Y-84742850D01*
X128819030Y-84720671D01*
X128810765Y-84697572D01*
X128804804Y-84673773D01*
X128801204Y-84649505D01*
X128800000Y-84625001D01*
X128800000Y-83974999D01*
X128801204Y-83950495D01*
X128804804Y-83926227D01*
X128810765Y-83902428D01*
X128819030Y-83879329D01*
X128829520Y-83857150D01*
X128842132Y-83836107D01*
X128856747Y-83816401D01*
X128873223Y-83798223D01*
X128891401Y-83781747D01*
X128911107Y-83767132D01*
X128932150Y-83754520D01*
X128954329Y-83744030D01*
X128977428Y-83735765D01*
X129001227Y-83729804D01*
X129025495Y-83726204D01*
X129049999Y-83725000D01*
X129950001Y-83725000D01*
X129974505Y-83726204D01*
X129974505Y-83726204D01*
G37*
D14*
G04 #@! TD*
G04 #@! TO.P,R1,2*
G04 #@! TO.N,/2.8V*
X129500000Y-84300000D03*
D13*
G04 #@! TO.N,GND*
G04 #@! TO.C,C4*
G36*
X112330142Y-83301174D02*
X112353803Y-83304684D01*
X112377007Y-83310496D01*
X112399529Y-83318554D01*
X112421153Y-83328782D01*
X112441670Y-83341079D01*
X112460883Y-83355329D01*
X112478607Y-83371393D01*
X112494671Y-83389117D01*
X112508921Y-83408330D01*
X112521218Y-83428847D01*
X112531446Y-83450471D01*
X112539504Y-83472993D01*
X112545316Y-83496197D01*
X112548826Y-83519858D01*
X112550000Y-83543750D01*
X112550000Y-84456250D01*
X112548826Y-84480142D01*
X112545316Y-84503803D01*
X112539504Y-84527007D01*
X112531446Y-84549529D01*
X112521218Y-84571153D01*
X112508921Y-84591670D01*
X112494671Y-84610883D01*
X112478607Y-84628607D01*
X112460883Y-84644671D01*
X112441670Y-84658921D01*
X112421153Y-84671218D01*
X112399529Y-84681446D01*
X112377007Y-84689504D01*
X112353803Y-84695316D01*
X112330142Y-84698826D01*
X112306250Y-84700000D01*
X111818750Y-84700000D01*
X111794858Y-84698826D01*
X111771197Y-84695316D01*
X111747993Y-84689504D01*
X111725471Y-84681446D01*
X111703847Y-84671218D01*
X111683330Y-84658921D01*
X111664117Y-84644671D01*
X111646393Y-84628607D01*
X111630329Y-84610883D01*
X111616079Y-84591670D01*
X111603782Y-84571153D01*
X111593554Y-84549529D01*
X111585496Y-84527007D01*
X111579684Y-84503803D01*
X111576174Y-84480142D01*
X111575000Y-84456250D01*
X111575000Y-83543750D01*
X111576174Y-83519858D01*
X111579684Y-83496197D01*
X111585496Y-83472993D01*
X111593554Y-83450471D01*
X111603782Y-83428847D01*
X111616079Y-83408330D01*
X111630329Y-83389117D01*
X111646393Y-83371393D01*
X111664117Y-83355329D01*
X111683330Y-83341079D01*
X111703847Y-83328782D01*
X111725471Y-83318554D01*
X111747993Y-83310496D01*
X111771197Y-83304684D01*
X111794858Y-83301174D01*
X111818750Y-83300000D01*
X112306250Y-83300000D01*
X112330142Y-83301174D01*
X112330142Y-83301174D01*
G37*
D15*
G04 #@! TD*
G04 #@! TO.P,C4,2*
G04 #@! TO.N,GND*
X112062500Y-84000000D03*
D13*
G04 #@! TO.N,/1.8V*
G04 #@! TO.C,C4*
G36*
X114205142Y-83301174D02*
X114228803Y-83304684D01*
X114252007Y-83310496D01*
X114274529Y-83318554D01*
X114296153Y-83328782D01*
X114316670Y-83341079D01*
X114335883Y-83355329D01*
X114353607Y-83371393D01*
X114369671Y-83389117D01*
X114383921Y-83408330D01*
X114396218Y-83428847D01*
X114406446Y-83450471D01*
X114414504Y-83472993D01*
X114420316Y-83496197D01*
X114423826Y-83519858D01*
X114425000Y-83543750D01*
X114425000Y-84456250D01*
X114423826Y-84480142D01*
X114420316Y-84503803D01*
X114414504Y-84527007D01*
X114406446Y-84549529D01*
X114396218Y-84571153D01*
X114383921Y-84591670D01*
X114369671Y-84610883D01*
X114353607Y-84628607D01*
X114335883Y-84644671D01*
X114316670Y-84658921D01*
X114296153Y-84671218D01*
X114274529Y-84681446D01*
X114252007Y-84689504D01*
X114228803Y-84695316D01*
X114205142Y-84698826D01*
X114181250Y-84700000D01*
X113693750Y-84700000D01*
X113669858Y-84698826D01*
X113646197Y-84695316D01*
X113622993Y-84689504D01*
X113600471Y-84681446D01*
X113578847Y-84671218D01*
X113558330Y-84658921D01*
X113539117Y-84644671D01*
X113521393Y-84628607D01*
X113505329Y-84610883D01*
X113491079Y-84591670D01*
X113478782Y-84571153D01*
X113468554Y-84549529D01*
X113460496Y-84527007D01*
X113454684Y-84503803D01*
X113451174Y-84480142D01*
X113450000Y-84456250D01*
X113450000Y-83543750D01*
X113451174Y-83519858D01*
X113454684Y-83496197D01*
X113460496Y-83472993D01*
X113468554Y-83450471D01*
X113478782Y-83428847D01*
X113491079Y-83408330D01*
X113505329Y-83389117D01*
X113521393Y-83371393D01*
X113539117Y-83355329D01*
X113558330Y-83341079D01*
X113578847Y-83328782D01*
X113600471Y-83318554D01*
X113622993Y-83310496D01*
X113646197Y-83304684D01*
X113669858Y-83301174D01*
X113693750Y-83300000D01*
X114181250Y-83300000D01*
X114205142Y-83301174D01*
X114205142Y-83301174D01*
G37*
D15*
G04 #@! TD*
G04 #@! TO.P,C4,1*
G04 #@! TO.N,/1.8V*
X113937500Y-84000000D03*
D13*
G04 #@! TO.N,VCC*
G04 #@! TO.C,C3*
G36*
X112262642Y-89301174D02*
X112286303Y-89304684D01*
X112309507Y-89310496D01*
X112332029Y-89318554D01*
X112353653Y-89328782D01*
X112374170Y-89341079D01*
X112393383Y-89355329D01*
X112411107Y-89371393D01*
X112427171Y-89389117D01*
X112441421Y-89408330D01*
X112453718Y-89428847D01*
X112463946Y-89450471D01*
X112472004Y-89472993D01*
X112477816Y-89496197D01*
X112481326Y-89519858D01*
X112482500Y-89543750D01*
X112482500Y-90456250D01*
X112481326Y-90480142D01*
X112477816Y-90503803D01*
X112472004Y-90527007D01*
X112463946Y-90549529D01*
X112453718Y-90571153D01*
X112441421Y-90591670D01*
X112427171Y-90610883D01*
X112411107Y-90628607D01*
X112393383Y-90644671D01*
X112374170Y-90658921D01*
X112353653Y-90671218D01*
X112332029Y-90681446D01*
X112309507Y-90689504D01*
X112286303Y-90695316D01*
X112262642Y-90698826D01*
X112238750Y-90700000D01*
X111751250Y-90700000D01*
X111727358Y-90698826D01*
X111703697Y-90695316D01*
X111680493Y-90689504D01*
X111657971Y-90681446D01*
X111636347Y-90671218D01*
X111615830Y-90658921D01*
X111596617Y-90644671D01*
X111578893Y-90628607D01*
X111562829Y-90610883D01*
X111548579Y-90591670D01*
X111536282Y-90571153D01*
X111526054Y-90549529D01*
X111517996Y-90527007D01*
X111512184Y-90503803D01*
X111508674Y-90480142D01*
X111507500Y-90456250D01*
X111507500Y-89543750D01*
X111508674Y-89519858D01*
X111512184Y-89496197D01*
X111517996Y-89472993D01*
X111526054Y-89450471D01*
X111536282Y-89428847D01*
X111548579Y-89408330D01*
X111562829Y-89389117D01*
X111578893Y-89371393D01*
X111596617Y-89355329D01*
X111615830Y-89341079D01*
X111636347Y-89328782D01*
X111657971Y-89318554D01*
X111680493Y-89310496D01*
X111703697Y-89304684D01*
X111727358Y-89301174D01*
X111751250Y-89300000D01*
X112238750Y-89300000D01*
X112262642Y-89301174D01*
X112262642Y-89301174D01*
G37*
D15*
G04 #@! TD*
G04 #@! TO.P,C3,1*
G04 #@! TO.N,VCC*
X111995000Y-90000000D03*
D13*
G04 #@! TO.N,GND*
G04 #@! TO.C,C3*
G36*
X114137642Y-89301174D02*
X114161303Y-89304684D01*
X114184507Y-89310496D01*
X114207029Y-89318554D01*
X114228653Y-89328782D01*
X114249170Y-89341079D01*
X114268383Y-89355329D01*
X114286107Y-89371393D01*
X114302171Y-89389117D01*
X114316421Y-89408330D01*
X114328718Y-89428847D01*
X114338946Y-89450471D01*
X114347004Y-89472993D01*
X114352816Y-89496197D01*
X114356326Y-89519858D01*
X114357500Y-89543750D01*
X114357500Y-90456250D01*
X114356326Y-90480142D01*
X114352816Y-90503803D01*
X114347004Y-90527007D01*
X114338946Y-90549529D01*
X114328718Y-90571153D01*
X114316421Y-90591670D01*
X114302171Y-90610883D01*
X114286107Y-90628607D01*
X114268383Y-90644671D01*
X114249170Y-90658921D01*
X114228653Y-90671218D01*
X114207029Y-90681446D01*
X114184507Y-90689504D01*
X114161303Y-90695316D01*
X114137642Y-90698826D01*
X114113750Y-90700000D01*
X113626250Y-90700000D01*
X113602358Y-90698826D01*
X113578697Y-90695316D01*
X113555493Y-90689504D01*
X113532971Y-90681446D01*
X113511347Y-90671218D01*
X113490830Y-90658921D01*
X113471617Y-90644671D01*
X113453893Y-90628607D01*
X113437829Y-90610883D01*
X113423579Y-90591670D01*
X113411282Y-90571153D01*
X113401054Y-90549529D01*
X113392996Y-90527007D01*
X113387184Y-90503803D01*
X113383674Y-90480142D01*
X113382500Y-90456250D01*
X113382500Y-89543750D01*
X113383674Y-89519858D01*
X113387184Y-89496197D01*
X113392996Y-89472993D01*
X113401054Y-89450471D01*
X113411282Y-89428847D01*
X113423579Y-89408330D01*
X113437829Y-89389117D01*
X113453893Y-89371393D01*
X113471617Y-89355329D01*
X113490830Y-89341079D01*
X113511347Y-89328782D01*
X113532971Y-89318554D01*
X113555493Y-89310496D01*
X113578697Y-89304684D01*
X113602358Y-89301174D01*
X113626250Y-89300000D01*
X114113750Y-89300000D01*
X114137642Y-89301174D01*
X114137642Y-89301174D01*
G37*
D15*
G04 #@! TD*
G04 #@! TO.P,C3,2*
G04 #@! TO.N,GND*
X113870000Y-90000000D03*
D13*
G04 #@! TO.N,GND*
G04 #@! TO.C,C2*
G36*
X117480142Y-93451174D02*
X117503803Y-93454684D01*
X117527007Y-93460496D01*
X117549529Y-93468554D01*
X117571153Y-93478782D01*
X117591670Y-93491079D01*
X117610883Y-93505329D01*
X117628607Y-93521393D01*
X117644671Y-93539117D01*
X117658921Y-93558330D01*
X117671218Y-93578847D01*
X117681446Y-93600471D01*
X117689504Y-93622993D01*
X117695316Y-93646197D01*
X117698826Y-93669858D01*
X117700000Y-93693750D01*
X117700000Y-94181250D01*
X117698826Y-94205142D01*
X117695316Y-94228803D01*
X117689504Y-94252007D01*
X117681446Y-94274529D01*
X117671218Y-94296153D01*
X117658921Y-94316670D01*
X117644671Y-94335883D01*
X117628607Y-94353607D01*
X117610883Y-94369671D01*
X117591670Y-94383921D01*
X117571153Y-94396218D01*
X117549529Y-94406446D01*
X117527007Y-94414504D01*
X117503803Y-94420316D01*
X117480142Y-94423826D01*
X117456250Y-94425000D01*
X116543750Y-94425000D01*
X116519858Y-94423826D01*
X116496197Y-94420316D01*
X116472993Y-94414504D01*
X116450471Y-94406446D01*
X116428847Y-94396218D01*
X116408330Y-94383921D01*
X116389117Y-94369671D01*
X116371393Y-94353607D01*
X116355329Y-94335883D01*
X116341079Y-94316670D01*
X116328782Y-94296153D01*
X116318554Y-94274529D01*
X116310496Y-94252007D01*
X116304684Y-94228803D01*
X116301174Y-94205142D01*
X116300000Y-94181250D01*
X116300000Y-93693750D01*
X116301174Y-93669858D01*
X116304684Y-93646197D01*
X116310496Y-93622993D01*
X116318554Y-93600471D01*
X116328782Y-93578847D01*
X116341079Y-93558330D01*
X116355329Y-93539117D01*
X116371393Y-93521393D01*
X116389117Y-93505329D01*
X116408330Y-93491079D01*
X116428847Y-93478782D01*
X116450471Y-93468554D01*
X116472993Y-93460496D01*
X116496197Y-93454684D01*
X116519858Y-93451174D01*
X116543750Y-93450000D01*
X117456250Y-93450000D01*
X117480142Y-93451174D01*
X117480142Y-93451174D01*
G37*
D15*
G04 #@! TD*
G04 #@! TO.P,C2,2*
G04 #@! TO.N,GND*
X117000000Y-93937500D03*
D13*
G04 #@! TO.N,/2.8V*
G04 #@! TO.C,C2*
G36*
X117480142Y-91576174D02*
X117503803Y-91579684D01*
X117527007Y-91585496D01*
X117549529Y-91593554D01*
X117571153Y-91603782D01*
X117591670Y-91616079D01*
X117610883Y-91630329D01*
X117628607Y-91646393D01*
X117644671Y-91664117D01*
X117658921Y-91683330D01*
X117671218Y-91703847D01*
X117681446Y-91725471D01*
X117689504Y-91747993D01*
X117695316Y-91771197D01*
X117698826Y-91794858D01*
X117700000Y-91818750D01*
X117700000Y-92306250D01*
X117698826Y-92330142D01*
X117695316Y-92353803D01*
X117689504Y-92377007D01*
X117681446Y-92399529D01*
X117671218Y-92421153D01*
X117658921Y-92441670D01*
X117644671Y-92460883D01*
X117628607Y-92478607D01*
X117610883Y-92494671D01*
X117591670Y-92508921D01*
X117571153Y-92521218D01*
X117549529Y-92531446D01*
X117527007Y-92539504D01*
X117503803Y-92545316D01*
X117480142Y-92548826D01*
X117456250Y-92550000D01*
X116543750Y-92550000D01*
X116519858Y-92548826D01*
X116496197Y-92545316D01*
X116472993Y-92539504D01*
X116450471Y-92531446D01*
X116428847Y-92521218D01*
X116408330Y-92508921D01*
X116389117Y-92494671D01*
X116371393Y-92478607D01*
X116355329Y-92460883D01*
X116341079Y-92441670D01*
X116328782Y-92421153D01*
X116318554Y-92399529D01*
X116310496Y-92377007D01*
X116304684Y-92353803D01*
X116301174Y-92330142D01*
X116300000Y-92306250D01*
X116300000Y-91818750D01*
X116301174Y-91794858D01*
X116304684Y-91771197D01*
X116310496Y-91747993D01*
X116318554Y-91725471D01*
X116328782Y-91703847D01*
X116341079Y-91683330D01*
X116355329Y-91664117D01*
X116371393Y-91646393D01*
X116389117Y-91630329D01*
X116408330Y-91616079D01*
X116428847Y-91603782D01*
X116450471Y-91593554D01*
X116472993Y-91585496D01*
X116496197Y-91579684D01*
X116519858Y-91576174D01*
X116543750Y-91575000D01*
X117456250Y-91575000D01*
X117480142Y-91576174D01*
X117480142Y-91576174D01*
G37*
D15*
G04 #@! TD*
G04 #@! TO.P,C2,1*
G04 #@! TO.N,/2.8V*
X117000000Y-92062500D03*
D13*
G04 #@! TO.N,VCC*
G04 #@! TO.C,C1*
G36*
X112392642Y-95301174D02*
X112416303Y-95304684D01*
X112439507Y-95310496D01*
X112462029Y-95318554D01*
X112483653Y-95328782D01*
X112504170Y-95341079D01*
X112523383Y-95355329D01*
X112541107Y-95371393D01*
X112557171Y-95389117D01*
X112571421Y-95408330D01*
X112583718Y-95428847D01*
X112593946Y-95450471D01*
X112602004Y-95472993D01*
X112607816Y-95496197D01*
X112611326Y-95519858D01*
X112612500Y-95543750D01*
X112612500Y-96456250D01*
X112611326Y-96480142D01*
X112607816Y-96503803D01*
X112602004Y-96527007D01*
X112593946Y-96549529D01*
X112583718Y-96571153D01*
X112571421Y-96591670D01*
X112557171Y-96610883D01*
X112541107Y-96628607D01*
X112523383Y-96644671D01*
X112504170Y-96658921D01*
X112483653Y-96671218D01*
X112462029Y-96681446D01*
X112439507Y-96689504D01*
X112416303Y-96695316D01*
X112392642Y-96698826D01*
X112368750Y-96700000D01*
X111881250Y-96700000D01*
X111857358Y-96698826D01*
X111833697Y-96695316D01*
X111810493Y-96689504D01*
X111787971Y-96681446D01*
X111766347Y-96671218D01*
X111745830Y-96658921D01*
X111726617Y-96644671D01*
X111708893Y-96628607D01*
X111692829Y-96610883D01*
X111678579Y-96591670D01*
X111666282Y-96571153D01*
X111656054Y-96549529D01*
X111647996Y-96527007D01*
X111642184Y-96503803D01*
X111638674Y-96480142D01*
X111637500Y-96456250D01*
X111637500Y-95543750D01*
X111638674Y-95519858D01*
X111642184Y-95496197D01*
X111647996Y-95472993D01*
X111656054Y-95450471D01*
X111666282Y-95428847D01*
X111678579Y-95408330D01*
X111692829Y-95389117D01*
X111708893Y-95371393D01*
X111726617Y-95355329D01*
X111745830Y-95341079D01*
X111766347Y-95328782D01*
X111787971Y-95318554D01*
X111810493Y-95310496D01*
X111833697Y-95304684D01*
X111857358Y-95301174D01*
X111881250Y-95300000D01*
X112368750Y-95300000D01*
X112392642Y-95301174D01*
X112392642Y-95301174D01*
G37*
D15*
G04 #@! TD*
G04 #@! TO.P,C1,1*
G04 #@! TO.N,VCC*
X112125000Y-96000000D03*
D13*
G04 #@! TO.N,GND*
G04 #@! TO.C,C1*
G36*
X114267642Y-95301174D02*
X114291303Y-95304684D01*
X114314507Y-95310496D01*
X114337029Y-95318554D01*
X114358653Y-95328782D01*
X114379170Y-95341079D01*
X114398383Y-95355329D01*
X114416107Y-95371393D01*
X114432171Y-95389117D01*
X114446421Y-95408330D01*
X114458718Y-95428847D01*
X114468946Y-95450471D01*
X114477004Y-95472993D01*
X114482816Y-95496197D01*
X114486326Y-95519858D01*
X114487500Y-95543750D01*
X114487500Y-96456250D01*
X114486326Y-96480142D01*
X114482816Y-96503803D01*
X114477004Y-96527007D01*
X114468946Y-96549529D01*
X114458718Y-96571153D01*
X114446421Y-96591670D01*
X114432171Y-96610883D01*
X114416107Y-96628607D01*
X114398383Y-96644671D01*
X114379170Y-96658921D01*
X114358653Y-96671218D01*
X114337029Y-96681446D01*
X114314507Y-96689504D01*
X114291303Y-96695316D01*
X114267642Y-96698826D01*
X114243750Y-96700000D01*
X113756250Y-96700000D01*
X113732358Y-96698826D01*
X113708697Y-96695316D01*
X113685493Y-96689504D01*
X113662971Y-96681446D01*
X113641347Y-96671218D01*
X113620830Y-96658921D01*
X113601617Y-96644671D01*
X113583893Y-96628607D01*
X113567829Y-96610883D01*
X113553579Y-96591670D01*
X113541282Y-96571153D01*
X113531054Y-96549529D01*
X113522996Y-96527007D01*
X113517184Y-96503803D01*
X113513674Y-96480142D01*
X113512500Y-96456250D01*
X113512500Y-95543750D01*
X113513674Y-95519858D01*
X113517184Y-95496197D01*
X113522996Y-95472993D01*
X113531054Y-95450471D01*
X113541282Y-95428847D01*
X113553579Y-95408330D01*
X113567829Y-95389117D01*
X113583893Y-95371393D01*
X113601617Y-95355329D01*
X113620830Y-95341079D01*
X113641347Y-95328782D01*
X113662971Y-95318554D01*
X113685493Y-95310496D01*
X113708697Y-95304684D01*
X113732358Y-95301174D01*
X113756250Y-95300000D01*
X114243750Y-95300000D01*
X114267642Y-95301174D01*
X114267642Y-95301174D01*
G37*
D15*
G04 #@! TD*
G04 #@! TO.P,C1,2*
G04 #@! TO.N,GND*
X114000000Y-96000000D03*
D16*
G04 #@! TO.P,J1,1*
G04 #@! TO.N,VCC*
X112000000Y-100000000D03*
D17*
G04 #@! TO.P,J1,2*
G04 #@! TO.N,GND*
X114540000Y-100000000D03*
G04 #@! TO.P,J1,3*
G04 #@! TO.N,/RS*
X117080000Y-100000000D03*
G04 #@! TO.P,J1,4*
G04 #@! TO.N,/SDA*
X119620000Y-100000000D03*
G04 #@! TO.P,J1,5*
G04 #@! TO.N,/SCLK*
X122160000Y-100000000D03*
G04 #@! TO.P,J1,6*
G04 #@! TO.N,/FMARK*
X124700000Y-100000000D03*
G04 #@! TO.P,J1,7*
G04 #@! TO.N,/CS*
X127240000Y-100000000D03*
G04 #@! TO.P,J1,8*
G04 #@! TO.N,/RESET*
X129780000Y-100000000D03*
G04 #@! TO.P,J1,9*
G04 #@! TO.N,N/C*
X132320000Y-100000000D03*
G04 #@! TD*
D18*
G04 #@! TO.P,U3,3*
G04 #@! TO.N,VCC*
X112000000Y-87000000D03*
G04 #@! TO.P,U3,2*
G04 #@! TO.N,/1.8V*
X114000000Y-86050000D03*
G04 #@! TO.P,U3,1*
G04 #@! TO.N,GND*
X114000000Y-87950000D03*
G04 #@! TD*
G04 #@! TO.P,U2,1*
G04 #@! TO.N,GND*
X114000000Y-94000000D03*
G04 #@! TO.P,U2,2*
G04 #@! TO.N,/2.8V*
X114000000Y-92100000D03*
G04 #@! TO.P,U2,3*
G04 #@! TO.N,VCC*
X112000000Y-93050000D03*
G04 #@! TD*
D19*
G04 #@! TO.N,GND*
X115443000Y-90043000D03*
X115570000Y-95885000D03*
X128397000Y-87757000D03*
X131191000Y-94488000D03*
G04 #@! TO.N,VCC*
X127750000Y-96500000D03*
G04 #@! TO.N,/1.8V*
X126492000Y-80010000D03*
X126365000Y-87720000D03*
G04 #@! TO.N,/CS_1.8*
X125148001Y-90943128D03*
X124714000Y-79502000D03*
G04 #@! TO.N,/RS_1.8*
X121666000Y-91059000D03*
X124079000Y-82931000D03*
G04 #@! TO.N,/FMARK_1.8*
X123698000Y-91059000D03*
X123317000Y-79502000D03*
G04 #@! TD*
D20*
G04 #@! TO.N,GND*
X114000000Y-89875000D02*
X113875000Y-90000000D01*
D21*
X114000000Y-87950000D02*
X114000000Y-89875000D01*
X114000000Y-96000000D02*
X114000000Y-94000000D01*
D20*
X116937500Y-94000000D02*
X117000000Y-93937500D01*
X121075000Y-95750000D02*
X121075000Y-94900000D01*
X120575000Y-96250000D02*
X121075000Y-95750000D01*
X117250000Y-96250000D02*
X120575000Y-96250000D01*
X117000000Y-96000000D02*
X117250000Y-96250000D01*
D21*
X113870000Y-90000000D02*
X115146000Y-90000000D01*
D20*
X115146000Y-90000000D02*
X115189000Y-90043000D01*
X115189000Y-90043000D02*
X115443000Y-90043000D01*
X114115000Y-95885000D02*
X114000000Y-96000000D01*
D21*
X115570000Y-95885000D02*
X114115000Y-95885000D01*
D20*
X117000000Y-93937500D02*
X117000000Y-95377000D01*
X115570000Y-94127000D02*
X115443000Y-94000000D01*
D21*
X115570000Y-95885000D02*
X115570000Y-94127000D01*
X114000000Y-94000000D02*
X115443000Y-94000000D01*
X115443000Y-94000000D02*
X116937500Y-94000000D01*
D20*
X116873000Y-95885000D02*
X117000000Y-95758000D01*
D21*
X115570000Y-95885000D02*
X116873000Y-95885000D01*
D20*
X117000000Y-95377000D02*
X117000000Y-95758000D01*
X117000000Y-95758000D02*
X117000000Y-96000000D01*
X122555000Y-83185000D02*
X122871000Y-83501000D01*
X122271000Y-85158000D02*
X122271000Y-83469000D01*
X122271000Y-83469000D02*
X122555000Y-83185000D01*
X122555000Y-83092000D02*
X122555000Y-83185000D01*
X121971000Y-82508000D02*
X122555000Y-83092000D01*
X121971000Y-81508000D02*
X121971000Y-82508000D01*
X125571000Y-82836000D02*
X125571000Y-81508000D01*
X124714000Y-83693000D02*
X125571000Y-82836000D01*
X122871000Y-83693000D02*
X124714000Y-83693000D01*
X122871000Y-83693000D02*
X122871000Y-85158000D01*
X122871000Y-83501000D02*
X122871000Y-83693000D01*
X112062500Y-84000000D02*
X112062500Y-83200000D01*
X112062500Y-79707500D02*
X112062500Y-84000000D01*
X112395000Y-79375000D02*
X112062500Y-79707500D01*
X121666000Y-79375000D02*
X112395000Y-79375000D01*
X121971000Y-81508000D02*
X121971000Y-79680000D01*
X121971000Y-79680000D02*
X121666000Y-79375000D01*
D22*
X128397000Y-89027000D02*
X128397000Y-87757000D01*
D20*
X129431000Y-94488000D02*
X129413000Y-94470000D01*
D21*
X131191000Y-94488000D02*
X129431000Y-94488000D01*
G04 #@! TO.N,VCC*
X112000000Y-87000000D02*
X112000000Y-90000000D01*
X112000000Y-90000000D02*
X112000000Y-93050000D01*
D20*
X112000000Y-95875000D02*
X112125000Y-96000000D01*
D21*
X112000000Y-93050000D02*
X112000000Y-95875000D01*
D20*
X112125000Y-99875000D02*
X112000000Y-100000000D01*
D23*
X112125000Y-96000000D02*
X112125000Y-99875000D01*
D20*
X127025000Y-96500000D02*
X127750000Y-96500000D01*
X126275000Y-94900000D02*
X126275000Y-95750000D01*
X126275000Y-95750000D02*
X127025000Y-96500000D01*
X127770000Y-96520000D02*
X127750000Y-96500000D01*
X129413000Y-96520000D02*
X127770000Y-96520000D01*
G04 #@! TO.N,/1.8V*
X114012500Y-86062500D02*
X114000000Y-86050000D01*
X114000000Y-84062500D02*
X113937500Y-84000000D01*
D22*
X114000000Y-86050000D02*
X114000000Y-84062500D01*
D20*
X127597000Y-91077000D02*
X128397000Y-91077000D01*
X127402000Y-91077000D02*
X127597000Y-91077000D01*
X126275000Y-89950000D02*
X127402000Y-91077000D01*
X126275000Y-89100000D02*
X126275000Y-89950000D01*
X124971000Y-80508000D02*
X125469000Y-80010000D01*
X124971000Y-81508000D02*
X124971000Y-80508000D01*
X125469000Y-80010000D02*
X126492000Y-80010000D01*
X126275000Y-87810000D02*
X126365000Y-87720000D01*
X126275000Y-89100000D02*
X126275000Y-87810000D01*
D22*
X128397000Y-91752000D02*
X127820000Y-92329000D01*
X128397000Y-91077000D02*
X128397000Y-91752000D01*
X127820000Y-92329000D02*
X120777000Y-92329000D01*
X119380000Y-90932000D02*
X119380000Y-88537000D01*
X120777000Y-92329000D02*
X119380000Y-90932000D01*
X114000000Y-86050000D02*
X115133000Y-86050000D01*
X119380000Y-88537000D02*
X117747000Y-88537000D01*
D20*
X115260000Y-86050000D02*
X114000000Y-86050000D01*
D22*
X117747000Y-88537000D02*
X115260000Y-86050000D01*
D20*
G04 #@! TO.N,/RESET*
X124975000Y-95750000D02*
X127475000Y-98250000D01*
X124975000Y-94900000D02*
X124975000Y-95750000D01*
X128030000Y-98250000D02*
X129780000Y-100000000D01*
X127475000Y-98250000D02*
X128030000Y-98250000D01*
G04 #@! TO.N,/SCLK*
X123025000Y-95750000D02*
X123025000Y-94900000D01*
X123025000Y-97932919D02*
X123025000Y-95750000D01*
X122160000Y-98797919D02*
X123025000Y-97932919D01*
X122160000Y-100000000D02*
X122160000Y-98797919D01*
G04 #@! TO.N,/SDA*
X120469999Y-99150001D02*
X120469999Y-98030001D01*
X119620000Y-100000000D02*
X120469999Y-99150001D01*
X122375000Y-96125000D02*
X122000000Y-96500000D01*
X122375000Y-94900000D02*
X122375000Y-96125000D01*
X120469999Y-98030001D02*
X122000000Y-96500000D01*
G04 #@! TO.N,/CS*
X124325000Y-97085000D02*
X127240000Y-100000000D01*
X124325000Y-94900000D02*
X124325000Y-97085000D01*
G04 #@! TO.N,/RS*
X117080000Y-100000000D02*
X117929999Y-99150001D01*
X121725000Y-96025000D02*
X121725000Y-94900000D01*
X120750000Y-97000000D02*
X121725000Y-96025000D01*
X120080000Y-97000000D02*
X117080000Y-100000000D01*
X120750000Y-97000000D02*
X120080000Y-97000000D01*
G04 #@! TO.N,/FMARK*
X123675000Y-95750000D02*
X123675000Y-94900000D01*
X123675000Y-97772919D02*
X123675000Y-95750000D01*
X124700000Y-98797919D02*
X123675000Y-97772919D01*
X124700000Y-100000000D02*
X124700000Y-98797919D01*
G04 #@! TO.N,/LEDA*
X122571000Y-81508000D02*
X122571000Y-79740000D01*
X122571000Y-79740000D02*
X122571000Y-79174998D01*
X122571000Y-79174998D02*
X122968999Y-78776999D01*
X128016000Y-78776999D02*
X128179999Y-78776999D01*
X129413000Y-79883000D02*
X129500000Y-79970000D01*
X128016000Y-78776999D02*
X128306999Y-78776999D01*
X128778000Y-79248000D02*
X129413000Y-79883000D01*
X128306999Y-78776999D02*
X129413000Y-79883000D01*
X122968999Y-78776999D02*
X128016000Y-78776999D01*
X129500000Y-79970000D02*
X129500000Y-82250000D01*
G04 #@! TO.N,/2.8V*
X114037500Y-92062500D02*
X114000000Y-92100000D01*
D21*
X117000000Y-92062500D02*
X114037500Y-92062500D01*
D22*
X120142000Y-93218000D02*
X118986500Y-92062500D01*
X128397000Y-93218000D02*
X120142000Y-93218000D01*
X129500000Y-92115000D02*
X128397000Y-93218000D01*
D20*
X118999000Y-92050000D02*
X118986500Y-92062500D01*
D22*
X117983000Y-92062500D02*
X117000000Y-92062500D01*
X118986500Y-92062500D02*
X117983000Y-92062500D01*
X129500000Y-84300000D02*
X129500000Y-92115000D01*
D20*
X125603000Y-86995000D02*
X125271000Y-86663000D01*
X125271000Y-86663000D02*
X125271000Y-85158000D01*
X126873000Y-86995000D02*
X125603000Y-86995000D01*
X127635000Y-86233000D02*
X126873000Y-86995000D01*
X127635000Y-84455000D02*
X127635000Y-86233000D01*
X127790000Y-84300000D02*
X127635000Y-84455000D01*
X129500000Y-84300000D02*
X127790000Y-84300000D01*
G04 #@! TO.N,/RESET_1.8*
X124671000Y-86158000D02*
X124671000Y-85158000D01*
X124671000Y-86699410D02*
X124671000Y-86158000D01*
X124975000Y-87003410D02*
X124671000Y-86699410D01*
X124975000Y-89100000D02*
X124975000Y-87003410D01*
G04 #@! TO.N,/SCLK_1.8*
X123000000Y-89075000D02*
X123025000Y-89100000D01*
X124071000Y-86158000D02*
X124071000Y-85158000D01*
X124071000Y-86369410D02*
X124071000Y-86158000D01*
X123025000Y-87415410D02*
X124071000Y-86369410D01*
X123025000Y-89100000D02*
X123025000Y-87415410D01*
G04 #@! TO.N,/SDA_1.8*
X123471000Y-86333000D02*
X123471000Y-85158000D01*
X122375000Y-89100000D02*
X122375000Y-87429000D01*
X122375000Y-87429000D02*
X123471000Y-86333000D01*
G04 #@! TO.N,/CS_1.8*
X124325000Y-89100000D02*
X124325000Y-90120127D01*
X124325000Y-90120127D02*
X125148001Y-90943128D01*
X124371000Y-81508000D02*
X124371000Y-80226000D01*
X124371000Y-80226000D02*
X124371000Y-79845000D01*
X124371000Y-79845000D02*
X124714000Y-79502000D01*
G04 #@! TO.N,/RS_1.8*
X121725000Y-91000000D02*
X121666000Y-91059000D01*
X121725000Y-89100000D02*
X121725000Y-91000000D01*
X123771000Y-81508000D02*
X123771000Y-82623000D01*
X123771000Y-82623000D02*
X124079000Y-82931000D01*
G04 #@! TO.N,/FMARK_1.8*
X123171000Y-81508000D02*
X123171000Y-80203153D01*
X123698000Y-89123000D02*
X123675000Y-89100000D01*
X123698000Y-91059000D02*
X123698000Y-89123000D01*
X123171000Y-79648000D02*
X123171000Y-81508000D01*
X123317000Y-79502000D02*
X123171000Y-79648000D01*
G04 #@! TO.N,Net-(IC1-Pad10)*
X121075000Y-87166000D02*
X120396000Y-86487000D01*
X121075000Y-89100000D02*
X121075000Y-87166000D01*
X119380000Y-86487000D02*
X120396000Y-86487000D01*
G04 #@! TO.N,Net-(TP18-Pad1)*
X120595154Y-48835548D02*
X120393154Y-48633548D01*
X120595154Y-49835548D02*
X120595154Y-48835548D01*
X116588153Y-47752547D02*
X117469154Y-48633548D01*
X116588153Y-47525547D02*
X116588153Y-47752547D01*
X115838154Y-46775548D02*
X116588153Y-47525547D01*
X120393154Y-48633548D02*
X117469154Y-48633548D01*
G04 #@! TO.N,Net-(IC2-Pad1)*
X124681500Y-65477500D02*
X125174000Y-64985000D01*
X124231500Y-65477500D02*
X124681500Y-65477500D01*
X134356000Y-61985000D02*
X134356000Y-63985000D01*
X133356000Y-64985000D02*
X132356000Y-64985000D01*
X134356000Y-63985000D02*
X133356000Y-64985000D01*
X125174000Y-64985000D02*
X132356000Y-64985000D01*
X132356000Y-64985000D02*
X132856000Y-64985000D01*
G04 #@! TO.N,Net-(TP19-Pad1)*
X121195154Y-48835548D02*
X121195154Y-49835548D01*
X121195154Y-48799138D02*
X121195154Y-48835548D01*
X120246565Y-47850549D02*
X121195154Y-48799138D01*
X119413155Y-47850549D02*
X120246565Y-47850549D01*
X118338154Y-46775548D02*
X119413155Y-47850549D01*
G04 #@! TO.N,Net-(TP11-Pad1)*
X120295154Y-53485548D02*
X120295154Y-54950138D01*
X115969153Y-56239549D02*
X115219154Y-56989548D01*
X116744165Y-55464537D02*
X115969153Y-56239549D01*
X119780755Y-55464537D02*
X116744165Y-55464537D01*
X120295154Y-54950138D02*
X119780755Y-55464537D01*
G04 #@! TO.N,Net-(TP12-Pad1)*
X118794155Y-55914547D02*
X117719154Y-56989548D01*
X119967155Y-55914547D02*
X118794155Y-55914547D01*
X120895154Y-53485548D02*
X120895154Y-54986548D01*
X120895154Y-54986548D02*
X119967155Y-55914547D01*
G04 #@! TO.N,Net-(TP13-Pad1)*
X121495154Y-55713548D02*
X120219154Y-56989548D01*
X121495154Y-53485548D02*
X121495154Y-55713548D01*
G04 #@! TO.N,Net-(TP14-Pad1)*
X122095154Y-54485548D02*
X122095154Y-53485548D01*
X122095154Y-55304888D02*
X122095154Y-54485548D01*
X122719154Y-55928888D02*
X122095154Y-55304888D01*
X122719154Y-56989548D02*
X122719154Y-55928888D01*
G04 #@! TO.N,Net-(TP15-Pad1)*
X122695154Y-53485548D02*
X122695154Y-55129548D01*
X122695154Y-55129548D02*
X123438154Y-55872548D01*
X124102154Y-55872548D02*
X125219154Y-56989548D01*
X123438154Y-55872548D02*
X124102154Y-55872548D01*
G04 #@! TO.N,Net-(TP16-Pad1)*
X126681654Y-55872548D02*
X127978153Y-57169047D01*
X124835154Y-55872548D02*
X126681654Y-55872548D01*
X123295154Y-54967548D02*
X123750144Y-55422538D01*
X123295154Y-54348548D02*
X123295154Y-54967548D01*
X123295154Y-54348548D02*
X123295154Y-54485548D01*
X123295154Y-53485548D02*
X123295154Y-54348548D01*
X124385144Y-55422538D02*
X124835154Y-55872548D01*
X123750144Y-55422538D02*
X124385144Y-55422538D01*
G04 #@! TO.N,Net-(IC2-Pad4)*
X122281500Y-64627500D02*
X122281500Y-65477500D01*
X123547018Y-63361982D02*
X122281500Y-64627500D01*
X124979018Y-63361982D02*
X123547018Y-63361982D01*
X126356000Y-61985000D02*
X124979018Y-63361982D01*
G04 #@! TO.N,Net-(IC2-Pad19)*
X131018999Y-73360999D02*
X131018999Y-74485000D01*
X130556000Y-72898000D02*
X131018999Y-73360999D01*
X123581500Y-71277500D02*
X123581500Y-72012502D01*
X127760590Y-72898000D02*
X127252590Y-72390000D01*
X130556000Y-72898000D02*
X127760590Y-72898000D01*
X127252590Y-72390000D02*
X123958998Y-72390000D01*
X123581500Y-72012502D02*
X123958998Y-72390000D01*
G04 #@! TO.N,Net-(TP20-Pad1)*
X121588153Y-47525547D02*
X120838154Y-46775548D01*
X121645164Y-47582558D02*
X121588153Y-47525547D01*
X121645164Y-48685558D02*
X121645164Y-47582558D01*
X121795154Y-48835548D02*
X121645164Y-48685558D01*
X121795154Y-49835548D02*
X121795154Y-48835548D01*
G04 #@! TO.N,Net-(TP21-Pad1)*
X122395154Y-47718548D02*
X122395154Y-49835548D01*
X123338154Y-46775548D02*
X122395154Y-47718548D01*
G04 #@! TO.N,Net-(TP22-Pad1)*
X122995154Y-49835548D02*
X122995154Y-48835548D01*
X125838154Y-46775548D02*
X125088155Y-47525547D01*
X122995154Y-48799138D02*
X122995154Y-49835548D01*
X124268745Y-47525547D02*
X122995154Y-48799138D01*
X125088155Y-47525547D02*
X124268745Y-47525547D01*
G04 #@! TO.N,Net-(TP23-Pad1)*
X123595154Y-48835548D02*
X123924154Y-48506548D01*
X123595154Y-49835548D02*
X123595154Y-48835548D01*
X123924154Y-48506548D02*
X126613154Y-48506548D01*
X126613154Y-48500548D02*
X128338154Y-46775548D01*
X126613154Y-48506548D02*
X126613154Y-48500548D01*
G04 #@! TO.N,Net-(IC2-Pad3)*
X128106001Y-62734999D02*
X128106001Y-63282999D01*
X128856000Y-61985000D02*
X128106001Y-62734999D01*
X122931500Y-64627500D02*
X122931500Y-65477500D01*
X123747009Y-63811991D02*
X122931500Y-64627500D01*
X127577009Y-63811991D02*
X123747009Y-63811991D01*
X128106001Y-63282999D02*
X127577009Y-63811991D01*
G04 #@! TO.N,Net-(TP17-Pad1)*
X123895154Y-53485548D02*
X123895154Y-54678548D01*
X124189134Y-54972528D02*
X129523134Y-54972528D01*
X123895154Y-54678548D02*
X124189134Y-54972528D01*
X130219154Y-55668548D02*
X130219154Y-56989548D01*
X129523134Y-54972528D02*
X130219154Y-55668548D01*
G04 #@! TO.N,Net-(IC2-Pad8)*
X117105999Y-62734999D02*
X116356000Y-61985000D01*
X117788999Y-62734999D02*
X117105999Y-62734999D01*
X119681500Y-64627500D02*
X117788999Y-62734999D01*
X119681500Y-65477500D02*
X119681500Y-64627500D01*
G04 #@! TO.N,Net-(IC2-Pad17)*
X124764520Y-73290020D02*
X123328020Y-73290020D01*
X125856000Y-74381500D02*
X124764520Y-73290020D01*
X122281500Y-72243500D02*
X122281500Y-71277500D01*
X123328020Y-73290020D02*
X122281500Y-72243500D01*
G04 #@! TO.N,Net-(IC2-Pad5)*
X121631500Y-64209500D02*
X121631500Y-65477500D01*
X123856000Y-61985000D02*
X121631500Y-64209500D01*
G04 #@! TO.N,Net-(IC2-Pad6)*
X120981500Y-62359500D02*
X121356000Y-61985000D01*
X120981500Y-65477500D02*
X120981500Y-62359500D01*
G04 #@! TO.N,Net-(IC2-Pad12)*
X114105999Y-73735001D02*
X113356000Y-74485000D01*
X115266010Y-72574990D02*
X114105999Y-73735001D01*
X118584010Y-72574990D02*
X115266010Y-72574990D01*
X119031500Y-72127500D02*
X118584010Y-72574990D01*
X119031500Y-71277500D02*
X119031500Y-72127500D01*
G04 #@! TO.N,Net-(IC2-Pad13)*
X119681500Y-72127500D02*
X118784000Y-73025000D01*
X119681500Y-71277500D02*
X119681500Y-72127500D01*
X117212500Y-73025000D02*
X115856000Y-74381500D01*
X118784000Y-73025000D02*
X117212500Y-73025000D01*
G04 #@! TO.N,Net-(IC2-Pad14)*
X120331500Y-71277500D02*
X120331500Y-72509500D01*
X119105999Y-73735001D02*
X119304999Y-73735001D01*
X118356000Y-74485000D02*
X119105999Y-73735001D01*
X120331500Y-72708500D02*
X120331500Y-72509500D01*
X119304999Y-73735001D02*
X120331500Y-72708500D01*
G04 #@! TO.N,Net-(IC2-Pad15)*
X120981500Y-72127500D02*
X120981500Y-71277500D01*
X120981500Y-73298840D02*
X120981500Y-72127500D01*
X120856000Y-73424340D02*
X120981500Y-73298840D01*
X120856000Y-74485000D02*
X120856000Y-73424340D01*
G04 #@! TO.N,Net-(IC2-Pad2)*
X123581500Y-64627500D02*
X123947000Y-64262000D01*
X123581500Y-65477500D02*
X123581500Y-64627500D01*
X123947000Y-64262000D02*
X130556000Y-64262000D01*
X130556000Y-64262000D02*
X131064000Y-63754000D01*
X131064000Y-62777000D02*
X131064000Y-63754000D01*
X131856000Y-61985000D02*
X131064000Y-62777000D01*
G04 #@! TO.N,Net-(IC2-Pad18)*
X126824009Y-72840010D02*
X123640010Y-72840010D01*
X128468999Y-74485000D02*
X126824009Y-72840010D01*
X122931500Y-72131500D02*
X122931500Y-71277500D01*
X123640010Y-72840010D02*
X122931500Y-72131500D01*
G04 #@! TO.N,Net-(IC2-Pad20)*
X133356000Y-73424340D02*
X132321660Y-72390000D01*
X133356000Y-74485000D02*
X133356000Y-73424340D01*
X132321660Y-72390000D02*
X127889000Y-72390000D01*
X126776500Y-71277500D02*
X124231500Y-71277500D01*
X127889000Y-72390000D02*
X126776500Y-71277500D01*
G04 #@! TO.N,Net-(IC2-Pad11)*
X111605999Y-73735001D02*
X110856000Y-74485000D01*
X113216020Y-72124980D02*
X111605999Y-73735001D01*
X117084020Y-72124980D02*
X113216020Y-72124980D01*
X117931500Y-71277500D02*
X117084020Y-72124980D01*
X118381500Y-71277500D02*
X117931500Y-71277500D01*
G04 #@! TO.N,Net-(IC2-Pad10)*
X111356000Y-61985000D02*
X113633000Y-64262000D01*
X113633000Y-64262000D02*
X116332000Y-64262000D01*
X117547500Y-65477500D02*
X118110000Y-65477500D01*
X116332000Y-64262000D02*
X117547500Y-65477500D01*
X118381500Y-65477500D02*
X118110000Y-65477500D01*
X118110000Y-65477500D02*
X117801500Y-65477500D01*
G04 #@! TO.N,Net-(IC2-Pad7)*
X120331500Y-63460500D02*
X118856000Y-61985000D01*
X120331500Y-65477500D02*
X120331500Y-63460500D01*
G04 #@! TO.N,Net-(IC2-Pad9)*
X119031500Y-64627500D02*
X117777000Y-63373000D01*
X119031500Y-65477500D02*
X119031500Y-64627500D01*
X115244000Y-63373000D02*
X113856000Y-61985000D01*
X117777000Y-63373000D02*
X115244000Y-63373000D01*
G04 #@! TO.N,Net-(IC2-Pad16)*
X121631500Y-72760500D02*
X121631500Y-71277500D01*
X123356000Y-74485000D02*
X121631500Y-72760500D01*
G04 #@! TD*
D24*
G04 #@! TO.N,GND*
G36*
X138873000Y-79988552D02*
X134894009Y-101873000D01*
X109105991Y-101873000D01*
X108610901Y-99150000D01*
X110502560Y-99150000D01*
X110502560Y-100850000D01*
X110551843Y-101097765D01*
X110692191Y-101307809D01*
X110902235Y-101448157D01*
X111150000Y-101497440D01*
X112850000Y-101497440D01*
X113097765Y-101448157D01*
X113307809Y-101307809D01*
X113448157Y-101097765D01*
X113468739Y-100994292D01*
X113773076Y-101271645D01*
X114183110Y-101441476D01*
X114413000Y-101320155D01*
X114413000Y-100127000D01*
X114393000Y-100127000D01*
X114393000Y-99873000D01*
X114413000Y-99873000D01*
X114413000Y-98679845D01*
X114183110Y-98558524D01*
X113773076Y-98728355D01*
X113468739Y-99005708D01*
X113448157Y-98902235D01*
X113307809Y-98692191D01*
X113097765Y-98551843D01*
X113060000Y-98544331D01*
X113060000Y-97282000D01*
X113258238Y-97282000D01*
X113386191Y-97335000D01*
X113714250Y-97335000D01*
X113873000Y-97176250D01*
X113873000Y-96127000D01*
X114127000Y-96127000D01*
X114127000Y-97176250D01*
X114285750Y-97335000D01*
X114613809Y-97335000D01*
X114847198Y-97238327D01*
X115025827Y-97059699D01*
X115122500Y-96826310D01*
X115122500Y-96285750D01*
X114963750Y-96127000D01*
X114127000Y-96127000D01*
X113873000Y-96127000D01*
X113853000Y-96127000D01*
X113853000Y-95873000D01*
X113873000Y-95873000D01*
X113873000Y-94127000D01*
X114127000Y-94127000D01*
X114127000Y-95873000D01*
X114963750Y-95873000D01*
X115122500Y-95714250D01*
X115122500Y-95173690D01*
X115025827Y-94940301D01*
X114916775Y-94831250D01*
X114988327Y-94759699D01*
X115085000Y-94526310D01*
X115085000Y-94285750D01*
X115022500Y-94223250D01*
X115665000Y-94223250D01*
X115665000Y-94551309D01*
X115761673Y-94784698D01*
X115940301Y-94963327D01*
X116173690Y-95060000D01*
X116714250Y-95060000D01*
X116873000Y-94901250D01*
X116873000Y-94064500D01*
X117127000Y-94064500D01*
X117127000Y-94901250D01*
X117285750Y-95060000D01*
X117826310Y-95060000D01*
X118059699Y-94963327D01*
X118238327Y-94784698D01*
X118335000Y-94551309D01*
X118335000Y-94223250D01*
X118176250Y-94064500D01*
X117127000Y-94064500D01*
X116873000Y-94064500D01*
X115823750Y-94064500D01*
X115665000Y-94223250D01*
X115022500Y-94223250D01*
X114926250Y-94127000D01*
X114127000Y-94127000D01*
X113873000Y-94127000D01*
X113853000Y-94127000D01*
X113853000Y-93873000D01*
X113873000Y-93873000D01*
X113873000Y-93853000D01*
X114127000Y-93853000D01*
X114127000Y-93873000D01*
X114926250Y-93873000D01*
X115085000Y-93714250D01*
X115085000Y-93473690D01*
X114988327Y-93240301D01*
X114809698Y-93061673D01*
X114774306Y-93047013D01*
X114907809Y-92957809D01*
X114914697Y-92947500D01*
X115904474Y-92947500D01*
X115761673Y-93090302D01*
X115665000Y-93323691D01*
X115665000Y-93651750D01*
X115823750Y-93810500D01*
X116873000Y-93810500D01*
X116873000Y-93790500D01*
X117127000Y-93790500D01*
X117127000Y-93810500D01*
X118176250Y-93810500D01*
X118335000Y-93651750D01*
X118335000Y-93323691D01*
X118238327Y-93090302D01*
X118085233Y-92937207D01*
X118086416Y-92936416D01*
X118112419Y-92897500D01*
X118640633Y-92897500D01*
X119493415Y-93750282D01*
X119539999Y-93820001D01*
X119816199Y-94004552D01*
X120059763Y-94053000D01*
X120142000Y-94069358D01*
X120224237Y-94053000D01*
X120289991Y-94053000D01*
X120240000Y-94173690D01*
X120240000Y-94614250D01*
X120398750Y-94773000D01*
X120877560Y-94773000D01*
X120877560Y-95027000D01*
X120398750Y-95027000D01*
X120240000Y-95185750D01*
X120240000Y-95626310D01*
X120336673Y-95859699D01*
X120515302Y-96038327D01*
X120601265Y-96073934D01*
X120435199Y-96240000D01*
X120154848Y-96240000D01*
X120080000Y-96225112D01*
X120005152Y-96240000D01*
X120005148Y-96240000D01*
X119831605Y-96274520D01*
X119783462Y-96284096D01*
X119670655Y-96359472D01*
X119532071Y-96452071D01*
X119489671Y-96515527D01*
X117446408Y-98558791D01*
X117226256Y-98515000D01*
X116933744Y-98515000D01*
X116500582Y-98601161D01*
X116009375Y-98929375D01*
X115796157Y-99248478D01*
X115735183Y-99118642D01*
X115306924Y-98728355D01*
X114896890Y-98558524D01*
X114667000Y-98679845D01*
X114667000Y-99873000D01*
X114687000Y-99873000D01*
X114687000Y-100127000D01*
X114667000Y-100127000D01*
X114667000Y-101320155D01*
X114896890Y-101441476D01*
X115306924Y-101271645D01*
X115735183Y-100881358D01*
X115796157Y-100751522D01*
X116009375Y-101070625D01*
X116500582Y-101398839D01*
X116933744Y-101485000D01*
X117226256Y-101485000D01*
X117659418Y-101398839D01*
X118150625Y-101070625D01*
X118350000Y-100772239D01*
X118549375Y-101070625D01*
X119040582Y-101398839D01*
X119473744Y-101485000D01*
X119766256Y-101485000D01*
X120199418Y-101398839D01*
X120690625Y-101070625D01*
X120890000Y-100772239D01*
X121089375Y-101070625D01*
X121580582Y-101398839D01*
X122013744Y-101485000D01*
X122306256Y-101485000D01*
X122739418Y-101398839D01*
X123230625Y-101070625D01*
X123430000Y-100772239D01*
X123629375Y-101070625D01*
X124120582Y-101398839D01*
X124553744Y-101485000D01*
X124846256Y-101485000D01*
X125279418Y-101398839D01*
X125770625Y-101070625D01*
X125970000Y-100772239D01*
X126169375Y-101070625D01*
X126660582Y-101398839D01*
X127093744Y-101485000D01*
X127386256Y-101485000D01*
X127819418Y-101398839D01*
X128310625Y-101070625D01*
X128510000Y-100772239D01*
X128709375Y-101070625D01*
X129200582Y-101398839D01*
X129633744Y-101485000D01*
X129926256Y-101485000D01*
X130359418Y-101398839D01*
X130850625Y-101070625D01*
X131050000Y-100772239D01*
X131249375Y-101070625D01*
X131740582Y-101398839D01*
X132173744Y-101485000D01*
X132466256Y-101485000D01*
X132899418Y-101398839D01*
X133390625Y-101070625D01*
X133718839Y-100579418D01*
X133834092Y-100000000D01*
X133718839Y-99420582D01*
X133390625Y-98929375D01*
X132899418Y-98601161D01*
X132466256Y-98515000D01*
X132173744Y-98515000D01*
X131740582Y-98601161D01*
X131249375Y-98929375D01*
X131050000Y-99227761D01*
X130850625Y-98929375D01*
X130412158Y-98636401D01*
X130369314Y-97565295D01*
X130497586Y-97479586D01*
X130692127Y-97188436D01*
X130760440Y-96845001D01*
X130760440Y-96194999D01*
X130692127Y-95851564D01*
X130497586Y-95560414D01*
X130496403Y-95559623D01*
X130651327Y-95404698D01*
X130748000Y-95171309D01*
X130748000Y-94755750D01*
X130589250Y-94597000D01*
X129540000Y-94597000D01*
X129540000Y-94343000D01*
X130589250Y-94343000D01*
X130748000Y-94184250D01*
X130748000Y-93768691D01*
X130651327Y-93535302D01*
X130472699Y-93356673D01*
X130302000Y-93285967D01*
X130302000Y-92363139D01*
X130335000Y-92197237D01*
X130351358Y-92115000D01*
X130335000Y-92032763D01*
X130335000Y-85426355D01*
X130584586Y-85259586D01*
X130779127Y-84968436D01*
X130847440Y-84625001D01*
X130847440Y-83974999D01*
X130779127Y-83631564D01*
X130584586Y-83340414D01*
X130486687Y-83275000D01*
X130584586Y-83209586D01*
X130779127Y-82918436D01*
X130847440Y-82575001D01*
X130847440Y-81924999D01*
X130779127Y-81581564D01*
X130584586Y-81290414D01*
X130293436Y-81095873D01*
X130260000Y-81089222D01*
X130260000Y-80044848D01*
X130274888Y-79970000D01*
X130260000Y-79895152D01*
X130260000Y-79895148D01*
X130215904Y-79673463D01*
X130047929Y-79422071D01*
X129984473Y-79379671D01*
X128897330Y-78292529D01*
X128854928Y-78229070D01*
X128603536Y-78061095D01*
X128381851Y-78016999D01*
X128381846Y-78016999D01*
X128306999Y-78002111D01*
X128232152Y-78016999D01*
X123043847Y-78016999D01*
X122968999Y-78002111D01*
X122894151Y-78016999D01*
X122894147Y-78016999D01*
X122672462Y-78061095D01*
X122421070Y-78229070D01*
X122378668Y-78292529D01*
X122086528Y-78584669D01*
X122023072Y-78627069D01*
X121855096Y-78878461D01*
X121811000Y-79100146D01*
X121811000Y-79100151D01*
X121796112Y-79174998D01*
X121811000Y-79249845D01*
X121811000Y-79814851D01*
X121811001Y-79814856D01*
X121811001Y-79883000D01*
X120650000Y-79883000D01*
X120601399Y-79892667D01*
X120560197Y-79920197D01*
X120532667Y-79961399D01*
X120523000Y-80010000D01*
X120523000Y-85614836D01*
X120464586Y-85527414D01*
X120173436Y-85332873D01*
X119830001Y-85264560D01*
X118929999Y-85264560D01*
X118586564Y-85332873D01*
X118295414Y-85527414D01*
X118100873Y-85818564D01*
X118032560Y-86161999D01*
X118032560Y-86812001D01*
X118100873Y-87155436D01*
X118295414Y-87446586D01*
X118393313Y-87512000D01*
X118295414Y-87577414D01*
X118212168Y-87702000D01*
X118092868Y-87702000D01*
X115792283Y-85401416D01*
X115585800Y-85263448D01*
X115260000Y-85198643D01*
X115177767Y-85215000D01*
X114923050Y-85215000D01*
X114907809Y-85192191D01*
X114835000Y-85143541D01*
X114835000Y-85051120D01*
X115004602Y-84797294D01*
X115072440Y-84456250D01*
X115072440Y-83543750D01*
X115004602Y-83202706D01*
X114811416Y-82913584D01*
X114522294Y-82720398D01*
X114181250Y-82652560D01*
X113693750Y-82652560D01*
X113352706Y-82720398D01*
X113063584Y-82913584D01*
X113062793Y-82914767D01*
X112909698Y-82761673D01*
X112676309Y-82665000D01*
X112348250Y-82665000D01*
X112189500Y-82823750D01*
X112189500Y-83873000D01*
X112209500Y-83873000D01*
X112209500Y-84127000D01*
X112189500Y-84127000D01*
X112189500Y-85176250D01*
X112268000Y-85254750D01*
X112268000Y-85952560D01*
X111550000Y-85952560D01*
X111302235Y-86001843D01*
X111092191Y-86142191D01*
X110951843Y-86352235D01*
X110902560Y-86600000D01*
X110902560Y-87400000D01*
X110951843Y-87647765D01*
X111092191Y-87857809D01*
X111115000Y-87873050D01*
X111115001Y-88922688D01*
X110927898Y-89202706D01*
X110860060Y-89543750D01*
X110860060Y-90456250D01*
X110927898Y-90797294D01*
X111115000Y-91077311D01*
X111115001Y-92176950D01*
X111092191Y-92192191D01*
X110951843Y-92402235D01*
X110902560Y-92650000D01*
X110902560Y-93450000D01*
X110951843Y-93697765D01*
X111092191Y-93907809D01*
X111115000Y-93923050D01*
X111115001Y-95117246D01*
X111057898Y-95202706D01*
X110990060Y-95543750D01*
X110990060Y-96456250D01*
X111057898Y-96797294D01*
X111190000Y-96994998D01*
X111190001Y-98502560D01*
X111150000Y-98502560D01*
X110902235Y-98551843D01*
X110692191Y-98692191D01*
X110551843Y-98902235D01*
X110502560Y-99150000D01*
X108610901Y-99150000D01*
X105908310Y-84285750D01*
X110940000Y-84285750D01*
X110940000Y-84826310D01*
X111036673Y-85059699D01*
X111215302Y-85238327D01*
X111448691Y-85335000D01*
X111776750Y-85335000D01*
X111935500Y-85176250D01*
X111935500Y-84127000D01*
X111098750Y-84127000D01*
X110940000Y-84285750D01*
X105908310Y-84285750D01*
X105706117Y-83173690D01*
X110940000Y-83173690D01*
X110940000Y-83714250D01*
X111098750Y-83873000D01*
X111935500Y-83873000D01*
X111935500Y-82823750D01*
X111776750Y-82665000D01*
X111448691Y-82665000D01*
X111215302Y-82761673D01*
X111036673Y-82940301D01*
X110940000Y-83173690D01*
X105706117Y-83173690D01*
X105127000Y-79988552D01*
X105127000Y-77127000D01*
X138873000Y-77127000D01*
X138873000Y-79988552D01*
X138873000Y-79988552D01*
G37*
X138873000Y-79988552D02*
X134894009Y-101873000D01*
X109105991Y-101873000D01*
X108610901Y-99150000D01*
X110502560Y-99150000D01*
X110502560Y-100850000D01*
X110551843Y-101097765D01*
X110692191Y-101307809D01*
X110902235Y-101448157D01*
X111150000Y-101497440D01*
X112850000Y-101497440D01*
X113097765Y-101448157D01*
X113307809Y-101307809D01*
X113448157Y-101097765D01*
X113468739Y-100994292D01*
X113773076Y-101271645D01*
X114183110Y-101441476D01*
X114413000Y-101320155D01*
X114413000Y-100127000D01*
X114393000Y-100127000D01*
X114393000Y-99873000D01*
X114413000Y-99873000D01*
X114413000Y-98679845D01*
X114183110Y-98558524D01*
X113773076Y-98728355D01*
X113468739Y-99005708D01*
X113448157Y-98902235D01*
X113307809Y-98692191D01*
X113097765Y-98551843D01*
X113060000Y-98544331D01*
X113060000Y-97282000D01*
X113258238Y-97282000D01*
X113386191Y-97335000D01*
X113714250Y-97335000D01*
X113873000Y-97176250D01*
X113873000Y-96127000D01*
X114127000Y-96127000D01*
X114127000Y-97176250D01*
X114285750Y-97335000D01*
X114613809Y-97335000D01*
X114847198Y-97238327D01*
X115025827Y-97059699D01*
X115122500Y-96826310D01*
X115122500Y-96285750D01*
X114963750Y-96127000D01*
X114127000Y-96127000D01*
X113873000Y-96127000D01*
X113853000Y-96127000D01*
X113853000Y-95873000D01*
X113873000Y-95873000D01*
X113873000Y-94127000D01*
X114127000Y-94127000D01*
X114127000Y-95873000D01*
X114963750Y-95873000D01*
X115122500Y-95714250D01*
X115122500Y-95173690D01*
X115025827Y-94940301D01*
X114916775Y-94831250D01*
X114988327Y-94759699D01*
X115085000Y-94526310D01*
X115085000Y-94285750D01*
X115022500Y-94223250D01*
X115665000Y-94223250D01*
X115665000Y-94551309D01*
X115761673Y-94784698D01*
X115940301Y-94963327D01*
X116173690Y-95060000D01*
X116714250Y-95060000D01*
X116873000Y-94901250D01*
X116873000Y-94064500D01*
X117127000Y-94064500D01*
X117127000Y-94901250D01*
X117285750Y-95060000D01*
X117826310Y-95060000D01*
X118059699Y-94963327D01*
X118238327Y-94784698D01*
X118335000Y-94551309D01*
X118335000Y-94223250D01*
X118176250Y-94064500D01*
X117127000Y-94064500D01*
X116873000Y-94064500D01*
X115823750Y-94064500D01*
X115665000Y-94223250D01*
X115022500Y-94223250D01*
X114926250Y-94127000D01*
X114127000Y-94127000D01*
X113873000Y-94127000D01*
X113853000Y-94127000D01*
X113853000Y-93873000D01*
X113873000Y-93873000D01*
X113873000Y-93853000D01*
X114127000Y-93853000D01*
X114127000Y-93873000D01*
X114926250Y-93873000D01*
X115085000Y-93714250D01*
X115085000Y-93473690D01*
X114988327Y-93240301D01*
X114809698Y-93061673D01*
X114774306Y-93047013D01*
X114907809Y-92957809D01*
X114914697Y-92947500D01*
X115904474Y-92947500D01*
X115761673Y-93090302D01*
X115665000Y-93323691D01*
X115665000Y-93651750D01*
X115823750Y-93810500D01*
X116873000Y-93810500D01*
X116873000Y-93790500D01*
X117127000Y-93790500D01*
X117127000Y-93810500D01*
X118176250Y-93810500D01*
X118335000Y-93651750D01*
X118335000Y-93323691D01*
X118238327Y-93090302D01*
X118085233Y-92937207D01*
X118086416Y-92936416D01*
X118112419Y-92897500D01*
X118640633Y-92897500D01*
X119493415Y-93750282D01*
X119539999Y-93820001D01*
X119816199Y-94004552D01*
X120059763Y-94053000D01*
X120142000Y-94069358D01*
X120224237Y-94053000D01*
X120289991Y-94053000D01*
X120240000Y-94173690D01*
X120240000Y-94614250D01*
X120398750Y-94773000D01*
X120877560Y-94773000D01*
X120877560Y-95027000D01*
X120398750Y-95027000D01*
X120240000Y-95185750D01*
X120240000Y-95626310D01*
X120336673Y-95859699D01*
X120515302Y-96038327D01*
X120601265Y-96073934D01*
X120435199Y-96240000D01*
X120154848Y-96240000D01*
X120080000Y-96225112D01*
X120005152Y-96240000D01*
X120005148Y-96240000D01*
X119831605Y-96274520D01*
X119783462Y-96284096D01*
X119670655Y-96359472D01*
X119532071Y-96452071D01*
X119489671Y-96515527D01*
X117446408Y-98558791D01*
X117226256Y-98515000D01*
X116933744Y-98515000D01*
X116500582Y-98601161D01*
X116009375Y-98929375D01*
X115796157Y-99248478D01*
X115735183Y-99118642D01*
X115306924Y-98728355D01*
X114896890Y-98558524D01*
X114667000Y-98679845D01*
X114667000Y-99873000D01*
X114687000Y-99873000D01*
X114687000Y-100127000D01*
X114667000Y-100127000D01*
X114667000Y-101320155D01*
X114896890Y-101441476D01*
X115306924Y-101271645D01*
X115735183Y-100881358D01*
X115796157Y-100751522D01*
X116009375Y-101070625D01*
X116500582Y-101398839D01*
X116933744Y-101485000D01*
X117226256Y-101485000D01*
X117659418Y-101398839D01*
X118150625Y-101070625D01*
X118350000Y-100772239D01*
X118549375Y-101070625D01*
X119040582Y-101398839D01*
X119473744Y-101485000D01*
X119766256Y-101485000D01*
X120199418Y-101398839D01*
X120690625Y-101070625D01*
X120890000Y-100772239D01*
X121089375Y-101070625D01*
X121580582Y-101398839D01*
X122013744Y-101485000D01*
X122306256Y-101485000D01*
X122739418Y-101398839D01*
X123230625Y-101070625D01*
X123430000Y-100772239D01*
X123629375Y-101070625D01*
X124120582Y-101398839D01*
X124553744Y-101485000D01*
X124846256Y-101485000D01*
X125279418Y-101398839D01*
X125770625Y-101070625D01*
X125970000Y-100772239D01*
X126169375Y-101070625D01*
X126660582Y-101398839D01*
X127093744Y-101485000D01*
X127386256Y-101485000D01*
X127819418Y-101398839D01*
X128310625Y-101070625D01*
X128510000Y-100772239D01*
X128709375Y-101070625D01*
X129200582Y-101398839D01*
X129633744Y-101485000D01*
X129926256Y-101485000D01*
X130359418Y-101398839D01*
X130850625Y-101070625D01*
X131050000Y-100772239D01*
X131249375Y-101070625D01*
X131740582Y-101398839D01*
X132173744Y-101485000D01*
X132466256Y-101485000D01*
X132899418Y-101398839D01*
X133390625Y-101070625D01*
X133718839Y-100579418D01*
X133834092Y-100000000D01*
X133718839Y-99420582D01*
X133390625Y-98929375D01*
X132899418Y-98601161D01*
X132466256Y-98515000D01*
X132173744Y-98515000D01*
X131740582Y-98601161D01*
X131249375Y-98929375D01*
X131050000Y-99227761D01*
X130850625Y-98929375D01*
X130412158Y-98636401D01*
X130369314Y-97565295D01*
X130497586Y-97479586D01*
X130692127Y-97188436D01*
X130760440Y-96845001D01*
X130760440Y-96194999D01*
X130692127Y-95851564D01*
X130497586Y-95560414D01*
X130496403Y-95559623D01*
X130651327Y-95404698D01*
X130748000Y-95171309D01*
X130748000Y-94755750D01*
X130589250Y-94597000D01*
X129540000Y-94597000D01*
X129540000Y-94343000D01*
X130589250Y-94343000D01*
X130748000Y-94184250D01*
X130748000Y-93768691D01*
X130651327Y-93535302D01*
X130472699Y-93356673D01*
X130302000Y-93285967D01*
X130302000Y-92363139D01*
X130335000Y-92197237D01*
X130351358Y-92115000D01*
X130335000Y-92032763D01*
X130335000Y-85426355D01*
X130584586Y-85259586D01*
X130779127Y-84968436D01*
X130847440Y-84625001D01*
X130847440Y-83974999D01*
X130779127Y-83631564D01*
X130584586Y-83340414D01*
X130486687Y-83275000D01*
X130584586Y-83209586D01*
X130779127Y-82918436D01*
X130847440Y-82575001D01*
X130847440Y-81924999D01*
X130779127Y-81581564D01*
X130584586Y-81290414D01*
X130293436Y-81095873D01*
X130260000Y-81089222D01*
X130260000Y-80044848D01*
X130274888Y-79970000D01*
X130260000Y-79895152D01*
X130260000Y-79895148D01*
X130215904Y-79673463D01*
X130047929Y-79422071D01*
X129984473Y-79379671D01*
X128897330Y-78292529D01*
X128854928Y-78229070D01*
X128603536Y-78061095D01*
X128381851Y-78016999D01*
X128381846Y-78016999D01*
X128306999Y-78002111D01*
X128232152Y-78016999D01*
X123043847Y-78016999D01*
X122968999Y-78002111D01*
X122894151Y-78016999D01*
X122894147Y-78016999D01*
X122672462Y-78061095D01*
X122421070Y-78229070D01*
X122378668Y-78292529D01*
X122086528Y-78584669D01*
X122023072Y-78627069D01*
X121855096Y-78878461D01*
X121811000Y-79100146D01*
X121811000Y-79100151D01*
X121796112Y-79174998D01*
X121811000Y-79249845D01*
X121811000Y-79814851D01*
X121811001Y-79814856D01*
X121811001Y-79883000D01*
X120650000Y-79883000D01*
X120601399Y-79892667D01*
X120560197Y-79920197D01*
X120532667Y-79961399D01*
X120523000Y-80010000D01*
X120523000Y-85614836D01*
X120464586Y-85527414D01*
X120173436Y-85332873D01*
X119830001Y-85264560D01*
X118929999Y-85264560D01*
X118586564Y-85332873D01*
X118295414Y-85527414D01*
X118100873Y-85818564D01*
X118032560Y-86161999D01*
X118032560Y-86812001D01*
X118100873Y-87155436D01*
X118295414Y-87446586D01*
X118393313Y-87512000D01*
X118295414Y-87577414D01*
X118212168Y-87702000D01*
X118092868Y-87702000D01*
X115792283Y-85401416D01*
X115585800Y-85263448D01*
X115260000Y-85198643D01*
X115177767Y-85215000D01*
X114923050Y-85215000D01*
X114907809Y-85192191D01*
X114835000Y-85143541D01*
X114835000Y-85051120D01*
X115004602Y-84797294D01*
X115072440Y-84456250D01*
X115072440Y-83543750D01*
X115004602Y-83202706D01*
X114811416Y-82913584D01*
X114522294Y-82720398D01*
X114181250Y-82652560D01*
X113693750Y-82652560D01*
X113352706Y-82720398D01*
X113063584Y-82913584D01*
X113062793Y-82914767D01*
X112909698Y-82761673D01*
X112676309Y-82665000D01*
X112348250Y-82665000D01*
X112189500Y-82823750D01*
X112189500Y-83873000D01*
X112209500Y-83873000D01*
X112209500Y-84127000D01*
X112189500Y-84127000D01*
X112189500Y-85176250D01*
X112268000Y-85254750D01*
X112268000Y-85952560D01*
X111550000Y-85952560D01*
X111302235Y-86001843D01*
X111092191Y-86142191D01*
X110951843Y-86352235D01*
X110902560Y-86600000D01*
X110902560Y-87400000D01*
X110951843Y-87647765D01*
X111092191Y-87857809D01*
X111115000Y-87873050D01*
X111115001Y-88922688D01*
X110927898Y-89202706D01*
X110860060Y-89543750D01*
X110860060Y-90456250D01*
X110927898Y-90797294D01*
X111115000Y-91077311D01*
X111115001Y-92176950D01*
X111092191Y-92192191D01*
X110951843Y-92402235D01*
X110902560Y-92650000D01*
X110902560Y-93450000D01*
X110951843Y-93697765D01*
X111092191Y-93907809D01*
X111115000Y-93923050D01*
X111115001Y-95117246D01*
X111057898Y-95202706D01*
X110990060Y-95543750D01*
X110990060Y-96456250D01*
X111057898Y-96797294D01*
X111190000Y-96994998D01*
X111190001Y-98502560D01*
X111150000Y-98502560D01*
X110902235Y-98551843D01*
X110692191Y-98692191D01*
X110551843Y-98902235D01*
X110502560Y-99150000D01*
X108610901Y-99150000D01*
X105908310Y-84285750D01*
X110940000Y-84285750D01*
X110940000Y-84826310D01*
X111036673Y-85059699D01*
X111215302Y-85238327D01*
X111448691Y-85335000D01*
X111776750Y-85335000D01*
X111935500Y-85176250D01*
X111935500Y-84127000D01*
X111098750Y-84127000D01*
X110940000Y-84285750D01*
X105908310Y-84285750D01*
X105706117Y-83173690D01*
X110940000Y-83173690D01*
X110940000Y-83714250D01*
X111098750Y-83873000D01*
X111935500Y-83873000D01*
X111935500Y-82823750D01*
X111776750Y-82665000D01*
X111448691Y-82665000D01*
X111215302Y-82761673D01*
X111036673Y-82940301D01*
X110940000Y-83173690D01*
X105706117Y-83173690D01*
X105127000Y-79988552D01*
X105127000Y-77127000D01*
X138873000Y-77127000D01*
X138873000Y-79988552D01*
G36*
X117098415Y-89069283D02*
X117144999Y-89139001D01*
X117421199Y-89323552D01*
X117664763Y-89372000D01*
X117664766Y-89372000D01*
X117746999Y-89388357D01*
X117829232Y-89372000D01*
X118212168Y-89372000D01*
X118295414Y-89496586D01*
X118545001Y-89663355D01*
X118545000Y-90849767D01*
X118528643Y-90932000D01*
X118545000Y-91014233D01*
X118545000Y-91014236D01*
X118587421Y-91227500D01*
X118112419Y-91227500D01*
X118086416Y-91188584D01*
X117797294Y-90995398D01*
X117456250Y-90927560D01*
X116543750Y-90927560D01*
X116202706Y-90995398D01*
X115930172Y-91177500D01*
X114810993Y-91177500D01*
X114791230Y-91164295D01*
X114895827Y-91059699D01*
X114992500Y-90826310D01*
X114992500Y-90285750D01*
X114833750Y-90127000D01*
X113997000Y-90127000D01*
X113997000Y-90147000D01*
X113792000Y-90147000D01*
X113792000Y-89853000D01*
X113997000Y-89853000D01*
X113997000Y-89873000D01*
X114833750Y-89873000D01*
X114992500Y-89714250D01*
X114992500Y-89173690D01*
X114895827Y-88940301D01*
X114826775Y-88871250D01*
X114988327Y-88709699D01*
X115085000Y-88476310D01*
X115085000Y-88235750D01*
X114926250Y-88077000D01*
X114127000Y-88077000D01*
X114127000Y-88097000D01*
X113873000Y-88097000D01*
X113873000Y-88077000D01*
X113853000Y-88077000D01*
X113853000Y-87823000D01*
X113873000Y-87823000D01*
X113873000Y-87803000D01*
X114127000Y-87803000D01*
X114127000Y-87823000D01*
X114926250Y-87823000D01*
X115085000Y-87664250D01*
X115085000Y-87423690D01*
X114988327Y-87190301D01*
X114809698Y-87011673D01*
X114774306Y-86997013D01*
X114907809Y-86907809D01*
X114919478Y-86890345D01*
X117098415Y-89069283D01*
X117098415Y-89069283D01*
G37*
X117098415Y-89069283D02*
X117144999Y-89139001D01*
X117421199Y-89323552D01*
X117664763Y-89372000D01*
X117664766Y-89372000D01*
X117746999Y-89388357D01*
X117829232Y-89372000D01*
X118212168Y-89372000D01*
X118295414Y-89496586D01*
X118545001Y-89663355D01*
X118545000Y-90849767D01*
X118528643Y-90932000D01*
X118545000Y-91014233D01*
X118545000Y-91014236D01*
X118587421Y-91227500D01*
X118112419Y-91227500D01*
X118086416Y-91188584D01*
X117797294Y-90995398D01*
X117456250Y-90927560D01*
X116543750Y-90927560D01*
X116202706Y-90995398D01*
X115930172Y-91177500D01*
X114810993Y-91177500D01*
X114791230Y-91164295D01*
X114895827Y-91059699D01*
X114992500Y-90826310D01*
X114992500Y-90285750D01*
X114833750Y-90127000D01*
X113997000Y-90127000D01*
X113997000Y-90147000D01*
X113792000Y-90147000D01*
X113792000Y-89853000D01*
X113997000Y-89853000D01*
X113997000Y-89873000D01*
X114833750Y-89873000D01*
X114992500Y-89714250D01*
X114992500Y-89173690D01*
X114895827Y-88940301D01*
X114826775Y-88871250D01*
X114988327Y-88709699D01*
X115085000Y-88476310D01*
X115085000Y-88235750D01*
X114926250Y-88077000D01*
X114127000Y-88077000D01*
X114127000Y-88097000D01*
X113873000Y-88097000D01*
X113873000Y-88077000D01*
X113853000Y-88077000D01*
X113853000Y-87823000D01*
X113873000Y-87823000D01*
X113873000Y-87803000D01*
X114127000Y-87803000D01*
X114127000Y-87823000D01*
X114926250Y-87823000D01*
X115085000Y-87664250D01*
X115085000Y-87423690D01*
X114988327Y-87190301D01*
X114809698Y-87011673D01*
X114774306Y-86997013D01*
X114907809Y-86907809D01*
X114919478Y-86890345D01*
X117098415Y-89069283D01*
G36*
X128415414Y-85259586D02*
X128665000Y-85426355D01*
X128665000Y-87834750D01*
X128524000Y-87975750D01*
X128524000Y-88900000D01*
X128544000Y-88900000D01*
X128544000Y-89154000D01*
X128524000Y-89154000D01*
X128524000Y-89174000D01*
X128270000Y-89174000D01*
X128270000Y-89154000D01*
X128250000Y-89154000D01*
X128250000Y-88900000D01*
X128270000Y-88900000D01*
X128270000Y-87975750D01*
X128111250Y-87817000D01*
X127570690Y-87817000D01*
X127400000Y-87887702D01*
X127400000Y-87556913D01*
X127420929Y-87542929D01*
X127463331Y-87479470D01*
X128119473Y-86823329D01*
X128182929Y-86780929D01*
X128232412Y-86706872D01*
X128350904Y-86529538D01*
X128366725Y-86450000D01*
X128395000Y-86307852D01*
X128395000Y-86307848D01*
X128409888Y-86233000D01*
X128395000Y-86158152D01*
X128395000Y-85229034D01*
X128415414Y-85259586D01*
X128415414Y-85259586D01*
G37*
X128415414Y-85259586D02*
X128665000Y-85426355D01*
X128665000Y-87834750D01*
X128524000Y-87975750D01*
X128524000Y-88900000D01*
X128544000Y-88900000D01*
X128544000Y-89154000D01*
X128524000Y-89154000D01*
X128524000Y-89174000D01*
X128270000Y-89174000D01*
X128270000Y-89154000D01*
X128250000Y-89154000D01*
X128250000Y-88900000D01*
X128270000Y-88900000D01*
X128270000Y-87975750D01*
X128111250Y-87817000D01*
X127570690Y-87817000D01*
X127400000Y-87887702D01*
X127400000Y-87556913D01*
X127420929Y-87542929D01*
X127463331Y-87479470D01*
X128119473Y-86823329D01*
X128182929Y-86780929D01*
X128232412Y-86706872D01*
X128350904Y-86529538D01*
X128366725Y-86450000D01*
X128395000Y-86307852D01*
X128395000Y-86307848D01*
X128409888Y-86233000D01*
X128395000Y-86158152D01*
X128395000Y-85229034D01*
X128415414Y-85259586D01*
G04 #@! TD*
M02*
